<svg id="Layer_1" data-name="Layer 1" xmlns="http://www.w3.org/2000/svg" xmlns:xlink="http://www.w3.org/1999/xlink" viewBox="0 0 254 136"><defs><style>.cls-1,.cls-11,.cls-3,.cls-4,.cls-5,.cls-6{fill:none;}.cls-2{clip-path:url(#clip-path);}.cls-3,.cls-4,.cls-5{stroke:#4b4272;}.cls-11,.cls-3,.cls-4,.cls-5,.cls-6{stroke-linecap:round;stroke-linejoin:round;}.cls-3{stroke-width:0.77px;}.cls-4{stroke-width:1.15px;}.cls-11,.cls-5{stroke-width:0.38px;}.cls-6{stroke:#342b59;stroke-width:1.53px;}.cls-7{fill:#32cc77;}.cls-13,.cls-8{fill:#262041;}.cls-9{fill:#e1f0f7;}.cls-10{fill:#4b4272;}.cls-11{stroke:#29a3dd;}.cls-12{fill:#e0f0f7;}.cls-13{fill-opacity:0.5;}</style><clipPath id="clip-path"><rect class="cls-1" width="254" height="136"/></clipPath></defs><g class="cls-2"><path id="Layer1_26_MEMBER_0_1_STROKES" data-name="Layer1 26 MEMBER 0 1 STROKES" class="cls-3" d="M163.71,22.16q19.22,6.45-4.13,44.94"/><path id="Layer1_26_MEMBER_0_MEMBER_0_1_STROKES" data-name="Layer1 26 MEMBER 0 MEMBER 0 1 STROKES" class="cls-4" d="M37.5,80.11l-.72-1.26m-7,9-1.29-.75m-2.62,7.52-1.28-.75m38-20.46V71.92M54.81,73.4V71.92M44.26,76.21,43.53,75M79.9,80.11l.75-1.26m-7.52-2.64L73.88,75M91.51,94.57l1.27-.73m-5.17-6,1.26-.73m5.47,25.84h1.48m-1.48-7.81h1.48m-8.21,25.12,1.28.72m2.62-7.49,1.28.72m-12.9,13.73.74,1.29m-7.5,2.62.75,1.28m-11.26,1.55v1.47M37.5,137.92l-.72,1.29m-7-9-1.28.74m26.29,13.72v1.47m-10.54-4.3-.72,1.28M23.08,112.93H21.61m1.47-7.81H21.61m4.29,18.33-1.29.74"/><path id="Layer1_26_MEMBER_0_MEMBER_0_2_STROKES" data-name="Layer1 26 MEMBER 0 MEMBER 0 2 STROKES" class="cls-5" d="M37.5,80.11,48.06,98.39l6.75,3.9V94.51L44.26,76.21M54.81,73.4V94.51l3.89,6.73,3.9-6.77,0-21.07m10.51,2.81L62.6,94.47v7.79l6.79-3.91L79.9,80.11M69.39,98.35,87.61,87.82m-61.7,6.79,18.25,10.53H52l-3.9-6.75L29.82,87.84m64.52,25.09H73.25l18.26,10.54m0-28.9-18.3,10.55H94.34m-31.74,0v1.65l1.43.82,1.44-2.47H62.6v-2.86l-2.49,1.43.82,1.43Zm-7.79-2.83,2.45,1.42,1.44-2.47,1.41,2.45-1.43.84,1,.59h1.2l.6,1,1.07.63V108l.61,1.06.82-1.44L66.48,109l6.73-3.89H65.47l3.92-6.77m-12.65,7.29v0l2,3.35v-3.87H57.6Zm2-.5v0h1l.92.54v0l.87.5.53.94h0l.52.89V109h0v1l.59-1,.8,1.39L66.48,109l6.77,3.92-7.8,0,3.9,6.75,18.26,10.58m-30-25.1H56.44l-.59,1.06.89-.54m.86-.52,1.08-.61-1.42-.82-.82,1.43H54.81v1.65l1-.59-.52.88h0L58.7,109v0h0l0,0h0m3.89,0H58.71l3.37,2,.54-.92v1.17l1.39-.81,1.44,2.49H62.62v2.87l6.73,3.88,10.54,18.26M58.71,109v0h0l1.92,3.31,1-.57.48-.82h0m-3.37-1.92v3.85h1l.9-.52,0,0m-.88.54H61l.63-1.11,1-.57v1.68H61l-.84,1.43,2.47,1.44v7.78l10.51,18.27M55.9,111.91l.86.5v0l2-3.34v0L55.35,111l.55,1-1.07-.61v1.63H56.5Zm.86.48.94.54h1v0m-1,0,1,.59,1-.61m-3.25,0h1.2m1,3.88,1.42-2.47-1.44-.82-1.41.8,1.43,2.49,3.89,6.75v21.1M56.5,112.93l.8,1.39-2.47,1.44v7.8l3.9-6.75m1.92-11.15L58.73,109l3.33-1.93m-7.25-1.94H52l1.42,2.47,1.43-.82V108l.54-.94m-.54-2v-2.85M58.7,109H54.83v1.09l.5.86,0,0M54.83,109h0v-1l-.59,1,.61,1.06v1.18l-1.43-.82L52,112.93h2.85v2.83l-6.73,3.88L37.5,137.92m16.72-28.86-.82,1.42-2.49-1.43-6.75,3.88H52l-3.88,6.71L29.8,130.2m14.36-25.06,6.75,3.91,2.47-1.44.84,1.45m-9.95,32.77,10.56-18.27,0,21.1M25.9,123.45l18.26-10.52H23.08m21.08-7.79-21.08,0"/><path id="Layer1_26_MEMBER_0_MEMBER_1_1_STROKES" data-name="Layer1 26 MEMBER 0 MEMBER 1 1 STROKES" class="cls-4" d="M228.09,94.57l1.26-.73m1.57,19.09h1.47m-1.47-7.81h1.47m-4.3,18.35,1.28.72M162.49,94.61l-1.28-.75m19.62-17.65L180.1,75m11.28-1.55V71.92m-17.3,8.19-.73-1.26m-7,9-1.28-.75m51.37-7,.74-1.26m-18-5.45V71.92m25,15.9,1.27-.73M209.71,76.21l.74-1.26m13.73,55.29,1.29.72m-59.1-.76-1.28.74m9,7-.73,1.29m7.5,2.62-.73,1.28m11.26,1.55v1.47m25.08-8.21.74,1.29m-18,5.45v1.47m10.52-4.3.74,1.28m-50.79-30.18h-1.48m1.48-7.81h-1.48m4.29,18.33-1.28.74"/><path id="Layer1_26_MEMBER_0_MEMBER_1_2_STROKES" data-name="Layer1 26 MEMBER 0 MEMBER 1 2 STROKES" class="cls-5" d="M174.08,80.11l10.55,18.28,6.75,3.9V94.51l-10.55-18.3m10.55,18.3V73.4M162.49,94.61l18.24,10.53h7.8l-3.9-6.75L166.39,87.84m50.09-7.73L206,98.35l18.22-10.53m-25-14.42,0,21.07,10.54-18.26m-13,27.48-1.41-2.45-1.44,2.47,1.42.82,1.43-.84,2.49-1.43V94.47l-3.9,6.77-3.89-6.73m6.12,10.61h-1.2l.92.54,0,0,.86.5-.6-1-.82-1.43m-1.39,1.45v0h1l-1.05-.59-1.07.61h1.11V109h0l1.92-3.35m1.95,1.11-1.07-.63.53.94h0l.52.89v-2.85H197.5m1.67,1.65,1.43.82,1.44-2.47h-2.87v-2.86L206,98.35,202,105.12h7.74l18.31-10.55m-28.9,15.49v-1h-3.9l3.36,2,.54-.92.59-1-.61-1.06V109m0,1v1.17l1.39-.81-.8-1.39.82-1.44,2.45,1.42,6.73-3.89h21.14m-31.73,7.79v-1.68l-1,.57-.63,1.11H202l-1.44-2.49,2.47-1.41,6.77,3.92h21.1M195.29,109v0h0l1.91,3.31,1-.57.48-.82h0m-3.38-2v0h0l0,0-3.35-1.92-.54.94v1h3.89l0,0-1.95,3.34.93.54h1v-3.87m0,0v0l3.33-1.93m-4.36,5.85,1,.59,1-.61h-1m1,0,.9-.52,0,0m-.88.54h1.24l-.84,1.43,2.47,1.44v-2.87m-3.89,3.9,1.42-2.47-1.43-.82-1.42.8,1.43,2.49,3.89,6.75v-7.78l6.73,3.88-3.9-6.75,7.8,0,18.27,10.54m-22.17-3.81,18.26,10.58m-30.35-26.53-2.45-1.42v2.85H193Zm-2.45,3.08v-1.65h-2.85l1.42,2.47,1.43-.82,1-.59.59-1.06h1.17l-.86.5v0l2,3.35m-5.32-1.4.84,1.45.59-1v-1.24m.54.3h0l.52-.88.9-.54M191.4,109v1.09l.5.86,0,0,3.35-1.93m-3.87,1.09v1.18l1.07.61-.55-1m-.52.34v1.63h1.67l-.6-1,.87.5v0m-.27.54h1.2m-2.87-2.81-.61-1.06-.82,1.42,1.43.82M190,107.61l-2.47,1.44,2.49,1.43-1.42,2.45h2.85v2.83l2.47-1.44-.8-1.39m-5.59-3.88-6.75,3.88h7.82l-3.88,6.71,6.73-3.88v7.8l3.9-6.75m-14.57-11.67,6.75,3.91M166.37,130.2l18.3-10.56-10.59,18.28m31.84-18.26,10.54,18.26m-35.61,3.91,10.55-18.27,0,21.1m18.33-2.83-10.52-18.27v21.1m-36.72-21.21,18.26-10.52H159.66m21.07-7.79-21.07,0"/><path id="Layer1_26_MEMBER_0_MEMBER_2_1_STROKES" data-name="Layer1 26 MEMBER 0 MEMBER 2 1 STROKES" class="cls-6" d="M84.36,120.46l-26.6-6.67a3.89,3.89,0,0,1-.4-.1,4.77,4.77,0,0,1,1.37-9.33l.27,0h.17l25.19,1.41"/><g id="Layer1_26_MEMBER_0_MEMBER_3_FILL" data-name="Layer1 26 MEMBER 0 MEMBER 3 FILL"><path class="cls-7" d="M21.06,91.62,20,91.3a41.68,41.68,0,0,0-3.77,17.8,41,41,0,0,0,12.45,30.07,41,41,0,0,0,30.06,12.45,40.91,40.91,0,0,0,30.05-12.45,40.74,40.74,0,0,0,12-23.51.69.69,0,0,0,0-.13l-1.07-.33a45.29,45.29,0,0,0,.4-6.1A39.9,39.9,0,0,0,88,79.82a47.42,47.42,0,0,0-4.7-4.13l0,0a39.85,39.85,0,0,0-24.52-8A39.93,39.93,0,0,0,29.45,79.82a41.79,41.79,0,0,0-8.39,11.8m2.25.67a39.13,39.13,0,0,1,7.77-10.82A37.67,37.67,0,0,1,58.73,70a37.51,37.51,0,0,1,23,7.44,42.3,42.3,0,0,1,4.63,4A37.64,37.64,0,0,1,97.82,109.1a43.77,43.77,0,0,1-.32,5.43c0,.21-.07.42-.1.64a37.41,37.41,0,0,1-11,21.59,37.72,37.72,0,0,1-27.66,11.45,37.7,37.7,0,0,1-27.65-11.45A37.68,37.68,0,0,1,19.64,109.1,38.47,38.47,0,0,1,23.31,92.29Z"/><path class="cls-8" d="M31.08,81.47a39.13,39.13,0,0,0-7.77,10.82,38.47,38.47,0,0,0-3.67,16.81,37.68,37.68,0,0,0,11.44,27.66,37.7,37.7,0,0,0,27.65,11.45,37.72,37.72,0,0,0,27.66-11.45,37.41,37.41,0,0,0,11-21.59c0-.22.06-.43.1-.64a43.77,43.77,0,0,0,.32-5.43A37.64,37.64,0,0,0,86.39,81.47a42.3,42.3,0,0,0-4.63-4,37.51,37.51,0,0,0-23-7.44A37.67,37.67,0,0,0,31.08,81.47M25,92.79a37.82,37.82,0,0,1,7.32-10.12A36,36,0,0,1,58.71,71.73a35.83,35.83,0,0,1,22,7.06,39.45,39.45,0,0,1,4.49,3.88,36,36,0,0,1,11,26.45,42,42,0,0,1-.28,4.92q-.06.43-.12.9a35.77,35.77,0,0,1-10.56,20.63,36,36,0,0,1-26.45,11,36,36,0,0,1-26.43-11,36.05,36.05,0,0,1-11-26.45A36.67,36.67,0,0,1,25,92.79M20,91.3l1.07.32a41.79,41.79,0,0,1,8.39-11.8A39.93,39.93,0,0,1,58.73,67.7a39.85,39.85,0,0,1,24.52,8l0,0A47.42,47.42,0,0,1,88,79.82a39.9,39.9,0,0,1,12.13,29.28,45.29,45.29,0,0,1-.4,6.1l1.07.33,2.6.76,0-.23h0a48.15,48.15,0,0,0,.5-7A43.54,43.54,0,0,0,90.69,77.13a49.63,49.63,0,0,0-5-4.4l-.13-.1a43.32,43.32,0,0,0-26.82-8.76,43.54,43.54,0,0,0-32,13.26,45.05,45.05,0,0,0-9.39,13.38Z"/><path class="cls-9" d="M63.36,110.29a4.93,4.93,0,0,0,.14-1.17,4.58,4.58,0,0,0-1.4-3.36,4.42,4.42,0,0,0-2.66-1.34,4.08,4.08,0,0,0-.71-.06A4.78,4.78,0,0,0,54,109.12v0a4.78,4.78,0,0,0,8.13,3.37v0A4.56,4.56,0,0,0,63.36,110.29Z"/></g><g id="Layer1_26_MEMBER_0_MEMBER_4_FILL" data-name="Layer1 26 MEMBER 0 MEMBER 4 FILL"><path class="cls-8" d="M192.51,66.66l2.24-2.79a45.24,45.24,0,0,0-44.68,45.21,47.5,47.5,0,0,0,.9,9.34l2.26-2.81,1-1.21a43.76,43.76,0,0,1-.31-5.3A39.9,39.9,0,0,1,166,79.82a39.62,39.62,0,0,1,25.55-12l.95-1.19M234,115.17a43.06,43.06,0,0,0,.42-6.07,37.61,37.61,0,0,0-11.44-27.63,42.3,42.3,0,0,0-4.63-4,37.48,37.48,0,0,0-23-7.44,43.61,43.61,0,0,0-5.78.38,39.2,39.2,0,0,0-33.32,38.71c0,.91,0,1.81.08,2.7a39.1,39.1,0,0,0,39,36.41,39.19,39.19,0,0,0,38.67-33m-1.28-6a41.11,41.11,0,0,1-.41,5.82,37.53,37.53,0,0,1-37,31.59,37.4,37.4,0,0,1-37.37-36.74c0-.22,0-.44,0-.67a37.54,37.54,0,0,1,30-36.72q1.71-.32,3.48-.48c1.28-.12,2.57-.19,3.89-.19s2.63.07,3.92.19a35.27,35.27,0,0,1,18,6.87,39.54,39.54,0,0,1,4.5,3.88A36.07,36.07,0,0,1,232.68,109.12Z"/><path class="cls-7" d="M237.32,115.66a45.44,45.44,0,0,0,.46-6.56A41,41,0,0,0,225.33,79a45.23,45.23,0,0,0-4.84-4.23,40.71,40.71,0,0,0-25.2-8.22c-.95,0-1.87,0-2.78.07l-.95,1.19a39.62,39.62,0,0,0-25.55,12,39.9,39.9,0,0,0-12.13,29.28,43.76,43.76,0,0,0,.31,5.3l-1,1.21a42.6,42.6,0,0,0,42.06,36,42.61,42.61,0,0,0,42-36m-2.94-6.56a43.06,43.06,0,0,1-.42,6.07,39.19,39.19,0,0,1-38.67,33,39.1,39.1,0,0,1-39-36.41c-.05-.89-.08-1.79-.08-2.7a39.2,39.2,0,0,1,33.32-38.71,43.61,43.61,0,0,1,5.78-.38,37.48,37.48,0,0,1,23,7.44,42.3,42.3,0,0,1,4.63,4A37.61,37.61,0,0,1,234.38,109.1Z"/><path class="cls-9" d="M195.29,113a3.77,3.77,0,0,0,2.75-1.14,3.82,3.82,0,0,0,1-1.8,4.34,4.34,0,0,0,.1-1V109a3.8,3.8,0,0,0-1.13-2.66,3.67,3.67,0,0,0-2.18-1.09,2.76,2.76,0,0,0-.57-.06,3.73,3.73,0,0,0-2.78,1.15,3.84,3.84,0,0,0-1.13,2.66v.09a3.88,3.88,0,0,0,3.91,3.9Z"/></g><g id="Layer1_26_MEMBER_1_FILL" data-name="Layer1 26 MEMBER 1 FILL"><path class="cls-9" d="M196.18,108.11a.67.67,0,0,0-.55-.17l-1,.11-1.62.17-42.86,4.52a.73.73,0,0,0-.52.28.79.79,0,0,0-.15.58v0a.69.69,0,0,0,.27.47.71.71,0,0,0,.55.18l43.47-4.59,2-.21a.74.74,0,0,0,.52-.29.78.78,0,0,0,.17-.54v0a.75.75,0,0,0-.29-.51M89.72,40.6a1.42,1.42,0,0,0-.88.78,1.48,1.48,0,0,0-.06,1.17l4.07,11.59-.93.32.13.37a.86.86,0,0,0-.36.23,1,1,0,0,0,.68,1.7,1.66,1.66,0,0,0,.33,0l.13.36.58-.19,1.79-.65L97,55.61l.58-.21-.92-2.62-.94.34L91.67,41.53a1.59,1.59,0,0,0-.79-.88,1.51,1.51,0,0,0-1.16,0M19.05,87a.71.71,0,0,0-.57,0,.66.66,0,0,0-.44.39v0A.66.66,0,0,0,18,88a.68.68,0,0,0,.38.42l37.89,17.84L58,107a.8.8,0,0,0,.59,0,.89.89,0,0,0,.42-.37v0a.76.76,0,0,0,0-.57.79.79,0,0,0-.4-.44L57,104.91,19.05,87m155-22,.55-.19-.92-2.62-.57.21-1.82.63-1.79.63-.58.21.92,2.62,1.3-.46,1.45-.52,1.46-.51M159.2,19.9l-.79.25.92,2.91.77-.23a1.5,1.5,0,0,1,.47-.08,1.46,1.46,0,0,1,1.07.44,1.4,1.4,0,0,1,.43,1.06,1.45,1.45,0,0,1-.27.87.07.07,0,0,0,0,.06l-3.33,3.12a1.37,1.37,0,0,0-.44.75,1.56,1.56,0,0,0,0,.88l3.52,10-.94.32.92,2.62.57-.19,1.8-.65,1.82-.63.57-.21-.92-2.62-.93.34-3.2-9.06,2.18-2,.39-.34.28-.33s0,0,.06-.07A5.32,5.32,0,0,0,164.8,26a4.57,4.57,0,0,0,.33-1.74A4.38,4.38,0,0,0,163.81,21a4.58,4.58,0,0,0-4.61-1.13Z"/><path class="cls-8" d="M172.6,65.57l-1.45.52,21.9,42.13,1.62-.17L172.6,65.57M215,59.32a3.5,3.5,0,0,1,3.49,3.48,3.43,3.43,0,0,1-.46,1.74l.05-.06a4,4,0,0,0-.23.39l0,0-22.12,41.86,1.7,3.31L220,67.28V62.86a5.07,5.07,0,0,0-5-5,5.82,5.82,0,0,0-.6,0,.74.74,0,0,1-.21,0l-25.24,3c-.65,0-1.19.08-1.61.08H187a5.27,5.27,0,0,1-3.47-1.59,5.87,5.87,0,0,1-1.11-1.59.13.13,0,0,1,0-.06,3.52,3.52,0,0,1-.16-.45l-3.4-9.62h0a1.44,1.44,0,0,0-.86.78,1.49,1.49,0,0,0-.06,1.17l2.89,8.16a5.33,5.33,0,0,0,.23.63.07.07,0,0,0,0,.06,6.46,6.46,0,0,0,1.36,2v0q.19.2.39.36l1.3.88a6.09,6.09,0,0,0,2.54.67h.4c.54,0,1.21,0,2-.11l25.34-2.83.12,0h0a2.12,2.12,0,0,1,.44,0M162.1,42.68l1.65,4.71-.38.32v2.56l-53.75,47.2L95.2,56.24l-1.79.65,1,2.87L57,104.91l1.59.75a.79.79,0,0,1,.4.44.76.76,0,0,1,0,.57v0a.89.89,0,0,1-.42.37.8.8,0,0,1-.59,0l-1.68-.79v.19a1.5,1.5,0,0,0,.45,1l2.82,2.81a1.82,1.82,0,0,0,.36.88,1.89,1.89,0,0,0,1.26.75l55.31,7.95h.06l.06,0h0a1.79,1.79,0,0,0,.46,0,1.61,1.61,0,0,0,.33-.06,3,3,0,0,0,.38-.15l.12-.08a2,2,0,0,0,.3-.23l.15-.15,0,0,50.17-58.12.94,2.66,1.79-.63L163.9,42l-1.8.65M107.87,98v0l6.18,17.61-52.34-7.53-1.84-1.84L79,83.13l1.74,1.44,4.92-5.93L84,77.18l3.31-4L89,74.64l3.61-4.38L90.9,68.83l4.71-5.7L107.87,98m55.5-36.78v2.93l-46.55,53.93-4.9-14V98l53.21-46.72,2,5.62Z"/><path class="cls-10" d="M174.06,65.06l-1.46.51,22.07,42.48,1-.11a.67.67,0,0,1,.55.17.75.75,0,0,1,.29.51v0a.78.78,0,0,1-.17.54.74.74,0,0,1-.52.29l-2,.21.54,1a1.51,1.51,0,0,0,.82.73,1.42,1.42,0,0,0,1.07,0,1.59,1.59,0,0,0,.82-.71l.37-.71-1.7-3.31L174.06,65.06m-6.24-17.65,0-.06v0l-2.08-5.93L163.9,42l7.4,21.06,1.82-.63-5.3-15.05m46.4,8.89-.59,0-24.9,2.83c-.67.06-1.23.09-1.69.09h-.21a3.35,3.35,0,0,1-2.25-1h0a3.7,3.7,0,0,1-.72-1,2.72,2.72,0,0,1-.15-.42.16.16,0,0,1,0-.1l-2.91-8.19a1.53,1.53,0,0,0-.8-.86,1.44,1.44,0,0,0-1.15-.05l3.4,9.62a3.52,3.52,0,0,0,.16.45.13.13,0,0,0,0,.06,5.87,5.87,0,0,0,1.11,1.59A5.27,5.27,0,0,0,187,60.93h.32c.42,0,1,0,1.61-.08l25.24-3a.74.74,0,0,0,.21,0,5.82,5.82,0,0,1,.6,0,5.07,5.07,0,0,1,5,5v4.42l.54-1s0,0,0,0a.05.05,0,0,1,0,0l0-.08a6.37,6.37,0,0,0,.88-3.31,6.23,6.23,0,0,0-1.92-4.61l0,0a6.6,6.6,0,0,0-5.37-1.87m-50.85-6V47.71L110.56,94.09l-12.31-35v0L97,55.61l-1.82.63,14.42,41.23,53.75-47.2m0,13.89V61.23l-45.75,53L111.92,98v6.08l4.9,14,46.55-53.93M89,74.64l-1.74-1.45-3.31,4,1.74,1.46Z"/><path class="cls-7" d="M158.41,20.15,158.07,19l-1.21.37-2.39,1.68-9,2.85a.76.76,0,0,0-.23.13.64.64,0,0,0-.18.44.47.47,0,0,0,0,.16v0h0l.67,2.2a.45.45,0,0,0,0,.08.67.67,0,0,0,.13.25.67.67,0,0,0,.44.17h.16l0,0,9-2.83h2.87l1.27-.36-.35-1.13Z"/></g><g id="Layer1_26_MEMBER_1_MEMBER_0_FILL" data-name="Layer1 26 MEMBER 1 MEMBER 0 FILL"><path class="cls-10" d="M166.39,41a.8.8,0,0,0-.38-.44.83.83,0,0,0-.6,0l-1.81.65,7.91,22.49,1.82-.63a.78.78,0,0,0,.42-.38.81.81,0,0,0,0-.59l-5.3-15s0-.09,0-.11L166.39,41m-3.6,9.58V47L110.85,92.62,98.91,58.69v0l-1.21-3.44a.76.76,0,0,0-.38-.44.8.8,0,0,0-.59,0l-1.82.65,14.67,41.94,53.22-46.74M163.31,64V59.89l-45.46,52.69-5.09-14.47v8.39l4,11.44L163.31,64M89.54,75l-2.33-2L83.9,77l2.34,2Z"/><path class="cls-8" d="M163.6,41.17l-1.8.63a.7.7,0,0,0-.44.4.77.77,0,0,0,0,.58L162.79,47v3.58L109.57,97.32,94.9,55.38,93.1,56a.79.79,0,0,0-.44.4.77.77,0,0,0,0,.58l.88,2.46L56.38,104.28a.71.71,0,0,0-.17.42.69.69,0,0,0,.11.44.63.63,0,0,0,.29.29l-.06,0a.84.84,0,0,0-.49-.06.68.68,0,0,0-.42.27.72.72,0,0,0-.18.48v.25a2.29,2.29,0,0,0,.69,1.51l2.64,2.64a2.65,2.65,0,0,0,.46,1A2.7,2.7,0,0,0,61,112.51h0l55.31,7.95a.53.53,0,0,0,.19,0,2.89,2.89,0,0,0,.59,0h0a2.07,2.07,0,0,0,.42-.08h0a2.66,2.66,0,0,0,.5-.21l.07,0,.12-.08a4.85,4.85,0,0,0,.4-.31s0,0,0,0l.15-.15.12-.17,49.22-57,.5,1.39a.65.65,0,0,0,.4.44.78.78,0,0,0,.6,0l1.79-.63L163.6,41.17M107.1,98.11a.51.51,0,0,0,0,.09l5.76,16.35L62,107.25l-1.16-1.17,18.22-22,1.15.94a.7.7,0,0,0,.55.17.85.85,0,0,0,.52-.27L86.24,79,83.9,77l3.31-4,2.33,2,3.62-4.38a.79.79,0,0,0,.17-.55.66.66,0,0,0-.27-.52l-1.13-1,3.35-4.08L107.1,98.11m5.66,0v0l52-45.64,1.46,4.14-2.87,3.3V64l-46.55,53.93-4-11.44V98.11m6.33,21,0,0,0,.06Z"/></g><path id="Layer1_26_MEMBER_1_MEMBER_0_1_STROKES" data-name="Layer1 26 MEMBER 1 MEMBER 0 1 STROKES" class="cls-11" d="M119.09,119.07l0,0,0,.06Z"/><g id="Layer1_26_MEMBER_1_MEMBER_1_FILL" data-name="Layer1 26 MEMBER 1 MEMBER 1 FILL"><path class="cls-8" d="M189.7,62.09a.69.69,0,0,0-.29-.51.67.67,0,0,0-.55-.17l-13,1.45a.1.1,0,0,0-.07,0,2.62,2.62,0,0,0-1.34.71h0a2.8,2.8,0,0,0-.52,3.05h0l.08.16,0,0,1,1.83a.71.71,0,0,0,.44.37.8.8,0,0,0,.59,0,.76.76,0,0,0,.36-.46.73.73,0,0,0,0-.58l-.95-1.83-.08-.15v0a1.24,1.24,0,0,1-.09-.48,1.15,1.15,0,0,1,.32-.83h0a1.23,1.23,0,0,1,.57-.31l-.05,0,13-1.45a.76.76,0,0,0,.5-.29A.81.81,0,0,0,189.7,62.09Z"/></g><g id="Layer1_26_MEMBER_1_MEMBER_2_MEMBER_0_FILL" data-name="Layer1 26 MEMBER 1 MEMBER 2 MEMBER 0 FILL"><path class="cls-10" d="M77.84,109.12a19.87,19.87,0,0,1-.25,3.21c-.08.49-.17,1-.29,1.46a17.45,17.45,0,0,1-3,6.48l39.53,9.53.21,0c.22.06.44.1.65.14l.25,0,.23,0a12.79,12.79,0,0,0,1.76.12A12.19,12.19,0,0,0,119.09,106l-.65-.1a7.71,7.71,0,0,0-1.07-.08l-40.24-2a19.76,19.76,0,0,1,.71,5.35m1.84,3.54a24.18,24.18,0,0,0,.26-3.54,22.7,22.7,0,0,0-.21-3.12l37.54,1.9h.1a5.12,5.12,0,0,1,.78.06h0l.54.09h0a9.51,9.51,0,0,1,5.3,2.79,10.1,10.1,0,0,1,0,14.25v0a9.76,9.76,0,0,1-7.14,3,13,13,0,0,1-1.41-.08l-.06,0-.17,0,0,0-.25,0a3.41,3.41,0,0,1-.48-.09l-.06,0-.13,0h0l-36.64-8.84a20.23,20.23,0,0,0,1.72-4.64C79.48,113.73,79.59,113.2,79.68,112.66Z"/><path class="cls-8" d="M79.94,109.12a24.18,24.18,0,0,1-.26,3.54c-.09.54-.2,1.07-.33,1.61a20.23,20.23,0,0,1-1.72,4.64l36.64,8.84h0l.13,0,.06,0a3.41,3.41,0,0,0,.48.09l.25,0,0,0,.17,0,.06,0a13,13,0,0,0,1.41.08,9.76,9.76,0,0,0,7.14-3v0a10.1,10.1,0,0,0,0-14.25,9.51,9.51,0,0,0-5.3-2.79h0l-.54-.09h0a5.12,5.12,0,0,0-.78-.06h-.1L79.73,106a22.7,22.7,0,0,1,.21,3.12m1.57,3.77a27.28,27.28,0,0,0,.29-3.77c0-.39,0-.78,0-1.16l26.6,1.31-.07.08a11.7,11.7,0,0,0-3.45,6.89,14,14,0,0,0-.11,1.74,11.78,11.78,0,0,0,1.51,5.93l-26-6.26a24.1,24.1,0,0,0,.92-3c.14-.58.25-1.16.34-1.74,0,0,0,0,0-.06m36.87-3A8.13,8.13,0,0,1,125.1,118a8.16,8.16,0,0,1-8.19,8.18,9.18,9.18,0,0,1-1.17-.07.39.39,0,0,0-.15,0l-.17,0L115,126l-.13,0-.14,0-.13,0a8,8,0,0,1-3.46-2.09,7.84,7.84,0,0,1-2.39-5.77,7.31,7.31,0,0,1,.09-1.17,8.18,8.18,0,0,1,8.09-7h.25l.08,0a4.23,4.23,0,0,1,.7.06A2.92,2.92,0,0,1,118.38,109.91Z"/></g><g id="Layer1_26_MEMBER_1_MEMBER_3_FILL" data-name="Layer1 26 MEMBER 1 MEMBER 3 FILL"><path class="cls-12" d="M122,137.43H111.71v3.86H122v-3.86m-3.81-20.83a1.84,1.84,0,0,1,.56,1.34v2.45l.28-.27A3,3,0,0,0,120,118a2.89,2.89,0,0,0-.88-2.14,3,3,0,0,0-1.6-.86l-.18,0a1.14,1.14,0,0,0-.26,0h-.12a3.06,3.06,0,0,0-3,2.62c0,.14,0,.28,0,.42a3,3,0,0,0,.88,2.16l.25.23v-2.41a1.9,1.9,0,0,1,3.23-1.34Z"/><path class="cls-8" d="M118.79,117.94a1.84,1.84,0,0,0-.56-1.34,1.89,1.89,0,0,0-3.23,1.34v19.49h3.79V117.94Z"/></g><g id="Layer1_26_MEMBER_1_MEMBER_4_FILL" data-name="Layer1 26 MEMBER 1 MEMBER 4 FILL"><path class="cls-13" d="M89.72,40.6a1.42,1.42,0,0,0-.88.78,1.48,1.48,0,0,0-.06,1.17l4.07,11.59-.93.32.13.37a.87.87,0,0,1,.32-.06,1,1,0,0,1,1,1,1,1,0,0,1-.31.71.93.93,0,0,1-.38.25l.13.36,2.37-.84-.91-2.62,1.45-.5-.31-.88L94,52.76,91.23,44.9l1.2-1.19-.76-2.18a1.59,1.59,0,0,0-.79-.88,1.51,1.51,0,0,0-1.16,0m79.21,23.33.92,2.62,2.37-.84-.92-2.62-2.37.84m-9.27-42.57-.79.25-.46-1.46-1.18.38-2.39,1.69-9.55,3,.5,1.66a.45.45,0,0,0,0,.08.67.67,0,0,0,.13.25.67.67,0,0,0,.44.17h.16l0,0,9-2.83h2.87l1.27-.36-.35-1.13.77-.23a1.5,1.5,0,0,1,.47-.08,1.46,1.46,0,0,1,1.07.44,1.4,1.4,0,0,1,.43,1.06,1.45,1.45,0,0,1-.27.87.07.07,0,0,0,0,.06l-3.33,3.12a1.37,1.37,0,0,0-.44.75,1.56,1.56,0,0,0,0,.88l3.52,10-.94.32.92,2.62L163.9,42,163,39.41l1.46-.5-.31-.88-1.45.52-2.62-7.5,3.36-3.23.39-.34.28-.33s0,0,.06-.07A5.32,5.32,0,0,0,164.8,26h-.21a1,1,0,0,1-1-1v-.36c0-.12,0-.24,0-.36V24a3,3,0,0,0-.88-1.88,3,3,0,0,0-2.15-.88A2.72,2.72,0,0,0,159.66,21.36Z"/></g><g id="Layer1_26_MEMBER_1_MEMBER_5_FILL" data-name="Layer1 26 MEMBER 1 MEMBER 5 FILL"><path class="cls-7" d="M104.56,39.45h1.87V37.94a3.21,3.21,0,0,0-3.12-3.14H78.05a3.59,3.59,0,0,0-3.19,3.46V40l10.21,4.19H91Z"/></g><g id="Layer1_26_MEMBER_1_MEMBER_5_MEMBER_0_FILL" data-name="Layer1 26 MEMBER 1 MEMBER 5 MEMBER 0 FILL"><path class="cls-13" d="M74.86,38.26V40l10.21,4.19H91l.17,0q-1.47-9-12.13-9.32l-1,0a3.59,3.59,0,0,0-3.19,3.46Z"/></g><g id="Layer1_26_MEMBER_1_MEMBER_6_FILL" data-name="Layer1 26 MEMBER 1 MEMBER 6 FILL"><path class="cls-13" d="M18,87.42A.66.66,0,0,0,18,88a.68.68,0,0,0,.38.42L58,107a.8.8,0,0,0,.59,0,.89.89,0,0,0,.42-.37Z"/></g><g id="Layer1_26_MEMBER_2_FILL" data-name="Layer1 26 MEMBER 2 FILL"><path class="cls-13" d="M195.78,109.45a.74.74,0,0,0,.52-.29.78.78,0,0,0,.17-.54l-46.95,5a.73.73,0,0,0,.27.48.7.7,0,0,0,.55.17Z"/></g></g></svg>