<svg id="Layer_1" data-name="Layer 1" xmlns="http://www.w3.org/2000/svg" xmlns:xlink="http://www.w3.org/1999/xlink" viewBox="0 0 254 136"><defs><style>.cls-1,.cls-3,.cls-4{fill:none;}.cls-2{clip-path:url(#clip-path);}.cls-3,.cls-4{stroke:#262041;stroke-linecap:round;stroke-linejoin:round;}.cls-3{stroke-width:0.77px;}.cls-4{stroke-width:0.38px;}.cls-5{fill:#4b4272;}.cls-6{fill:#f37b22;}.cls-7{fill:#ea3b3f;}.cls-8{fill:#262041;}.cls-9{fill:#32cc77;}.cls-10{fill:#186f93;}.cls-11{fill:#27a8e0;}.cls-12{fill:#e0f0f7;}</style><clipPath id="clip-path"><rect class="cls-1" width="254" height="136"/></clipPath></defs><g class="cls-2"><path id="Layer1_10_MEMBER_0_1_STROKES" data-name="Layer1 10 MEMBER 0 1 STROKES" class="cls-3" d="M178.35,85.6q-5.08,14.52,9.35,20.12m-120.47,2.2a7.27,7.27,0,1,1-14.53,0,7.27,7.27,0,1,1,14.53,0Z"/><path id="Layer1_10_MEMBER_0_MEMBER_0_1_STROKES" data-name="Layer1 10 MEMBER 0 MEMBER 0 1 STROKES" class="cls-3" d="M217.37,88.6l.95-.53m2.26,6.06.95-.52M209.28,80.49l.51-.93m13.77,32.05,1.07,0m-1.09-6.43,1.09,0M186.19,74.3V73.21m6.37,1.07,0-1.07m11.15,4.07.52-.92m-29.15.92-.54-.92m-5,4.12-.51-.92M158.21,94.15l-.92-.54m4.13-5-.91-.53m-5.26,23.58H154.2m1.05-6.43-1.07,0m63.2,23,.92.55m-32.11,13.75,0,1.09m6.41-1.09,0,1.09m11.15-4.05.55.94m-29.16-.94-.52,1m-13.16-12.28-.91.51m-2.3-6.06-.88.54m12.22,13.14-.51.93m51.56-14.61.92.54m-12.26,13.12.53,1"/><path id="Layer1_10_MEMBER_0_MEMBER_0_2_STROKES" data-name="Layer1 10 MEMBER 0 MEMBER 0 2 STROKES" class="cls-4" d="M155.25,105.22l22.16,0-19.2-11.09m0,28.61,19.3-11.11H155.25m33.35-6.41h-1l-.52.86.73-.42a.13.13,0,0,0,.07,0l.73-.4.82-.49-1.16-.65-.67,1.14h-1.4v1.36l.88-.5-.38.69,0,.06,2.75,1.61-1.62-2.78m.46-1.58,1.14-2-3.23-5.61,0,6.43Zm-2.07,1.14v-2.33l-5.51-3.19,3.18,5.52Zm5.07,0-.67-1.14-1.17.65.83.49h2.35v-2.31l-2,1.17-1.19-2,3.18-5.53,0-22.28m-4,31h.75a.1.1,0,0,0,.05,0,.08.08,0,0,0,.08,0h.77l.72.4.06,0a.05.05,0,0,0,0,0l.73.42-.52-.88m12.47-28L192.58,96.56l0,6.37,5.54-3.2,11.14-19.24M185,109.64l-2-1.18-5.49,3.19h6.39l1.14-2,.67-1.17-.67-1.18-2,1.17-5.59-3.22h6.45l1.18,2.05,1.15-.69v1.07l.44-.78,0,0m5.91.73,0-1-.84-.46.38.73,0,.08.38.65.52.89.68-1.18-1.16-.71,0-1.34H195l3.17-5.51L217.37,88.6m-24.79,19,0,.78a.17.17,0,0,0,0,.1.17.17,0,0,1,0,.05l0,.9.54-.94.67,1.15,2-1.16-2-1.17,1.19-2.05h6.43l19.18-11.11m-28,15.28-.34.59a.08.08,0,0,1,0,.06,0,0,0,0,0,0,0l-.42.69.82-.48Zm0-1h-3.18l2.78,1.6m0-3.21-2.74,1.61,0-3.26M185,109.64l1.13.65,0-1-.44-.79.48-.8,0,.69a.2.2,0,0,1,0,.1h3.23l1.61-2.8m-4.86,4.63.9.54-.38-.73a.15.15,0,0,1-.06,0l-.48-.8,0-.75v-.05m2.32,3.17h-.92l.67,1.19,1.13-.67-.88-.52-.65-.38,0,0a.11.11,0,0,0-.06,0l-.69-.38.52.8-1.4,0V114l2.07-1.2,1.16,2,1.15-2-1.18-.7.88-.52-.79,0-.08,0s0,0,0,0Zm2.75,0-.69,1.18,2,1.15v-2.35l-1.32,0-1,0,.74-.4-1.59-2.77,0,3.17m1.86,0,.5-.88-.69.4a.15.15,0,0,0-.06,0m-3.19,0,1.6-2.77-2.79,1.6m-2.73,1.59h2.29l0-1.36m6.41,0v1.34h2.35l-1.16-2Zm28,12.45-19.28-11.13-6.39,0,3.23,5.56,19.22,11.08m6.16-23.07-22.14,0-5.59,3.22,5.51,3.17,22.24,0M175.1,77.28l11.07,19.2,0-22.18M161.42,88.6l19.26,11.12L169.55,80.48m16.64,62.11,0-22.12L175.1,139.63m28.61,0-11.13-19.28v22.24m-23-6.15,11.13-19.24-19.26,11.11m31.16-8-3.16-5.49-3.25,5.61,0-6.45-5.51,3.18,3.22-5.55m25.36,24.77-11.1-19.21L192.58,114v6.35"/><path id="Layer1_10_MEMBER_0_MEMBER_1_1_STROKES" data-name="Layer1 10 MEMBER 0 MEMBER 1 1 STROKES" class="cls-3" d="M91,86.58l.78-.75m-5.32-3.77.79-.76m11.17,32.91,1,.29m-1-11.8,1-.25m-2.71-5.93,1-.27m-39-21.61-.27-1m18,2.72.27-1m-6.45-.63.27-1m-18,2.7-.28-1.06M42.7,82.06,42,81.32M30.76,114.19l-1,.31m1-11.76-1-.27m2.7-5.93-1-.27m6.77-9.67-.74-.75m59.32,34.56,1,.29M86.47,134.89l.77.76m-28.4,6.66-.27,1m11.74-1,.27,1m5.91-2.7.27,1M32.43,120.39l-1,.29M42.7,134.89l-.75.74m10.71,5-.27,1M38.16,130.37l-.72.75M91,130.35l.76.79"/><path id="Layer1_10_MEMBER_0_MEMBER_1_2_STROKES" data-name="Layer1 10 MEMBER 0 MEMBER 1 2 STROKES" class="cls-4" d="M30.76,114.19l21.4-5.72-21.4-5.73m33.8,2.41-.92-.25-.67.69.73-.19,0,0a.11.11,0,0,0,.08,0l.75-.21,1-.25-1-.94-1,.94-1.3-.35-.35,1.3,1-.26-.59.57-.06.06,2.28,2.25-.87-3.11m-1.39-.81.59-2.23-4.57-4.57L60,103.94Zm.59-2.23L64.6,104l1.64-1.64-1.66-6.16Zm2.62,2.58,1.28-.35-.59-2.23,4.53-4.54,5.76-21.45m-11,28.57.71.71.94.24-.37-1.3,2.3-.61,1.64-6.16L86.45,82.06M64.56,105.15l.8.23h.06a.05.05,0,0,0,0,0l.8.21.57.61.06.06.54.53-.23-1,1.32.37.61-2.28,6.19-1.66L91,86.58m-52.83,0L53.9,102.3,60,103.94l.62,2.26,1.33-.35-.26,1,.59-.59M61,107.54l-.34-1.34-2.26.61,1.66,1.66.94-.93.73-.73-.21.78v.06l3.08.82.82-3.09M61,109.45l-1-1-1.66,1.67,2.27.61.35-1.3.25-.9-.27-1m-2.6,2.6-4.48,4.49L60.08,113l.59-2.24,1.27.34-.29-1-.63-.65m6.41-2.64.72.75.37-1.34,2.25.59,4.55-4.53,21.41-5.76m-29.3,10.29.21.77a.1.1,0,0,0,0,.07v.06l.22.86.27-1,.94.91,1.68-1.66,6.14,1.65,21.48-5.76m-30.51,5.87-.19.69v.06l0,0-.21.77.67-.67Zm1.21-.1-1,1,.35,1.28,2.27-.59Zm-7.82.08.23-.86s0,0,0,0m.13,2.45-.17-.73v-.05l0-.08-.17-.69m.38,1.55.67.65,2.28-2.28-3.12.85m3.06,2.46-.9.25,1,1,.93-.94-1-.27-.75-.19s0,0,0,0h0l-.77-.21.71.67-1.34.37.61,2.29L64.6,113l1.66,1.66.59-2.24-1.32-.36.71-.73-.77.23H65.4a0,0,0,0,1,0,0ZM60.08,113l2.22-.59-.36-1.31,1,.27-.55-.59-.06,0m6.16,0-1.26.36-.37,1.32,2.24.6Zm-1-.61-.57.57,0,0-.61.59,1-.23Zm.23-.8-3.09-.85,2.25,2.26m0-4.51-2.23,2.25,3.06-.82m-2.26,3.9-.8-3.08-.85,3.1m-11.59-3.1,6.24-1.66-4.5-4.51L32.43,96.54m66,17.67-21.5-5.75-6.16,1.68,4.56,4.53,21.43,5.74M91,130.35,75.31,114.67,69.09,113l1.64,6.14,15.74,15.74M58.8,74.64l5.78,21.52,5.77-21.5M42.7,82.06,58.36,97.75,52.64,76.33m5.76,33.81-6.24-1.67m18.15,33.84-5.73-21.4-5.74,21.4m11.89-23.16,5.76,21.49m-23.83,0,5.76-21.47L42.7,134.89m28-15.74-4.47-4.5-1.68,6.26-1.67-6.22-4.49,4.48L60.08,113M38.16,130.37l15.76-15.74-21.49,5.76"/><path id="Layer1_10_MEMBER_0_MEMBER_2_1_STROKES" data-name="Layer1 10 MEMBER 0 MEMBER 2 1 STROKES" class="cls-3" d="M181,43.58c0,.28,0,.57,0,.86a15.35,15.35,0,0,1-12.93,15.07"/><g id="Layer1_10_MEMBER_0_MEMBER_3_FILL" data-name="Layer1 10 MEMBER 0 MEMBER 3 FILL"><path class="cls-5" d="M108.53,108.46A42.33,42.33,0,0,0,95.65,77.4,42.31,42.31,0,0,0,64.6,64.53,42.32,42.32,0,0,0,33.54,77.4a42.37,42.37,0,0,0-12.88,31.06,42.36,42.36,0,0,0,12.88,31.05A42.45,42.45,0,0,0,53.29,151a45.16,45.16,0,0,0,11.31,1.38h.05a42.33,42.33,0,0,0,31-12.88,42.32,42.32,0,0,0,12.88-31M93.78,79.33a39.66,39.66,0,0,1,12.07,29.13A39.68,39.68,0,0,1,93.78,137.6a39.68,39.68,0,0,1-29.13,12.07h0A42.35,42.35,0,0,1,54,148.37,39.75,39.75,0,0,1,35.51,137.6a39.68,39.68,0,0,1-12.07-29.14A39.66,39.66,0,0,1,35.51,79.33a41.78,41.78,0,0,1,8.77-6.81,37.42,37.42,0,0,1,9.09-3.81,42.07,42.07,0,0,1,11.26-1.47A40.29,40.29,0,0,1,83,71.41,41.92,41.92,0,0,1,93.78,79.33Z"/><path class="cls-6" d="M105.85,108.46A39.66,39.66,0,0,0,93.78,79.33,41.92,41.92,0,0,0,83,71.41a40.29,40.29,0,0,0-18.33-4.17,42.07,42.07,0,0,0-11.26,1.47,37.42,37.42,0,0,0-9.09,3.81,41.78,41.78,0,0,0-8.77,6.81,39.66,39.66,0,0,0-12.07,29.13A39.68,39.68,0,0,0,35.51,137.6,39.75,39.75,0,0,0,54,148.37a42.35,42.35,0,0,0,10.63,1.3h0A39.68,39.68,0,0,0,93.78,137.6a39.68,39.68,0,0,0,12.07-29.14M92.31,80.8a37.74,37.74,0,0,1,11.49,27.71,37.74,37.74,0,0,1-11.49,27.72A37.78,37.78,0,0,1,64.65,147.7H64.6a41,41,0,0,1-10.1-1.22,38,38,0,0,1-17.62-10.25,37.76,37.76,0,0,1-11.47-27.72A37.76,37.76,0,0,1,36.88,80.8a39.87,39.87,0,0,1,8.42-6.52,36.23,36.23,0,0,1,8.62-3.6A40.8,40.8,0,0,1,64.6,69.31a38.25,38.25,0,0,1,17.44,4A39.83,39.83,0,0,1,92.31,80.8Z"/><path class="cls-7" d="M64.65,143.53h-.07a36,36,0,0,1-9-1.09l-1.09,4a41,41,0,0,0,10.1,1.22h.05v-4.17M55.09,74.8l-1.17-4.12a36.23,36.23,0,0,0-8.62,3.6L47.38,78A32,32,0,0,1,55.09,74.8Z"/><path class="cls-8" d="M39.83,83.8A35.52,35.52,0,0,1,47.38,78L45.3,74.28a39.87,39.87,0,0,0-8.42,6.52,37.76,37.76,0,0,0-11.47,27.71,37.76,37.76,0,0,0,11.47,27.72A38,38,0,0,0,54.5,146.48l1.09-4a33.79,33.79,0,0,1-15.76-9.16,35,35,0,0,1,0-49.48m64,24.71A37.74,37.74,0,0,0,92.31,80.8,39.83,39.83,0,0,0,82,73.28l-1.9,3.83A35.14,35.14,0,0,1,89.3,83.8a35,35,0,0,1,0,49.48,33.64,33.64,0,0,1-24.65,10.25v4.17a37.78,37.78,0,0,0,27.66-11.47A37.74,37.74,0,0,0,103.8,108.51Z"/><path class="cls-9" d="M64.6,69.31a40.8,40.8,0,0,0-10.68,1.37l1.17,4.12a35.83,35.83,0,0,1,9.49-1.23,34.19,34.19,0,0,1,15.56,3.54L82,73.28A38.25,38.25,0,0,0,64.6,69.31Z"/></g><g id="Layer1_10_MEMBER_0_MEMBER_4_FILL" data-name="Layer1 10 MEMBER 0 MEMBER 4 FILL"><path class="cls-5" d="M233.33,108.46A43.94,43.94,0,0,0,189.4,64.53a44,44,0,0,0-43.93,43.93,44,44,0,0,0,43.93,43.93,44,44,0,0,0,43.93-43.93M218.59,79.33a39.7,39.7,0,0,1,12.07,29.13,41.21,41.21,0,0,1-41.22,41.21,41.21,41.21,0,0,1-41.19-41.21,41.24,41.24,0,0,1,41.19-41.22A39.68,39.68,0,0,1,218.59,79.33Z"/><path class="cls-6" d="M230.66,108.46a41.24,41.24,0,0,0-41.22-41.22,41.24,41.24,0,0,0-41.19,41.22,41.21,41.21,0,0,0,41.19,41.21,41.21,41.21,0,0,0,41.22-41.21M217.12,80.8a37.74,37.74,0,0,1,11.49,27.71A39.2,39.2,0,0,1,189.4,147.7a39.16,39.16,0,0,1-39.18-39.19,39.2,39.2,0,0,1,39.18-39.2A37.74,37.74,0,0,1,217.12,80.8Z"/><path class="cls-8" d="M228.61,108.51a39.23,39.23,0,0,0-39.21-39.2,39.2,39.2,0,0,0-39.18,39.2A39.16,39.16,0,0,0,189.4,147.7a39.2,39.2,0,0,0,39.21-39.19M214.11,83.8a35,35,0,0,1,0,49.48,35,35,0,0,1-59.7-24.73,35,35,0,0,1,59.7-24.75Z"/></g><g id="Layer1_10_MEMBER_0_MEMBER_5_FILL" data-name="Layer1 10 MEMBER 0 MEMBER 5 FILL"><path class="cls-5" d="M65.07,104a4.06,4.06,0,0,0-.51,0,4.62,4.62,0,0,0-3.27,7.9l.25.25a5,5,0,0,0,.66.48L67,116.07a8,8,0,0,0,3.15-2,7.87,7.87,0,0,0,1-9.85L65.07,104m-.51,0a4.06,4.06,0,0,1,.51,0l6.08.29a7.19,7.19,0,0,0-1-1.26,7.86,7.86,0,1,0-5.56,13.42,8.26,8.26,0,0,0,2.41-.34l-4.77-3.52a5,5,0,0,1-.66-.48l-.25-.25a4.63,4.63,0,0,1,3.27-7.9Z"/></g><path id="Layer1_10_MEMBER_0_MEMBER_5_1_STROKES" data-name="Layer1 10 MEMBER 0 MEMBER 5 1 STROKES" class="cls-3" d="M67,116.07l-4.77-3.52a5,5,0,0,1-.66-.48l-.25-.25a4.63,4.63,0,0,1,3.27-7.9,4.06,4.06,0,0,1,.51,0l6.08.29,18.46,1M58.53,120.89l11.36-2.68L67,116.07m22.64,10-30.79-1"/><path id="Layer1_10_MEMBER_0_MEMBER_6_1_STROKES" data-name="Layer1 10 MEMBER 0 MEMBER 6 1 STROKES" class="cls-3" d="M180.22,43.55c0,.24,0,.49,0,.76a13.72,13.72,0,0,1-11.59,13.52"/><g id="Layer1_10_MEMBER_0_MEMBER_7_FILL" data-name="Layer1 10 MEMBER 0 MEMBER 7 FILL"><path class="cls-5" d="M182.33,105a7.68,7.68,0,0,0-.82,3.56A7.84,7.84,0,1,0,183.8,103,8.37,8.37,0,0,0,182.33,105Z"/></g><path id="Layer1_10_MEMBER_0_MEMBER_8_1_STROKES" data-name="Layer1 10 MEMBER 0 MEMBER 8 1 STROKES" class="cls-3" d="M91,86.58l.78-.75m-5.32-3.77.79-.76m11.17,32.91,1,.29m-1-11.8,1-.25m-2.71-5.93,1-.27m-39-21.61-.27-1m18,2.72.27-1m-6.45-.63.27-1m-18,2.7-.28-1.06M42.7,82.06,42,81.32M30.76,114.19l-1,.31m1-11.76-1-.27m2.7-5.93-1-.27m6.77-9.67-.74-.75m59.32,34.56,1,.29M86.47,134.89l.77.76m-28.4,6.66-.27,1m11.74-1,.27,1m5.91-2.7.27,1M32.43,120.39l-1,.29M42.7,134.89l-.75.74m10.71,5-.27,1M38.16,130.37l-.72.75M91,130.35l.76.79"/><path id="Layer1_10_MEMBER_0_MEMBER_8_2_STROKES" data-name="Layer1 10 MEMBER 0 MEMBER 8 2 STROKES" class="cls-4" d="M30.76,114.19l21.4-5.72-21.4-5.73m33.8,2.41-.92-.25-.67.69.73-.19,0,0a.11.11,0,0,0,.08,0l.75-.21,1-.25-1-.94-1,.94-1.3-.35-.35,1.3,1-.26-.59.57-.06.06,2.28,2.25-.87-3.11m-1.39-.81.59-2.23-4.57-4.57L60,103.94Zm.59-2.23L64.6,104l1.64-1.64-1.66-6.16Zm2.62,2.58,1.28-.35-.59-2.23,4.53-4.54,5.76-21.45m-11,28.57.71.71.94.24-.37-1.3,2.3-.61,1.64-6.16L86.45,82.06M64.56,105.15l.8.23h.06a.05.05,0,0,0,0,0l.8.21.57.61.06.06.54.53-.23-1,1.32.37.61-2.28,6.19-1.66L91,86.58m-52.83,0L53.9,102.3,60,103.94l.62,2.26,1.33-.35-.26,1,.59-.59M61,107.54l-.34-1.34-2.26.61,1.66,1.66.94-.93.73-.73-.21.78v.06l3.08.82.82-3.09M61,109.45l-1-1-1.66,1.67,2.27.61.35-1.3.25-.9-.27-1m-2.6,2.6-4.48,4.49L60.08,113l.59-2.24,1.27.34-.29-1-.63-.65m6.41-2.64.72.75.37-1.34,2.25.59,4.55-4.53,21.41-5.76m-29.3,10.29.21.77a.1.1,0,0,0,0,.07v.06l.22.86.27-1,.94.91,1.68-1.66,6.14,1.65,21.48-5.76m-30.51,5.87-.19.69v.06l0,0-.21.77.67-.67Zm1.21-.1-1,1,.35,1.28,2.27-.59Zm-7.82.08.23-.86s0,0,0,0m.13,2.45-.17-.73v-.05l0-.08-.17-.69m.38,1.55.67.65,2.28-2.28-3.12.85m3.06,2.46-.9.25,1,1,.93-.94-1-.27-.75-.19s0,0,0,0h0l-.77-.21.71.67-1.34.37.61,2.29L64.6,113l1.66,1.66.59-2.24-1.32-.36.71-.73-.77.23H65.4a0,0,0,0,1,0,0ZM60.08,113l2.22-.59-.36-1.31,1,.27-.55-.59-.06,0m6.16,0-1.26.36-.37,1.32,2.24.6Zm-1-.61-.57.57,0,0-.61.59,1-.23Zm-.63-3.9-2.23,2.25,3.06-.82m0,1.67-3.09-.85,2.25,2.26m-1.45.82-.8-3.08-.85,3.1m-11.59-3.1,6.24-1.66-4.5-4.51L32.43,96.54m66,17.67-21.5-5.75-6.16,1.68,4.56,4.53,21.43,5.74M91,130.35,75.31,114.67,69.09,113l1.64,6.14,15.74,15.74M58.8,74.64l5.78,21.52,5.77-21.5M42.7,82.06,58.36,97.75,52.64,76.33m5.76,33.81-6.24-1.67m18.15,33.84-5.73-21.4-5.74,21.4m11.89-23.16,5.76,21.49m-23.83,0,5.76-21.47L42.7,134.89m28-15.74-4.47-4.5-1.68,6.26-1.67-6.22-4.49,4.48L60.08,113M38.16,130.37l15.76-15.74-21.49,5.76"/><g id="Layer1_10_MEMBER_1_FILL" data-name="Layer1 10 MEMBER 1 FILL"><path class="cls-8" d="M59.49,111.46l-.75.55,4.19,4.69-.17.48,2.73,1.24-3.88,2.81a4.23,4.23,0,0,0-.34-.4,2.8,2.8,0,0,0-2.05-.84,2.84,2.84,0,0,0-2.06.84,1.64,1.64,0,0,0-.21.25l-1.15-.86-.5.55,1.11,2.91a2.83,2.83,0,0,0,.75,1.26,2.78,2.78,0,0,0,2.06.86,2.94,2.94,0,0,0,2.91-2.91,3.17,3.17,0,0,0-.19-1.07h7V121l.26,0a1.26,1.26,0,0,0,.92-.38,1.16,1.16,0,0,0,.36-.69l0-2.16a1.35,1.35,0,0,0-.09-.5,2.35,2.35,0,0,0-1.24-1.38l-2.3-1-3.08-2.56v-1.53H65.3a.53.53,0,0,0,.23.13.51.51,0,0,0,.65-.36.64.64,0,0,0,0-.27l.48-.82L67,109a.78.78,0,0,0,.23-.13.62.62,0,0,0,.15-.39.46.46,0,0,0-.15-.36A.51.51,0,0,0,67,108l-.75-1.26a.69.69,0,0,0,0-.35.45.45,0,0,0-.23-.3.53.53,0,0,0-.42-.06.35.35,0,0,0-.25.17H63.83a.52.52,0,0,0-.27-.15.5.5,0,0,0-.32,0l-.08,0a.49.49,0,0,0-.25.31.43.43,0,0,0,0,.35L62.22,108a.48.48,0,0,0-.28.13.66.66,0,0,0-.16.36.57.57,0,0,0,.16.41.73.73,0,0,0,.28.13l.73,1.24-3.46,1.21m5.81-3.94.12.09a1.22,1.22,0,0,1,0,1.69l-.12.11a1.24,1.24,0,0,1-1.49,0l-.08-.07a1.22,1.22,0,0,1,0-1.69l.1-.07a1.17,1.17,0,0,1,1.47,0m-6.69,14.76a.78.78,0,0,1,.61-.26.85.85,0,0,1,.63.26l.1.12a1,1,0,0,1,.09.17.87.87,0,0,1,.06.32.89.89,0,0,1-.25.64.92.92,0,0,1-.63.24.84.84,0,0,1-.61-.24.88.88,0,0,1-.23-.39.66.66,0,0,1,0-.25.84.84,0,0,1,.19-.53l.08-.08M163.72,47.56l-.82.31-1.65-4.5-1.7.63.23.67a.7.7,0,0,1,.25-.05.62.62,0,0,1,.46.19.66.66,0,0,1,.21.48.58.58,0,0,1-.21.45.83.83,0,0,1-.25.18l.25.67a.59.59,0,0,1,.23,0,.62.62,0,0,1,.46.19.66.66,0,0,1,.21.48.58.58,0,0,1-.18.42l0,0a.76.76,0,0,1-.23.17l.25.65-.33.11V50l.27.74,2.48-.91,2.51-.92-.29-.75-1.66.61-.46-1.24m14.19-2.66h5.87a2.91,2.91,0,0,1,2.51,2.8v1.24q-.42,8.27-12.7,9.94l.46,2.81q15.16-2.11,15.39-12.75V46.85A15.08,15.08,0,0,1,182.88,41h-7V39.85h-1.93v1l-.07.07-.06.06a2.74,2.74,0,0,0-.77,2V43l-9.21,2,.66,1.79,9.28-2,.1.09,0,.06v1h2V44.9h2m-4-2.06a.79.79,0,0,1,0-.17l0,.34v-.17M197,39.13q.9-4.31-.73-5.07l-2.68,9.7c1.1.05,1.79.78,2.07,2.2l1.47,6.82a4.19,4.19,0,0,0,1.78,2.76l.52-.31a3.42,3.42,0,0,1-1.17-2.58l-.75-12.59-.51-.93M82.15,31.46l2.43,3a2.44,2.44,0,0,0,2.28.84h0l1.53-.13a.62.62,0,0,0,0,.19,2.37,2.37,0,0,0,.72,1.74,2.41,2.41,0,0,0,1.74.73,2.6,2.6,0,0,0,.56-.06,2.53,2.53,0,0,0,.07.38l5.63,18.94L100.8,56l-.25-.83-1.82.54L93,36.55a2.24,2.24,0,0,0,.29-.87c0-.11,0-.22,0-.32a2.68,2.68,0,0,0-.06-.59,3.34,3.34,0,0,0-.23-.58l-.17-.26.19.26h0l.42.54a4.4,4.4,0,0,0,2.09-.9h0l3.33-2.43,0,0H97l-2.12,1.55,0,0a3.26,3.26,0,0,1-1.82.69.42.42,0,0,0-.3.15l-.14-.15a2.36,2.36,0,0,0-.57-.44,2.47,2.47,0,0,0-1.17-.29,2.37,2.37,0,0,0-1.74.73,2.26,2.26,0,0,0-.34.44.49.49,0,0,0-.29-.06l-1.7.15a1.49,1.49,0,0,1-1.3-.42l-1.59-1.95L82,31.13a.48.48,0,0,0,.13.33m8.17,3a.94.94,0,0,1,.53-.15,1,1,0,0,1,.39.08,1.11,1.11,0,0,1,.38.24l.08.08,0,.06a1,1,0,0,1,.21.63v.15a1,1,0,0,1-.32.61,1.08,1.08,0,0,1-.52.31l-.25,0a1,1,0,0,1-.76-.33,1,1,0,0,1-.33-.76,1.06,1.06,0,0,1,.33-.77A1.13,1.13,0,0,1,90.32,34.42Z"/><path class="cls-5" d="M59.22,122a.78.78,0,0,0-.61.26l-.08.08a.84.84,0,0,0-.19.53.66.66,0,0,0,0,.25.88.88,0,0,0,.23.39.84.84,0,0,0,.61.24.92.92,0,0,0,.63-.24.89.89,0,0,0,.25-.64.87.87,0,0,0-.06-.32,1,1,0,0,0-.09-.17l-.1-.12a.85.85,0,0,0-.63-.26m6.2-14.41-.12-.09a1.17,1.17,0,0,0-1.47,0l-.1.07a1.22,1.22,0,0,0,0,1.69l.08.07a1.24,1.24,0,0,0,1.49,0l.12-.11a1.22,1.22,0,0,0,0-1.69m36-51.79-.59.18-3.69,1.09-1.51.44.57,1.95L97.7,59l1.86-.56,1.81-.53.6-.18-.58-2m88.68,51.7a1.07,1.07,0,0,0-.72-.25,1.1,1.1,0,0,0-.75.27.35.35,0,0,0-.09.07,1.2,1.2,0,0,0,0,1.69l.07.07a1.24,1.24,0,0,0,1.49,0l.12-.11a1.22,1.22,0,0,0,0-1.69.94.94,0,0,0-.12-.09m-28.68-60.3a.66.66,0,0,0-.21-.48.62.62,0,0,0-.46-.19.59.59,0,0,0-.23,0,.92.92,0,0,0-.25.15.68.68,0,0,0-.19.48.64.64,0,0,0,.15.42l0,0a.66.66,0,0,0,.48.21,1,1,0,0,0,.23,0,.76.76,0,0,0,.23-.17l0,0a.58.58,0,0,0,.18-.42m-.69-1.93a.66.66,0,0,0-.21-.48.62.62,0,0,0-.46-.19.7.7,0,0,0-.25.05.71.71,0,0,0-.23.14.68.68,0,0,0-.19.48.6.6,0,0,0,.19.45A.67.67,0,0,0,160,46a.65.65,0,0,0,.21,0,.83.83,0,0,0,.25-.18.58.58,0,0,0,.21-.45M173,43V43a2.74,2.74,0,0,1,.77-2l-10.62,2.3-.21-.58-1.72.65,1.65,4.5.82-.31.46,1.24,1.66-.61-.9-1.09-.15.06h0l-.15.06-.14-.39L163.82,45,173,43m4.84,1.91,0,0h-2V46h2V45l.05-.06m.06-3.94-.06-.06-.05,0v-1h-2V41h2.07m18.32-6.94-3.06-.73L192,37.64a3.27,3.27,0,0,1-2.83,2.42l-6.28.94a15.08,15.08,0,0,0,6.56,5.85c2.29-.35,3.66-1.39,4.13-3.09l2.68-9.7m-103.2.13h0a3.34,3.34,0,0,1,.23.58,2.68,2.68,0,0,1,.06.59c0,.1,0,.21,0,.32a2.24,2.24,0,0,1-.29.87l5.72,19.16,1.82-.54L95.16,37.06a1.77,1.77,0,0,0-.37-.69l-1.3-1.64-.42-.54h0m-2.2.08a.94.94,0,0,0-.53.15,1.13,1.13,0,0,0-.23.17,1.06,1.06,0,0,0-.33.77,1,1,0,0,0,.33.76,1,1,0,0,0,.76.33l.25,0a1.08,1.08,0,0,0,.52-.31,1,1,0,0,0,.32-.61v-.15a1,1,0,0,0-.21-.63l0-.06-.08-.08a1.11,1.11,0,0,0-.38-.24,1,1,0,0,0-.39-.08M75.17,28.8,82,31.13l1.87.65,1.21.41a7.78,7.78,0,0,0,3.75.26l5.5-1.09h14v-.69c-.73-1.17-2.06-1.76-4-1.77H85.15L76,27.61a.84.84,0,0,0-.82.71Z"/><path class="cls-10" d="M99.56,58.48,97.7,59l2.1,7.09,1.53-1.64-1.77-6m71.89,12.83-3.22,1.44,17.71,31.71L171.45,71.31M161.14,50.77l-.63.23-2.3,2.3-48,7.08q-4.1.84-5.82,2.63L67,102.64l-.71-.69-3,3.22V106a.5.5,0,0,1,.32,0,.52.52,0,0,1,.27.15H65.3a.35.35,0,0,1,.25-.17.53.53,0,0,1,.42.06.45.45,0,0,1,.23.3.69.69,0,0,1,0,.35L67,108a.51.51,0,0,1,.25.15.46.46,0,0,1,.15.36.62.62,0,0,1-.15.39A.78.78,0,0,1,67,109l-.29.48,37.1,15.15q7.08,2.43,14.38-3.5a44.26,44.26,0,0,0,7.42-8.11l38-46.42,1.75-.65,2.55,6.16a3.53,3.53,0,0,1-.21-1.23,3.38,3.38,0,0,1,1-2.48,3.34,3.34,0,0,1,.78-.59l.62-.27a3.23,3.23,0,0,1,1.09-.17,3.4,3.4,0,0,1,2.5,1,3.14,3.14,0,0,1,.42.48l-3.1-5-2,.72-5.4-14.74-2.48.91m-11.42,5.7,10.31.75.5,1.26a.73.73,0,0,1,.3-.06,1.15,1.15,0,0,1,.84.23v0a1.05,1.05,0,0,1,.42.77,1.13,1.13,0,0,1-.24.84L122.74,108q-2.34,2.82-4.4,5h0l-1.27,1.28-.26.25v0l-1.65,1.49,0,0q-6,5.18-10.06,4.32l-.13,0L70.81,110a1.24,1.24,0,0,1-.69-.58,1,1,0,0,1-.07-.86.81.81,0,0,1,.11-.27A7.14,7.14,0,0,1,67.67,105v-1.7l32.94-34.48,13.77,46.36,1.3-1.17.3-.31L102.16,67.22l1.49-1.57L105.24,64a9.15,9.15,0,0,1,5.18-2.43Z"/><path class="cls-11" d="M171.22,67.36a3.23,3.23,0,0,0-1.09.17l-.62.27a3.34,3.34,0,0,0-.78.59,3.38,3.38,0,0,0-1,2.48,3.53,3.53,0,0,0,.21,1.23,2.52,2.52,0,0,0,.15.34,3.07,3.07,0,0,0,.17.31l3.22-1.44,14.49,33.15,1.34,4.47a.44.44,0,0,0,0,.1,2,2,0,0,0,.54.94.53.53,0,0,0,.13.13,2.07,2.07,0,0,0,1.38.48,2.23,2.23,0,0,0,1.3-.4,2,2,0,0,1,.19-.21,2,2,0,0,0,.63-1.51,2.26,2.26,0,0,0-.17-.88.34.34,0,0,1-.06-.12l-16.58-37.6-.19-.42a.05.05,0,0,1,0,0l-.1-.17a2.12,2.12,0,0,0-.21-.36,3.14,3.14,0,0,0-.42-.48,3.4,3.4,0,0,0-2.5-1m18.13,39.91a1.07,1.07,0,0,1,.72.25.94.94,0,0,1,.12.09,1.22,1.22,0,0,1,0,1.69l-.12.11a1.24,1.24,0,0,1-1.49,0l-.07-.07a1.2,1.2,0,0,1,0-1.69.35.35,0,0,1,.09-.07,1.1,1.1,0,0,1,.75-.27m-31.14-54,2.3-2.3L110,59.21a14,14,0,0,0-6.45,2.85l-.76.82L101.37,58l-1.81.53,1.77,6L99.8,66.13,66.24,102l.71.69L104.41,63q1.73-1.78,5.82-2.63l48-7.08m3.46,5.37v0a1.15,1.15,0,0,0-.84-.23.73.73,0,0,0-.3.06l.42,1.07-39.11,47.74c-1.53,1.86-3,3.51-4.35,4.93L103.65,65.65l-1.49,1.57L116,113.73l-.3.31-1.3,1.17q-5.47,4.73-9.13,4.07L71.14,108.86a8,8,0,0,1-1-.6.81.81,0,0,0-.11.27,1,1,0,0,0,.07.86,1.24,1.24,0,0,0,.69.58l34.12,10.42.13,0q4.06.86,10.06-4.32l0,0,1.65-1.49v0l.26-.25,1.27-1.28h0q2.05-2.19,4.4-5l39.11-47.74a1.13,1.13,0,0,0,.24-.84,1.05,1.05,0,0,0-.42-.77m4.46-9.73-2.51.92L169,64.6l2-.72.48-.2Z"/></g><g id="Layer1_10_MEMBER_2_FILL" data-name="Layer1 10 MEMBER 2 FILL"><path class="cls-8" d="M124.27,109.62a10.16,10.16,0,1,0,3,7.19,9.81,9.81,0,0,0-3-7.19M111.93,113l1.38,1a4.51,4.51,0,0,1,0,5.62l-1.38,1a1.61,1.61,0,0,1-2,0,7.85,7.85,0,0,1-.92-3.77,7.73,7.73,0,0,1,1-3.84,1.48,1.48,0,0,1,2,0m2.35,0-1-1.38a1.61,1.61,0,0,1,0-2,8.17,8.17,0,0,1,7.61,0,1.5,1.5,0,0,1,0,1.95l-1,1.38a4.51,4.51,0,0,1-5.62,0m6.64,1,1.38-1a1.59,1.59,0,0,1,2,0,7.7,7.7,0,0,1,.92,3.76,7.87,7.87,0,0,1-1,3.85,1.5,1.5,0,0,1-2,0l-1.38-1a4.48,4.48,0,0,1,0-5.62m0,10a8.25,8.25,0,0,1-7.61,0,1.48,1.48,0,0,1,0-2l1-1.38a4.51,4.51,0,0,1,5.62,0l1,1.38A1.61,1.61,0,0,1,120.92,124Z"/></g><path id="Layer1_10_MEMBER_2_MEMBER_0_1_STROKES" data-name="Layer1 10 MEMBER 2 MEMBER 0 1 STROKES" class="cls-3" d="M89.61,105.2l27.79,1.44a4.73,4.73,0,0,1,.65,0,9.73,9.73,0,0,1,6.22,2.94,10.18,10.18,0,0,1-7.2,17.37h-.45l-27-.88"/><g id="Layer1_10_MEMBER_2_MEMBER_1_FILL" data-name="Layer1 10 MEMBER 2 MEMBER 1 FILL"><path class="cls-5" d="M118.93,116.74a1.9,1.9,0,0,0-3.79,0v19.49h3.79V116.74Z"/><path class="cls-12" d="M117.44,113.73l-.27,0h-.12a3,3,0,0,0-2.16.9,3,3,0,0,0-.86,1.73c0,.14,0,.28,0,.42a3,3,0,0,0,.88,2.16l.25.23v-2.41a1.9,1.9,0,0,1,3.79,0v2.44l.29-.26a3,3,0,0,0,.88-2.16,3,3,0,0,0-.88-2.15,3.07,3.07,0,0,0-1.61-.86A.47.47,0,0,1,117.44,113.73Z"/></g></g></svg>