<?xml version="1.0" encoding="UTF-8"?><svg id="Layer_1" xmlns="http://www.w3.org/2000/svg" xmlns:xlink="http://www.w3.org/1999/xlink" viewBox="0 0 254 136"><defs><style>.cls-1{fill:none;}.cls-2{fill:#a3c3ce;}.cls-3{fill:#e0f0f7;}.cls-4{fill:#1f8bb9;}.cls-5{fill:#27a8e0;}.cls-6{fill:#2c765c;}.cls-7{fill:#32cc77;}.cls-8{fill:#4b4272;}.cls-9,.cls-10{fill:#262041;}.cls-11{fill:rgba(24,111,147,.5);}.cls-12{clip-path:url(#clippath-1);}.cls-10{opacity:.5;}</style><clipPath id="clippath-1"><rect class="cls-1" y="-23.94" width="254" height="159.94"/></clipPath></defs><g class="cls-12"><g><path class="cls-9" d="M172.6,49.12l-.72-.32c.73-1.65,1.45-3.3,2.17-4.95,.2-.45,.4-.91,.59-1.36,2.15-4.9,4.18-9.54,3.82-14.79-.13-1.93-.4-3.9-2.13-5.03-1.55-1.01-3.73-.94-5.64-.88h-.49s-.02-.77-.02-.77h.49c2.04-.08,4.34-.15,6.1,.99,2.03,1.32,2.34,3.6,2.48,5.63,.37,5.44-1.7,10.16-3.88,15.15-.2,.45-.4,.9-.59,1.36-.72,1.65-1.44,3.31-2.17,4.95Z"/><path class="cls-9" d="M174.18,53.05l-.77-.11c3.8-26.26,2.07-31.27-.36-32.76l.41-.67c1.92,1.18,5.12,3.15,.72,33.54Z"/><path class="cls-9" d="M173.02,20.16c-1.75-1.25-5.36-1.08-5.39-1.08l-.04-.78c.16,0,3.92-.18,5.89,1.22l-.46,.64Z"/><rect class="cls-9" x="161.83" y="29.7" width="5.06" height="8.85" transform="translate(-2.92 48.15) rotate(-16.52)"/><path class="cls-9" d="M170.95,22.96l-4.01-2.42-6.41,7.54c-.47,.65-.32,1.56,.33,2.03l1.75,1.25c.65,.47,1.56,.32,2.03-.33l6.31-8.07Z"/><g><g><path class="cls-9" d="M59.81,145.4c-.22,0-.39-.18-.39-.39v-1.11c0-.22,.18-.39,.39-.39s.39,.18,.39,.39v1.11c0,.22-.18,.39-.39,.39Zm-6.62,0c-.22,0-.39-.18-.39-.39v-1.11c0-.22,.18-.39,.39-.39s.39,.18,.39,.39v1.11c0,.22-.18,.39-.39,.39Zm18.63-3.21c-.14,0-.27-.07-.34-.2l-.54-.96c-.11-.19-.04-.43,.15-.53,.19-.11,.43-.04,.53,.15l.54,.96c.11,.19,.04,.43-.15,.53-.06,.03-.13,.05-.19,.05Zm-30.67-.04c-.07,0-.13-.02-.2-.05-.19-.11-.25-.35-.14-.53l.54-.94c.11-.19,.35-.25,.53-.14,.19,.11,.25,.35,.14,.53l-.54,.94c-.07,.13-.2,.2-.34,.2Zm36.41-3.28c-.14,0-.27-.07-.34-.2l-.54-.96c-.11-.19-.04-.43,.15-.53,.19-.11,.43-.04,.53,.15l.54,.96c.11,.19,.04,.43-.15,.53-.06,.03-.13,.05-.19,.05Zm-42.14-.02c-.07,0-.13-.02-.2-.05-.19-.11-.25-.35-.14-.53l.54-.94c.11-.19,.35-.25,.53-.14,.19,.11,.25,.35,.14,.53l-.54,.94c-.07,.13-.2,.2-.34,.2Zm50.99-8.8c-.07,0-.13-.02-.2-.05l-.96-.56c-.19-.11-.25-.35-.14-.54,.11-.19,.35-.25,.54-.14l.96,.56c.19,.11,.25,.35,.14,.54-.07,.12-.2,.19-.34,.19Zm-59.82-.02c-.13,0-.27-.07-.34-.19-.11-.19-.05-.43,.14-.54l.96-.56c.19-.11,.43-.05,.54,.14,.11,.19,.05,.43-.14,.54l-.96,.56c-.06,.04-.13,.05-.2,.05Zm63.12-5.71c-.07,0-.14-.02-.2-.05l-.96-.56c-.19-.11-.25-.35-.14-.54,.11-.19,.35-.25,.54-.14l.96,.56c.19,.11,.25,.35,.14,.54-.07,.12-.2,.19-.34,.19Zm-66.44-.02c-.13,0-.27-.07-.34-.19-.11-.19-.05-.43,.14-.54l.96-.56c.19-.11,.43-.05,.54,.14,.11,.19,.05,.43-.14,.54l-.96,.56c-.06,.04-.13,.05-.2,.05Zm69.67-12.03h-1.11c-.22,0-.39-.18-.39-.39s.18-.39,.39-.39h1.11c.22,0,.39,.18,.39,.39s-.18,.39-.39,.39Zm-71.78,0h-1.11c-.22,0-.39-.18-.39-.39s.18-.39,.39-.39h1.11c.22,0,.39,.18,.39,.39s-.18,.39-.39,.39Zm71.78-6.62h-1.11c-.22,0-.39-.18-.39-.39s.18-.39,.39-.39h1.11c.22,0,.39,.18,.39,.39s-.18,.39-.39,.39Zm-71.78,0h-1.11c-.22,0-.39-.18-.39-.39s.18-.39,.39-.39h1.11c.22,0,.39,.18,.39,.39s-.18,.39-.39,.39Zm3.08-11.5c-.07,0-.13-.02-.2-.05l-.94-.54c-.19-.11-.25-.35-.14-.53,.11-.19,.35-.25,.53-.14l.94,.54c.19,.11,.25,.35,.14,.53-.07,.13-.2,.2-.34,.2Zm64.5-.02c-.14,0-.27-.07-.34-.2-.11-.19-.04-.43,.15-.53l.96-.54c.19-.11,.43-.04,.53,.15,.11,.19,.04,.43-.15,.53l-.96,.54c-.06,.03-.13,.05-.19,.05Zm-61.2-5.71c-.07,0-.13-.02-.2-.05l-.94-.54c-.19-.11-.25-.35-.14-.53,.11-.19,.35-.25,.53-.14l.94,.54c.19,.11,.25,.35,.14,.53-.07,.13-.2,.2-.34,.2Zm57.88-.02c-.14,0-.27-.07-.34-.2-.11-.19-.04-.43,.15-.53l.96-.54c.19-.11,.43-.04,.53,.15,.11,.19,.04,.43-.15,.53l-.96,.54c-.06,.03-.13,.05-.19,.05Zm-49.48-8.38c-.13,0-.27-.07-.34-.19l-.56-.96c-.11-.19-.05-.43,.14-.54,.19-.11,.43-.05,.54,.14l.56,.96c.11,.19,.05,.43-.14,.54-.06,.04-.13,.05-.2,.05Zm41.08-.02c-.07,0-.13-.02-.2-.05-.19-.11-.25-.35-.14-.54l.56-.96c.11-.19,.35-.25,.54-.14,.19,.11,.25,.35,.14,.54l-.56,.96c-.07,.12-.2,.19-.34,.19Zm-5.73-3.3c-.07,0-.13-.02-.2-.05-.19-.11-.25-.35-.14-.54l.56-.96c.11-.19,.35-.25,.54-.14,.19,.11,.25,.35,.14,.54l-.56,.96c-.07,.12-.2,.19-.34,.19Zm-29.62,0c-.13,0-.27-.07-.34-.19l-.56-.96c-.11-.19-.05-.43,.14-.54,.19-.11,.43-.05,.54,.14l.56,.96c.11,.19,.05,.43-.14,.54-.06,.04-.13,.05-.2,.05Zm18.14-3.08c-.22,0-.39-.18-.39-.39v-1.11c0-.22,.18-.39,.39-.39s.39,.18,.39,.39v1.11c0,.22-.18,.39-.39,.39Zm-6.62,0c-.22,0-.39-.18-.39-.39v-1.11c0-.22,.18-.39,.39-.39s.39,.18,.39,.39v1.11c0,.22-.18,.39-.39,.39Z"/><path class="cls-9" d="M59.81,144.1c-.11,0-.2-.09-.2-.2v-22.86l-3.14-5.43-3.09,5.34v22.95c0,.11-.09,.2-.2,.2s-.2-.09-.2-.2v-22.27l-11.13,19.28c-.05,.09-.17,.13-.27,.07-.09-.05-.13-.17-.07-.27l11.47-19.87v-6.23l-5.37,3.11-11.49,19.89c-.05,.09-.17,.13-.27,.07-.09-.05-.13-.17-.07-.27l11.15-19.3-19.3,11.13c-.09,.05-.21,.02-.27-.07-.05-.09-.02-.21,.07-.27l19.89-11.47,3.09-5.36h-6.28l-19.82,11.44c-.09,.05-.21,.02-.27-.07-.05-.09-.02-.21,.07-.27l19.23-11.1H21.16c-.11,0-.2-.09-.2-.2s.09-.2,.2-.2h22.88l5.43-3.12-5.36-3.1H21.16c-.11,0-.2-.09-.2-.2s.09-.2,.2-.2h22.27l-19.28-11.13c-.09-.05-.13-.17-.07-.27,.05-.09,.17-.13,.27-.07l19.87,11.47h6.19l-3.14-5.41-19.82-11.46c-.09-.05-.13-.17-.07-.27,.05-.09,.17-.13,.27-.07l19.23,11.12-11.1-19.25c-.05-.09-.02-.21,.07-.27,.09-.05,.21-.02,.27,.07l11.44,19.83,5.45,3.14v-6.19l-11.49-19.91c-.05-.09-.02-.21,.07-.27,.09-.05,.21-.02,.27,.07l11.15,19.32v-22.31c0-.11,.09-.2,.2-.2s.2,.09,.2,.2v22.98l3.11,5.37,3.12-5.43v-22.93c0-.11,.09-.2,.2-.2s.2,.09,.2,.2v22.25l11.12-19.27c.05-.09,.17-.13,.27-.07,.09,.05,.13,.17,.07,.27l-11.46,19.85v6.21l5.41-3.12,11.44-19.83c.05-.09,.17-.13,.27-.07,.09,.05,.13,.17,.07,.27l-11.1,19.25,19.23-11.12c.09-.05,.21-.02,.27,.07,.05,.09,.02,.21-.07,.27l-19.82,11.46-3.14,5.43h6.19l19.89-11.49c.09-.06,.21-.02,.27,.07,.05,.09,.02,.21-.07,.27l-19.3,11.15h22.29c.11,0,.2,.09,.2,.2s-.09,.2-.2,.2h-22.97l-5.37,3.11,5.43,3.12h22.91c.11,0,.2,.09,.2,.2s-.09,.2-.2,.2h-22.23l19.25,11.12c.09,.05,.13,.17,.07,.27-.05,.09-.17,.13-.27,.07l-19.83-11.46h-6.27l3.09,5.36,19.91,11.49c.09,.05,.13,.17,.07,.27-.05,.09-.17,.13-.27,.07l-19.32-11.15,11.15,19.3c.05,.09,.02,.21-.07,.27-.09,.05-.21,.02-.27-.07l-11.49-19.89-5.34-3.09v6.3l11.44,19.8c.05,.09,.02,.21-.07,.27s-.21,.02-.27-.07l-11.1-19.21v22.18c0,.11-.09,.2-.2,.2Zm-3.11-28.87l2.92,5.04v-5.85l-1.84-1.06-1.08,1.87Zm-3.31-.83v5.78l2.86-4.95-1.06-1.85-1.8,1.03Zm-2.51-2.31l-2.86,4.96,4.98-2.88v-2.09h-2.12Zm9.13,2.1l4.95,2.86-2.86-4.96h-2.09v2.1Zm-4.48-1.01l.95,1.66,.97-1.68-.95-.55-.97,.57Zm2.45-.16l1.64,.95v-1.88h-1.11l-.53,.93Zm-4.59-.93v1.86l1.6-.91-.55-.95h-1.05Zm1.51,0l.44,.75,.77-.45-.53-.3h-.68Zm1.99,.3l.75,.44,.42-.73h-.66l-.51,.3Zm-.51-.3l.12,.07,.12-.07h-.24Zm5.95-.39h5.81l-5.04-2.9-1.84,1.06,1.06,1.84Zm-2.31,0h1.86l-.95-1.64-.91,.53v1.11Zm-1.27,0h.88v-.88l-.55,.31-.33,.57Zm-.67,0h.22l.1-.18-.09,.05s-.04,.02-.06,.03c-.02,.01-.04,.02-.06,.03l-.11,.06Zm-1.38,0h.6l.59-.34-1.19-2.05v2.4Zm-1.01,0h.62v-2.39l-1.19,2.07,.57,.32Zm-1.01,0h.22l-.09-.05s-.05-.03-.07-.05l-.18-.1,.12,.2Zm-1.28,0h.82l-.34-.59-.48-.28v.86Zm-2.29,0h1.9v-1.09l-.95-.55-.95,1.64Zm-6.28,0h5.83l1.06-1.84-1.85-1.06-5.04,2.9Zm9.33-.87l.62,.35,1.19-2.06-2.09,1.21,.29,.5Zm2.88-1.72l1.19,2.06,.56-.32,.31-.55-2.06-1.19Zm2.49,1.23l-.07,.12,.17-.1v-.19l-.05,.09s-.03,.05-.05,.07Zm-6.13,.04l.09,.05-.02-.04s-.02-.04-.03-.06c-.01-.02-.02-.03-.03-.05v-.02s-.01,.12-.01,.12Zm-1.14-.66l.75,.44v-.57l-.33-.58-.42,.72Zm7.76-.22v.64l.72-.42-.42-.72-.29,.5Zm-6.62-.02l.29,.5,2.09-1.21h-2.38v.71Zm3.84-.71l2.07,1.19,.32-.57v-.62h-2.39Zm-6.98-.2l1.66,.95,.53-.91-.57-.98-1.62,.95Zm10.28,.04l.53,.91,1.64-.95-1.62-.93-.55,.97Zm-7.64,0l.1,.18v-.37l-.1,.18Zm7.12-.04v.15l.07-.11-.07-.11v.08Zm-2.79-.2h2.4v-.55l-.36-.63-2.04,1.18Zm-3.83,0h2.37l-2.06-1.19-.31,.55v.64Zm7.89-1.07l1.82,1.04,4.98-2.88h-5.74l-1.06,1.84Zm-16.39-1.84l4.97,2.88,1.82-1.06-1.04-1.82h-5.74Zm15.12,2.25l.29,.5,.44-.77-.73-.42v.7Zm-7.8-.29l.46,.79,.33-.58v-.65l-.79,.44Zm1.69-.58l2.06,1.19-1.2-2.08-.51,.31-.34,.59Zm4.31-.87l-1.19,2.06,2.04-1.18-.33-.57-.53-.31Zm-3.12-.21l1.2,2.07v-2.38h-.68l-.52,.3Zm1.59-.3v2.37l1.19-2.06-.53-.31h-.66Zm3.32,1.11l.93,.53,.95-1.64h-1.88v1.11Zm-8.93-1.11l.93,1.62,.98-.56v-1.07h-1.92Zm8.45,1.42l.08,.15v-.24l-.19-.11,.05,.08s.04,.05,.05,.08c0,.01,0,.02,0,.04Zm-6.15-.12v.18l.07-.12s0,0,0,0c0-.02,.02-.03,.03-.04l.07-.12-.17,.1Zm5.64-.76l.58,.34v-.88h-.88l.3,.53Zm-5.64-.53v.84l.57-.33,.3-.51h-.86Zm4.89,.1l.09,.05-.08-.15h-.16l.12,.07h0s.03,.02,.04,.03Zm-3.58-.1l-.06,.11,.03-.02s.06-.04,.09-.05c0,0,.02,0,.03,0l.05-.03h-.14Zm5.31-.39h2.1l2.91-5.04-5.02,2.9v2.14Zm-1.5,0h1.11v-1.91l-1.66,.96,.55,.95Zm-1.06,0h.6l-.44-.75-.73,.42,.57,.33Zm-.96,0h.18l-.18-.1-.18,.1h.18Zm-1.56,0h.59l.58-.33-.73-.42-.44,.75Zm-1.54,0h1.09l.55-.95-1.64-.93v1.88Zm-2.53,0h2.14v-2.1l-5.05-2.91,2.91,5.02Zm4.71-1.09l.93,.53,.93-.53-.93-1.61-.93,1.61Zm-2.18-1.24l1.84,1.05,1.04-1.8-2.88-4.98v5.74Zm3.33-.76l1.04,1.8,1.86-1.08v-5.76l-2.9,5.03Z"/><path class="cls-2" d="M56.9,97.99c-5.86,0-10.61,4.75-10.61,10.61s4.75,10.61,10.61,10.61,10.61-4.75,10.61-10.61-4.75-10.61-10.61-10.61Zm0,18.07c-4.12,0-7.46-3.34-7.46-7.46s3.34-7.46,7.46-7.46,7.46,3.34,7.46,7.46-3.34,7.46-7.46,7.46Z"/></g><g><path class="cls-9" d="M198.12,145.82c-.2,0-.37-.15-.39-.35l-.12-1.11c-.02-.21,.13-.41,.35-.43,.22-.02,.41,.13,.43,.35l.12,1.11c.02,.21-.13,.41-.35,.43-.01,0-.03,0-.04,0Zm6.62-.73c-.2,0-.37-.15-.39-.35l-.12-1.11c-.02-.21,.13-.41,.35-.43,.21-.03,.41,.13,.43,.35l.12,1.11c.02,.21-.13,.41-.35,.43-.01,0-.03,0-.04,0Zm-19.02-1.2c-.05,0-.11-.01-.16-.03-.2-.09-.29-.32-.2-.52l.44-1c.09-.2,.32-.29,.52-.2,.2,.09,.29,.32,.2,.52l-.44,1c-.06,.15-.21,.23-.36,.23Zm-6.09-2.67c-.05,0-.11-.01-.16-.03-.2-.09-.29-.32-.2-.52l.44-1c.09-.2,.32-.29,.52-.2,.2,.09,.29,.32,.2,.52l-.44,1c-.06,.15-.21,.23-.36,.23Zm36.77-.66c-.12,0-.24-.06-.32-.16l-.65-.9c-.13-.18-.09-.42,.09-.55,.18-.13,.42-.09,.55,.09l.65,.9c.13,.18,.09,.42-.09,.55-.07,.05-.15,.07-.23,.07Zm5.37-3.95c-.12,0-.24-.06-.32-.16l-.65-.9c-.13-.18-.09-.42,.09-.55,.18-.13,.42-.09,.55,.09l.65,.9c.13,.18,.09,.42-.09,.55-.07,.05-.15,.07-.23,.07Zm-51.94-3.23c-.12,0-.24-.05-.31-.16-.13-.17-.09-.42,.08-.55l.9-.67c.17-.13,.42-.09,.55,.08,.13,.17,.09,.42-.08,.55l-.9,.67c-.07,.05-.15,.08-.23,.08Zm-3.95-5.37c-.12,0-.24-.05-.31-.16-.13-.17-.09-.42,.08-.55l.9-.67c.17-.13,.42-.09,.55,.08,.13,.17,.09,.42-.08,.55l-.9,.67c-.07,.05-.15,.08-.23,.08Zm63.77-1.19c-.05,0-.11-.01-.16-.03l-1.02-.46c-.2-.09-.29-.32-.2-.52,.09-.2,.32-.29,.52-.2l1.02,.46c.2,.09,.29,.32,.2,.52-.07,.15-.21,.23-.36,.23Zm2.67-6.09c-.05,0-.11-.01-.16-.03l-1.02-.46c-.2-.09-.29-.32-.2-.52,.09-.2,.32-.29,.52-.2l1.02,.46c.2,.09,.29,.32,.2,.52-.07,.15-.21,.23-.36,.23Zm-70.98-4.39c-.2,0-.37-.15-.39-.35-.02-.21,.13-.41,.35-.43l1.11-.12c.22-.02,.41,.13,.43,.35,.02,.21-.13,.41-.35,.43l-1.11,.12s-.03,0-.04,0Zm-.73-6.62c-.2,0-.37-.15-.39-.35-.02-.21,.13-.41,.35-.43l1.11-.12c.21-.02,.41,.13,.43,.35s-.13,.41-.35,.43l-1.11,.12s-.03,0-.04,0Zm72.5-1.26c-.2,0-.37-.15-.39-.35-.02-.21,.13-.41,.35-.43l1.11-.12c.21-.02,.41,.13,.43,.35s-.13,.41-.35,.43l-1.11,.12s-.03,0-.04,0Zm-.73-6.62c-.2,0-.37-.15-.39-.35-.02-.21,.13-.41,.35-.43l1.11-.12c.22-.02,.41,.13,.43,.35,.02,.21-.13,.41-.35,.43l-1.11,.12s-.03,0-.04,0Zm-68.85-4.08c-.05,0-.11-.01-.16-.03l-1-.44c-.2-.09-.29-.32-.2-.52,.09-.2,.32-.29,.52-.2l1,.44c.2,.09,.29,.32,.2,.52-.06,.15-.21,.23-.36,.23Zm2.67-6.09c-.05,0-.11-.01-.16-.03l-1-.44c-.2-.09-.29-.32-.2-.52,.09-.2,.32-.29,.52-.2l1,.44c.2,.09,.29,.32,.2,.52-.06,.15-.21,.23-.36,.23Zm61.83-1.01c-.12,0-.24-.06-.32-.16-.13-.18-.09-.42,.09-.55l.9-.65c.18-.13,.42-.09,.55,.09,.13,.18,.09,.42-.09,.55l-.9,.65c-.07,.05-.15,.07-.23,.07Zm-3.95-5.37c-.12,0-.24-.06-.32-.16-.13-.18-.09-.42,.09-.55l.9-.65c.18-.13,.42-.09,.55,.09,.13,.18,.09,.42-.09,.55l-.9,.65c-.07,.05-.15,.07-.23,.07Zm-50.4-2.94c-.12,0-.24-.05-.31-.16l-.67-.9c-.13-.17-.09-.42,.08-.55s.42-.09,.55,.08l.67,.9c.13,.17,.09,.42-.08,.55-.07,.05-.15,.08-.23,.08Zm5.37-3.95c-.12,0-.24-.05-.31-.16l-.67-.9c-.13-.17-.09-.42,.08-.55,.17-.13,.42-.09,.55,.08l.67,.9c.13,.17,.09,.42-.08,.55-.07,.05-.15,.08-.23,.08Zm35.71-.58c-.05,0-.11-.01-.16-.03-.2-.09-.29-.32-.2-.52l.46-1.02c.09-.2,.32-.29,.52-.2,.2,.09,.29,.32,.2,.52l-.46,1.02c-.07,.15-.21,.23-.36,.23Zm-6.09-2.67c-.05,0-.11-.01-.16-.03-.2-.09-.29-.32-.2-.52l.46-1.02c.09-.2,.32-.29,.52-.2,.2,.09,.29,.32,.2,.52l-.46,1.02c-.07,.15-.21,.23-.36,.23Zm-18.44-1.1c-.2,0-.37-.15-.39-.35l-.12-1.11c-.02-.21,.13-.41,.35-.43,.21-.02,.41,.13,.43,.35l.12,1.11c.02,.21-.13,.41-.35,.43-.01,0-.03,0-.04,0Zm6.62-.73c-.2,0-.37-.15-.39-.35l-.12-1.11c-.02-.21,.13-.41,.35-.43,.22-.02,.41,.13,.43,.35l.12,1.11c.02,.21-.13,.41-.35,.43-.01,0-.03,0-.04,0Z"/><path class="cls-9" d="M198,144.52c-.1,0-.18-.07-.19-.17l-2.45-22.27-9.02,20.51c-.04,.1-.16,.14-.26,.1-.1-.04-.14-.16-.1-.26l9.29-21.13-.68-6.23-5.04,3.7-9.31,21.15c-.04,.1-.16,.14-.26,.1-.1-.04-.14-.16-.1-.26l9.03-20.53-18.08,13.26c-.09,.06-.21,.05-.27-.04-.06-.09-.05-.21,.04-.27l18.63-13.66,2.5-5.7-6.29,.69-18.56,13.61c-.09,.06-.21,.05-.27-.04-.06-.09-.05-.21,.04-.27l18.01-13.21-22.2,2.44c-.11,0-.2-.07-.22-.17-.01-.11,.07-.2,.17-.22l22.88-2.51,5.09-3.72-5.7-2.52-22.95,2.52c-.11,0-.2-.07-.22-.17s.07-.2,.17-.22l22.27-2.45-20.51-9.02c-.1-.04-.14-.16-.1-.26,.04-.1,.16-.14,.26-.1l21.13,9.29,6.19-.68-3.74-5.07-21.08-9.28c-.1-.04-.14-.16-.1-.26,.04-.1,.16-.14,.26-.1l20.45,9.01-13.22-18.03c-.06-.09-.05-.21,.04-.27,.09-.06,.21-.05,.27,.04l13.62,18.58,5.79,2.54-.68-6.2-13.68-18.65c-.06-.09-.05-.21,.04-.27,.09-.06,.21-.05,.27,.04l13.28,18.1-2.45-22.31c-.01-.11,.07-.2,.17-.22,.1-.01,.2,.07,.22,.17l2.52,22.98,3.7,5.03,2.53-5.77-2.52-22.93c-.01-.11,.07-.2,.17-.22,.1-.01,.2,.07,.22,.17l2.44,22.26,9-20.49c.04-.1,.16-.14,.26-.1,.1,.04,.14,.16,.1,.26l-9.28,21.11,.68,6.21,5.07-3.72,9.26-21.09c.04-.1,.16-.14,.26-.1,.1,.04,.14,.16,.1,.26l-8.99,20.47,18.01-13.23c.09-.06,.21-.05,.27,.04,.06,.09,.05,.21-.04,.27l-18.56,13.63-2.55,5.78,6.19-.68,18.63-13.68c.09-.06,.21-.05,.27,.04,.06,.09,.05,.21-.04,.27l-18.08,13.28,22.29-2.45c.1-.01,.2,.07,.22,.17s-.07,.2-.17,.22l-22.97,2.52-5.03,3.7,5.77,2.53,22.91-2.52c.1,0,.2,.07,.22,.17,.01,.11-.07,.2-.17,.22l-22.24,2.44,20.47,9c.1,.04,.14,.16,.1,.26s-.16,.14-.26,.1l-21.09-9.28-6.27,.69,3.68,5.02,21.17,9.31c.1,.04,.14,.16,.1,.26-.04,.1-.16,.14-.26,.1l-20.55-9.03,13.28,18.08c.06,.09,.05,.21-.04,.27-.09,.06-.21,.05-.27-.04l-13.68-18.63-5.68-2.5,.69,6.3,13.61,18.54c.06,.09,.05,.21-.04,.27-.09,.06-.21,.05-.27-.04l-13.21-18,2.44,22.18c.01,.11-.07,.2-.17,.22-.11,0-.2-.07-.22-.17l-2.51-22.86-3.74-5.09-2.5,5.68,2.52,22.95c.01,.11-.07,.2-.17,.22,0,0-.01,0-.02,0Zm-3.05-29.73l.64,5.78,2.32-5.27-1.27-1.74-1.69,1.22Zm3.4,.47l3.47,4.72-.64-5.86-1.95-.86-.87,1.99Zm-6.17-2.5l-2.32,5.28,4.67-3.43-.23-2.09-2.12,.23Zm9.36,1.1l5.27,2.32-3.41-4.65-2.09,.23,.23,2.11Zm-4.59-.52l1.13,1.56,.78-1.79-1.01-.45-.91,.68Zm-2.26-.86l.2,1.86,1.51-1.09-.66-.89-1.05,.12Zm4.69,.43l1.75,.77-.21-1.88-1.11,.12-.43,.99Zm-8.58-3.33l-4.72,3.45,5.83-.64,.86-1.95-1.97-.86Zm5.4,2.74l.52,.71,.72-.54-.56-.24-.68,.07Zm2.02,.08l.8,.36,.34-.78-.66,.07-.48,.35Zm-5.09-1.8l-.77,1.75,1.9-.21-.12-1.09-1.01-.45Zm4.54,1.56l.13,.06,.12-.08h-.12s0,.01,0,.01c-.02,0-.04,0-.06,0h0s-.07,.02-.07,.02Zm-3.12-.93l.09,.86,.83-.09-.41-.55-.51-.22Zm1.23,.53l.14,.19,.23-.03-.1-.04s-.05-.02-.08-.04l-.2-.08Zm.55-.18l.6,.26,.62-.07-.26-2.4-.97,2.2Zm1.35-2.25l.26,2.4,.6-.07,.55-.41-1.42-1.93Zm1.8,2.13s-.03,.03-.05,.04l-.11,.08,.22-.02,.09-.19-.09,.07s-.04,.03-.06,.03Zm.78-.56l-.27,.61,.88-.1-.1-.88-.52,.38Zm-4.95,.24l.66,.28,.96-2.2-1.96,1.44,.34,.47Zm5.83-.88l.12,1.11,1.86-.2-1.13-1.54-.86,.63Zm1.17-.87l1.26,1.72,5.82-.64-5.36-2.35-1.72,1.26Zm-4.31-.29l1.42,1.93,.53-.38,.25-.58-2.2-.96Zm-3.5,1.68l.11,.05-.03-.05s-.03-.04-.03-.06c-.01-.02-.03-.03-.04-.05v-.02s0,.13,0,.13Zm-1.22-.54l.8,.36-.06-.57-.4-.55-.34,.77Zm1.12-.36l.34,.46,1.96-1.44-2.38,.26,.08,.71Zm6.23,.18l-.06,.13,.16-.12-.02-.19-.04,.1s-.02,.05-.04,.08Zm-9.47-.75l1.77,.77,.43-.97-.68-.92-1.52,1.13Zm9.87-.15l.07,.64,.67-.5-.5-.68-.24,.53Zm-2.87-.42l2.2,.97,.26-.6-.07-.62-2.4,.26Zm-4.35,.32l.13,.18-.02-.22s0,0,0,0c0-.02,0-.04,0-.06h0s-.01-.1-.01-.1l-.09,.2Zm-8.35-2.26l5.29,2.34,1.7-1.26-1.25-1.71-5.75,.63Zm15.99,1.42l.64,.86,1.54-1.13-1.73-.75-.45,1.03Zm-7.24-.09l.07,.64,2.38-.26-2.2-.96-.25,.58Zm-1.21-.18l.54,.74,.27-.62-.07-.65-.74,.53Zm7.92,.26s0,.02,0,.03l.02,.15,.06-.13-.08-.11v.03s0,.02,0,.03Zm-.89-1.27l-1.91,1.41,2.4-.26-.06-.55-.43-.59Zm-5.4,.25l2.19,.96-1.43-1.95-.48,.36-.28,.63Zm4.22-1.35l-.96,2.19,1.92-1.41-.39-.53-.57-.25Zm-3.14,.14l1.43,1.95-.26-2.38-.68,.07-.49,.36Zm1.56-.48l.26,2.38,.96-2.2-.57-.25-.66,.07Zm3.57,1.89l.35,.47,.36-.82-.78-.34,.08,.7Zm1.22-.56l1.93,.84,4.67-3.43-5.75,.63-.86,1.95Zm-10.4-.72l1.11,1.52,.92-.66-.12-1.07-1.92,.21Zm2.45,1.04l.02,.19,.06-.13s0,0,0,0c0,0,0,0,0,0h0s.02-.03,.02-.04l.06-.13-.16,.12Zm6.16-.55l.1,.14-.03-.24-.21-.09,.06,.08s.05,.05,.06,.09c0,0,0,.01,0,.02Zm-6.3-.75l.09,.85,.53-.39,.24-.55-.87,.1Zm6.74,.38l.99,.43,.77-1.75-1.88,.21,.12,1.11Zm-1.04-.47l.62,.28-.1-.88-.89,.1,.36,.5Zm-4.39-.06l-.05,.12,.03-.02s.04-.04,.06-.05c.02-.01,.03-.02,.05-.03l.05-.04-.14,.02Zm-7.36-4.67l3.47,4.7,2.14-.24-.23-2.11-5.38-2.36Zm5.79,2.54l.21,1.88,1.09-.12,.45-1.01-1.74-.75Zm5.16,1.84l.1,.04-.1-.14-.17,.02,.13,.06s0,0,0,0c.01,0,.03,.01,.04,.02Zm-3.05-.93l-.36,.8,.59-.06,.55-.4-.78-.34Zm1.2,.53l-.18,.13h.13s.04-.02,.05-.02c0,0,0,0,0,0l.18-.02-.2-.09Zm.37-.27l.61,.27,.61-.07-.52-.71-.69,.51Zm1.01-.74l.66,.89,1.11-.12-.21-1.92-1.56,1.15Zm1.92-1.42l.24,2.14,2.11-.23,2.36-5.36-4.7,3.45Zm-4.33,1.54l.99,.43,.87-.64-1.11-1.51-.75,1.71Zm-2.31-1l1.95,.84,.85-1.92-3.43-4.67,.63,5.75Zm3.25-1.12l1.24,1.69,1.74-1.28-.63-5.76-2.35,5.36Z"/></g><path class="cls-8" d="M78.15,128.99h0l-18.95-.47h0c-1.02,0-1.92-.37-2.66-1.11s-1.09-1.62-1.09-2.65,.37-1.92,1.09-2.66c.09-.09,.18-.17,.26-.24,.01-.02,.05-.04,.09-.07l3.98-3.1s.04-.03,.05-.04c.07-.05,.13-.09,.19-.14,.05-.05,.11-.1,.16-.16,.62-.61,.91-1.29,.91-2.12,0-.65-.17-1.21-.53-1.7-1.46,1.27-3.19,1.92-5.17,1.92-2.17,0-4.06-.78-5.6-2.33-1.54-1.54-2.33-3.43-2.33-5.6s.78-4.06,2.33-5.6c1.54-1.54,3.43-2.33,5.6-2.33h.2l.22,.02s.02,0,.04,0l21.23,.39c.22,0,.39,.18,.38,.4,0,.21-.18,.38-.39,.38h0l-18.04-.33c.71,.37,1.37,.86,1.97,1.46,1.53,1.54,2.31,3.43,2.31,5.6,0,2.11-.73,3.95-2.17,5.46,.49,.65,.74,1.4,.74,2.25,0,1.03-.38,1.92-1.12,2.65-.05,.07-.14,.16-.24,.24-.07,.06-.14,.11-.22,.16h-.01s-.02,.03-.04,.04l-3.99,3.11s-.04,.03-.06,.04c-.08,.07-.14,.13-.2,.19-.58,.59-.86,1.28-.86,2.11s.28,1.51,.86,2.09,1.29,.88,2.11,.88,1.51-.29,2.09-.88c.6-.59,.89-1.27,.89-2.09s-.29-1.52-.88-2.11c-.13-.13-.27-.24-.42-.35-.18-.12-.22-.37-.1-.54,.12-.18,.37-.22,.54-.1,.19,.13,.36,.28,.52,.44,.74,.74,1.11,1.63,1.11,2.67s-.38,1.92-1.12,2.65c-.14,.14-.28,.27-.43,.38l16.75,.42c.22,0,.39,.19,.38,.4,0,.21-.18,.38-.39,.38Zm-20.83-6.56s-.02,.02-.03,.03c0,0,.02-.01,.03-.03Zm-.69-21.07h-.16c-1.96,0-3.66,.71-5.05,2.1-1.39,1.39-2.1,3.09-2.1,5.05s.71,3.66,2.1,5.05c1.39,1.39,3.09,2.1,5.05,2.1s3.57-.67,4.93-1.98l.11-.11c1.38-1.39,2.08-3.09,2.08-5.05,0-1.96-.7-3.66-2.08-5.05-1.3-1.3-2.88-2-4.67-2.08-.02,0-.03,0-.05,0l-.17-.02Z"/><g id="Layer1_22_MEMBER_0_MEMBER_3_FILL"><path class="cls-9" d="M229.18,140.33c8.77-8.77,13.15-19.36,13.15-31.76,0-12.39-4.38-22.98-13.15-31.76-8.78-8.77-19.37-13.15-31.76-13.15s-23,4.38-31.76,13.15c-8.77,8.78-13.15,19.37-13.15,31.76,0,12.41,4.38,23,13.15,31.76,8.77,8.78,19.36,13.17,31.76,13.17,12.39,0,22.98-4.39,31.76-13.17m-31.76,10.14c-11.55,0-21.42-4.09-29.61-12.27-8.18-8.18-12.27-18.05-12.27-29.61s4.09-21.44,12.27-29.63c8.18-8.18,18.05-12.27,29.61-12.27s21.44,4.09,29.63,12.27c8.18,8.18,12.27,18.06,12.27,29.63s-4.09,21.42-12.27,29.61c-8.18,8.18-18.06,12.27-29.63,12.27Z"/><path class="cls-2" d="M167.81,138.19c8.18,8.18,18.05,12.27,29.61,12.27,11.57,0,21.44-4.09,29.63-12.27,8.18-8.18,12.27-18.05,12.27-29.61s-4.09-21.44-12.27-29.63c-8.18-8.18-18.06-12.27-29.63-12.27s-21.42,4.09-29.61,12.27c-8.18,8.18-12.27,18.06-12.27,29.63s4.09,21.42,12.27,29.61m29.63,11.17c-11.26,0-20.88-3.98-28.84-11.95-7.97-7.97-11.95-17.57-11.95-28.82s3.98-20.88,11.95-28.84c7.97-7.97,17.58-11.95,28.84-11.95,11.25,0,20.86,3.98,28.82,11.95,7.97,7.97,11.95,17.58,11.95,28.84,0,11.25-3.98,20.86-11.95,28.82-7.97,7.97-17.57,11.95-28.82,11.95Z"/><path class="cls-8" d="M168.6,137.41c7.97,7.97,17.58,11.95,28.84,11.95s20.86-3.98,28.82-11.95c7.97-7.97,11.95-17.57,11.95-28.82,0-11.26-3.98-20.88-11.95-28.84-7.97-7.97-17.57-11.95-28.82-11.95-11.26,0-20.88,3.98-28.84,11.95-7.97,7.97-11.95,17.58-11.95,28.84s3.98,20.86,11.95,28.82m25.48-65.69c1.1-.1,2.22-.15,3.36-.15s2.25,.05,3.34,.15c8.78,.7,16.39,4.26,22.82,10.69,7.23,7.23,10.84,15.95,10.84,26.18s-3.61,18.93-10.84,26.16c-7.23,7.23-15.95,10.84-26.16,10.84-10.23,0-18.95-3.61-26.18-10.84-7.23-7.23-10.84-15.95-10.84-26.16s3.61-18.95,10.84-26.18c6.42-6.42,14.02-9.98,22.82-10.69m8.69,36.73c-.04-1.42-.56-2.64-1.55-3.66-1.05-1.05-2.31-1.58-3.77-1.58s-2.74,.53-3.77,1.58c-1.01,1.01-1.54,2.23-1.58,3.66v.12s0,.07,0,.09c.02,1.44,.55,2.68,1.58,3.71,1.03,1.03,2.29,1.55,3.77,1.55s2.72-.52,3.77-1.55c1.01-1.03,1.53-2.27,1.55-3.71,0-.02,0-.05,0-.09v-.12Z"/></g><g id="Layer1_22_MEMBER_0_MEMBER_3_FILL-2"><path class="cls-9" d="M88.19,140.21c8.75-8.75,13.13-19.32,13.13-31.7,0-12.37-4.38-22.94-13.13-31.7-8.76-8.75-19.33-13.13-31.7-13.13s-22.95,4.38-31.7,13.13c-8.75,8.76-13.13,19.33-13.13,31.7,0,12.38,4.38,22.95,13.13,31.7,8.75,8.76,19.32,13.15,31.7,13.15,12.37,0,22.94-4.38,31.7-13.15m-31.7,10.12c-11.53,0-21.38-4.08-29.55-12.25-8.17-8.17-12.25-18.02-12.25-29.55s4.08-21.4,12.25-29.57c8.17-8.17,18.02-12.25,29.55-12.25s21.4,4.08,29.57,12.25c8.17,8.17,12.25,18.02,12.25,29.57s-4.08,21.38-12.25,29.55c-8.17,8.17-18.02,12.25-29.57,12.25Z"/><path class="cls-2" d="M26.94,138.08c8.17,8.17,18.02,12.25,29.55,12.25,11.55,0,21.4-4.08,29.57-12.25,8.17-8.17,12.25-18.02,12.25-29.55s-4.08-21.4-12.25-29.57c-8.17-8.17-18.02-12.25-29.57-12.25s-21.38,4.08-29.55,12.25c-8.17,8.17-12.25,18.02-12.25,29.57s4.08,21.38,12.25,29.55m29.57,11.15c-11.24,0-20.84-3.98-28.79-11.93-7.95-7.95-11.93-17.54-11.93-28.77s3.98-20.84,11.93-28.79c7.95-7.95,17.55-11.93,28.79-11.93,11.23,0,20.82,3.98,28.77,11.93,7.95,7.95,11.93,17.55,11.93,28.79,0,11.23-3.98,20.82-11.93,28.77-7.95,7.95-17.54,11.93-28.77,11.93Z"/><path class="cls-8" d="M27.73,137.3c7.95,7.95,17.55,11.93,28.79,11.93s20.82-3.98,28.77-11.93c7.95-7.95,11.93-17.54,11.93-28.77,0-11.24-3.98-20.84-11.93-28.79-7.95-7.95-17.54-11.93-28.77-11.93-11.24,0-20.84,3.98-28.79,11.93-7.95,7.95-11.93,17.55-11.93,28.79s3.98,20.82,11.93,28.77m25.43-65.57c1.1-.1,2.22-.15,3.36-.15s2.25,.05,3.34,.15c8.76,.7,16.35,4.25,22.77,10.67,7.21,7.21,10.82,15.92,10.82,26.13s-3.61,18.9-10.82,26.11c-7.21,7.21-15.91,10.82-26.11,10.82-10.21,0-18.92-3.61-26.13-10.82-7.21-7.21-10.82-15.91-10.82-26.11s3.61-18.92,10.82-26.13c6.4-6.4,14-9.96,22.77-10.67m10.6,36.62c-.05-1.93-.76-3.59-2.11-4.97-1.43-1.43-3.14-2.15-5.13-2.15s-3.72,.72-5.13,2.15c-1.38,1.38-2.09,3.03-2.15,4.97v.16c0,.05,0,.09,0,.12,.03,1.96,.74,3.64,2.15,5.05,1.4,1.4,3.11,2.11,5.13,2.11s3.7-.7,5.13-2.11c1.38-1.4,2.08-3.09,2.11-5.05,0-.03,0-.07,0-.12v-.16Z"/></g><g id="Layer1_22_MEMBER_1_MEMBER_1_FILL"><path class="cls-7" d="M110.47,116.07l-.67-2.08-50.43-6.87-1.1,1.84,52.2,7.11m-16.19-67.43c-.09-.05-.19-.07-.29-.04l-1.86,.59,21.63,69.46s.03-.02,.04-.02c.37-.12,.7-.34,1-.67v-.02l.88-1-.84-2.62,52.18-59.79-1.84-6.04-51.3,62.01-16.7-52.82-.72-2.29,66.45-13.88-.72-2.29-66.45,13.88-1.25-4.25c-.04-.1-.1-.18-.2-.22Z"/><path class="cls-6" d="M96.46,55.39l.72,2.29,66.45-13.88,2.56,8.11,.04,.33-51.4,62.09,.84,2.62,52.18-59.79,.36,1.32,.19,.69c.01,.05,.04,.11,.08,.18,.05,.07,.12,.11,.2,.14,.08,.03,.16,.03,.23,0l1.92-.61-6.72-21.34-1.88,.59c-.1,.04-.2-.03-.25,.06-.05,.1-.12,.05-.09,.16l.28,.88,.72,2.29-66.45,13.88m-6.46-5.4c-.05,.09-.06,.19-.02,.29l2.08,7.52-37.57,49.87c-.13,.21-.22,.44-.25,.7v.04c-.03,.17-.02,.35,.02,.53l-.02-.02c.05,.42,.23,.79,.55,1.12,.3,.33,.67,.52,1.12,.59h.02l55.58,7.58c.08,.07,.18,.13,.29,.2,.47,.3,.99,.41,1.57,.33,.14-.01,.28-.04,.41-.08l-21.63-69.46-1.9,.61c-.1,.04-.18,.1-.23,.2m19.81,64l.67,2.08-52.2-7.11,1.1-1.84,34.26-44.33,16.17,51.2Z"/></g><g id="Layer1_22_MEMBER_1_MEMBER_2_MEMBER_0_FILL"><path class="cls-9" d="M61.1,121.98v2.94c-.04,.46-.23,.85-.57,1.17-.37,.38-.81,.57-1.33,.57s-.97-.19-1.35-.57c-.35-.35-.54-.78-.55-1.27v-2.84c-.17,.1-.33,.23-.49,.39-.65,.67-.98,1.46-.98,2.39s.33,1.72,.98,2.37c.67,.67,1.46,1,2.39,1s1.72-.33,2.37-1c.67-.65,1-1.44,1-2.37s-.33-1.72-1-2.39c-.14-.14-.3-.27-.47-.39m-10.63-9.12c-.51,.01-.95,.2-1.31,.55l-.04,.02c-.37,.37-.55,.82-.55,1.35s.18,.99,.55,1.35c.29,.29,.62,.47,1,.55,.09,.01,.19,.02,.29,.02l5.64,.74c.16,.42,.41,.8,.76,1.16,.16,.16,.32,.29,.49,.41v-2.82c.01-.51,.2-.95,.55-1.31,.38-.37,.83-.55,1.35-.55,.07,0,.13,0,.2,.02,.44,.04,.82,.22,1.14,.53,.38,.38,.57,.83,.57,1.35v2.78c.17-.12,.33-.25,.47-.41,.67-.65,1-1.44,1-2.37s-.33-1.72-1-2.39c-.65-.65-1.44-.98-2.37-.98s-1.72,.33-2.39,.98c-.04,.04-.08,.08-.12,.14l-2.53-.33c-.09,.17-.2,.33-.33,.47l-1.98,2c.34-.38,.52-.82,.53-1.33v-.08c-.03-.5-.22-.92-.57-1.27s-.78-.54-1.27-.57h-.08Z"/><path class="cls-8" d="M59.2,114.33c-.52,0-.97,.18-1.35,.55-.35,.37-.54,.8-.55,1.31v8.63c.01,.5,.2,.92,.55,1.27,.38,.38,.83,.57,1.35,.57s.97-.19,1.33-.57c.34-.33,.53-.72,.57-1.17v-8.69c0-.52-.19-.97-.57-1.35-.31-.31-.69-.49-1.14-.53-.07-.01-.13-.02-.2-.02m-8.14-2.84l-1.9,1.92c.37-.35,.8-.54,1.31-.55h.08c.5,.03,.92,.22,1.27,.57s.54,.78,.57,1.27v.08c-.01,.51-.19,.95-.53,1.33l1.98-2c.13-.14,.24-.3,.33-.47,.13-.26,.2-.54,.2-.84,.01-.52-.17-.97-.55-1.35-.37-.37-.82-.55-1.37-.57-.52,0-.97,.19-1.35,.57-.01,.01-.03,.03-.04,.04Z"/></g><g id="Layer1_22_MEMBER_1_MEMBER_2_MEMBER_1_FILL"><path class="cls-9" d="M105.91,103.87c-3.28,1.89-5.4,4.66-6.38,8.3-.97,3.68-.5,7.16,1.39,10.44,1.89,3.28,4.66,5.4,8.3,6.36,3.64,.98,7.1,.52,10.38-1.37,3.28-1.89,5.41-4.67,6.4-8.32,.98-3.64,.52-7.1-1.37-10.38s-4.66-5.42-8.3-6.42c-3.67-.97-7.14-.5-10.42,1.39m-3.7,9.05c.68-2.56,2.06-4.56,4.13-6.01l2.04-1.19c2.3-1.03,4.71-1.21,7.22-.53,2.53,.69,4.53,2.06,5.99,4.11l1.16,2.04c1.06,2.31,1.25,4.72,.57,7.22-.67,2.52-2.02,4.52-4.07,5.99l-2.04,1.17c-2.31,1.07-4.73,1.27-7.26,.59-2.51-.68-4.5-2.05-5.99-4.11l-1.16-2.04c-1.07-2.3-1.27-4.71-.59-7.24Z"/><path class="cls-9" d="M106.34,106.91l.82,1.43c-1.67,1.25-2.79,2.92-3.37,4.99-.55,2.11-.4,4.12,.43,6.01l-1.43,.82,1.16,2.04,1.43-.84c1.24,1.67,2.9,2.78,4.99,3.33,2.09,.57,4.09,.44,5.99-.39l.84,1.43,2.04-1.17-.84-1.43c1.66-1.24,2.77-2.9,3.33-4.97,.56-2.09,.42-4.08-.41-5.97l1.43-.84-1.16-2.04-1.43,.84c-1.23-1.66-2.89-2.77-4.99-3.35-2.08-.56-4.06-.43-5.95,.39l-.84-1.47-2.04,1.19m4.15,2.47c1.28-.48,2.62-.55,4.03-.2,1.44,.38,2.59,1.11,3.47,2.19l-1.59,.92c-.63-.67-1.4-1.13-2.33-1.39-.95-.26-1.85-.25-2.7,.02l-.88-1.55m-2.04,1.17l.88,1.55c-.67,.61-1.12,1.4-1.37,2.37-.25,.91-.23,1.81,.04,2.7l-1.57,.92c-.51-1.33-.58-2.7-.22-4.11,.38-1.42,1.12-2.56,2.23-3.43m9.12,3.78l1.57-.92c.48,1.29,.54,2.65,.16,4.07-.38,1.42-1.1,2.56-2.17,3.43l-.88-1.57c.63-.63,1.08-1.4,1.37-2.33,.23-.91,.22-1.81-.04-2.68m-9.97,5.78l1.55-.94c.61,.68,1.39,1.14,2.33,1.39,.93,.23,1.83,.22,2.7-.04l.9,1.57c-1.31,.51-2.66,.57-4.07,.2-1.4-.38-2.53-1.1-3.41-2.17Z"/></g><path class="cls-8" d="M112.82,129.83c-.31,0-.62,0-.93-.02l-33.75-.82c-.22,0-.39-.19-.38-.4,0-.22,.17-.39,.4-.38l33.75,.82c.31,.01,.61,.02,.9,.02,3.63,0,6.77-1.31,9.34-3.88,2.59-2.59,3.91-5.76,3.92-9.44,0-3.63-1.31-6.79-3.9-9.37-2.4-2.4-5.3-3.71-8.61-3.9-.01,0-.03,0-.04,0-.05,0-.1-.01-.15-.01h-.01l-.72-.02s0,0,0,0l-34.49-.65c-.22,0-.39-.18-.38-.4,0-.21,.18-.38,.39-.38h0l34.5,.65h.11c.2,0,.41,0,.63,.02,0,0,0,0,0,0,.06,0,.14,0,.23,.02,3.51,.2,6.57,1.59,9.1,4.13,2.74,2.74,4.13,6.08,4.13,9.93-.01,3.89-1.41,7.25-4.15,9.99-2.73,2.73-6.06,4.11-9.89,4.11Z"/><g id="Layer1_22_MEMBER_1_MEMBER_2_MEMBER_3_FILL"><path class="cls-8" d="M109.38,135.67l-3.84,3.95h10.57l3.84-3.95h-10.57Z"/><path class="cls-9" d="M112.77,113.78c-.54,0-.99,.19-1.37,.57-.38,.38-.57,.84-.57,1.37v19.95h3.88v-19.95c0-.54-.19-.99-.57-1.37-.38-.38-.84-.57-1.37-.57Z"/><path class="cls-3" d="M110.57,113.54c-.5,.5-.79,1.08-.88,1.76-.01,.14-.02,.29-.02,.43,0,.86,.3,1.6,.9,2.21,.08,.08,.16,.16,.25,.23v-2.47c0-.54,.19-.99,.57-1.37,.38-.38,.84-.57,1.37-.57,.54,0,.99,.19,1.37,.57,.38,.38,.57,.84,.57,1.37v2.51c.1-.09,.2-.18,.29-.27,.6-.61,.9-1.35,.9-2.21s-.3-1.59-.9-2.19c-.47-.47-1.02-.76-1.64-.88-.07,0-.12,0-.18-.02-.09-.01-.18-.02-.27-.02h-.02s-.03,0-.04,0c-.03,0-.05,0-.06,0-.86,0-1.6,.31-2.21,.92Z"/></g></g><path class="cls-9" d="M94.57,48.51l-.97,.31-2.98-9.8-.68-2.24c-.14-.42-.39-.73-.76-.93-.28-.15-.58-.2-.88-.17-.1,0-.2,.03-.31,.06-.42,.13-.73,.38-.93,.76-.2,.37-.23,.77-.11,1.19l.52,1.71,3.14,10.32-.97,.29,.12,.38c-.14,.05-.27,.12-.38,.22-.22,.2-.33,.44-.34,.71s.08,.52,.28,.74c.19,.2,.42,.31,.69,.32,.12,0,.23,0,.33-.02l.12,.38,.6-.17,1.87-.59,1.89-.57,.6-.19-.82-2.72Z"/><g id="Layer1_26_MEMBER_1_MEMBER_5_FILL"><path class="cls-5" d="M103.22,35.22l1.86-.55,.12-.91c.01-.89-.28-1.65-.86-2.29-.59-.64-1.32-.99-2.19-1.05l-25.84-1.1c-.84,.04-1.58,.36-2.24,.96-.72,.66-1.11,1.47-1.18,2.44l-.08,1.78,10.26,4.73,6.04,.26,14.09-4.26Z"/></g><g id="Layer1_26_MEMBER_1_MEMBER_5_MEMBER_0_FILL"><path class="cls-11" d="M72.89,32.71l-.08,1.78,10.26,4.73,6.04,.26,.18-.05c-.74-6.17-4.74-9.52-12-10.05l-1-.06c-.84,.04-1.58,.36-2.24,.96-.72,.66-1.11,1.47-1.18,2.44Z"/></g><path class="cls-8" d="M89.12,39.48l3.13,9.71-1.65,.54-.97,.29,.12,.38s.92-.23,1.2,.68-.61,1.28-.61,1.28l.12,.38,4.94-1.51-.82-2.72-.97,.31-2.98-9.8-1.32,.4-.18,.05Z"/><polygon class="cls-7" points="164.12 37.54 169 36.01 176.38 58.71 171.43 60.52 170.77 58.75 164.12 37.54"/><polygon class="cls-6" points="169.05 61.33 168.22 58.48 170.43 57.68 171.43 60.52 169.05 61.33"/><path class="cls-3" d="M179.89,66.88s3.29,9.26,3.83,9.8,3.5-1.01,3.5-1.01l-4.45-10.53-2.88,1.75Z"/><path class="cls-2" d="M197.33,97.99c-5.86,0-10.61,4.75-10.61,10.61s4.75,10.61,10.61,10.61,10.61-4.75,10.61-10.61-4.75-10.61-10.61-10.61Zm0,18.07c-4.12,0-7.46-3.34-7.46-7.46s3.34-7.46,7.46-7.46,7.46,3.34,7.46,7.46-3.34,7.46-7.46,7.46Z"/><path class="cls-9" d="M182.99,78.06l7.32,19.29,5.59,12.53s3.73-.54,3.82-1.44-2.18-7.19-2.18-7.19l-.78-2.02-2.96-10.11s-.55-2.21-.36-3.41,.77-2.59,.77-2.59l-1.74-5.16s.29-1.4-.02-1.89-1.01-1.38-1.01-1.38c0,0-1.48-8.73-1.48-9.04,0-.49-.6-3.05-.6-3.05,0,0-3-2.94-4.31-2.58-1.2,.34-1,1.6-.49,2.39s2.82,3.16,3.44,5.64,1.45,5.46,.96,6.36-1.38,1.08-1.38,1.08l-4.83,1.87,.25,.68Z"/><path class="cls-9" d="M195.56,108.98c-.39-1.19,.16-2.34,1.29-2.74s2.47,.05,2.83,1.31c.54,1.88-.19,2.58-1.33,2.98-1.13,.4-2.18,.31-2.79-1.55Z"/><polygon class="cls-2" points="181.88 67.27 185.44 76.3 183.72 77 180.15 67.77 181.88 67.27"/><path class="cls-6" d="M165.9,37.06l-1.82,.59,6.51,20.7,1.77-.57c.1-.04,.18-.1,.23-.19,.04-.09,.04-.18,.02-.28l-1.78-5.89,.02,.11-.02-.04s0-.08-.02-.11l-4.42-14.07c-.04-.1-.1-.18-.19-.23-.09-.05-.18-.06-.28-.02"/><rect class="cls-9" x="161.41" y="34.95" width="7.5" height="2.65" transform="translate(-3.13 52.81) rotate(-18)"/><polygon class="cls-8" points="166.37 37.29 165.44 34.79 168.32 33.85 169.14 36.38 166.37 37.29"/><polygon class="cls-8" points="165.8 34.59 164.19 29.97 165.66 29.69 167.04 34.27 165.8 34.59"/><g><path class="cls-8" d="M170.96,22.96l-13.84-.67,.15-3.08,11.21,.35c1.28,.06,2.54,1.1,2.48,2.38v1.03Z"/><path class="cls-5" d="M161.27,22.39h.02c.44-.42,.67-.92,.69-1.53,.04-.6-.15-1.13-.56-1.57-.02-.02-.04-.04-.06-.06-.39-.4-.86-.62-1.41-.64l-9.48-.36c.57,.04,1.05,.28,1.44,.7,.41,.45,.6,.98,.58,1.59-.02,.59-.26,1.09-.71,1.5-.42,.4-1.65,.86-2.22,.85l10.14,.09c.59,.02,1.12-.16,1.57-.56Z"/><path class="cls-4" d="M148.81,18.95c-.38,.41-.56,.91-.54,1.48,0,.61,.23,1.12,.65,1.53,.44,.43,.96,.63,1.57,.62s1.07-.21,1.49-.61l.06-.07c.41-.43,.61-.94,.6-1.55s-.24-1.12-.68-1.53c-.43-.43-.94-.63-1.55-.62-.61,.02-1.11,.23-1.51,.63l-.04,.04-.04,.02-.02,.04Z"/><path class="cls-4" d="M148.81,18.95s-1.66,2.39-1.49,3.19,.76,.63,2.12,.74c1.35,.1,2.55-.9,2.55-.9l-1.14-2.64-2.03-.39Z"/></g><path class="cls-9" d="M186.5,111.12l3.61-1.3,.19-2.96-3.52-2.87-.65,3.98s-1.67,.83-1.39,1.94,1.76,1.2,1.76,1.2Z"/><path class="cls-9" d="M186.55,107.13c-1.36-2.42-1.73-4.73-1.09-6.86,1.01-3.38,4.16-5.05,4.29-5.12l.36,.69s-3,1.6-3.9,4.66c-.57,1.92-.22,4.02,1.03,6.25l-.68,.38Z"/><path class="cls-9" d="M161.63,19.38c.12-1.2,2.39-1.55,2.39-1.55l4.3,.24,.48,1.67-7.17-.36Z"/><path class="cls-8" d="M168.63,59.67l7.3-2.67-.7-2.22-6.85,2.53h-.02l-.39,.12,.64,2.18"/><polyline class="cls-9" points="171.56 56.14 172.42 58.3 168.58 59.71 167.9 57.42"/><path class="cls-9" d="M168.48,59.34s1.08,3.86,1.32,3.99,7.55,.57,7.87,1.11,1.73,3.56,1.73,3.56c0,0,4.34-1.16,4.72-1.78s-1.11-4.88-1.16-4.96-.43-1.19-.43-1.19c0,0-.11-.15-.43-.35-.27-.17-.45-.26-.45-.26,0,0-.35-.35-.4-.43s-5.43-2.36-5.43-2.36l-7.33,2.67Z"/><path class="cls-8" d="M177.14,60.73c.09,.33,.96,.39,1.95,.14s1.72-.73,1.63-1.07-1.37-.2-2.35,.05-1.31,.54-1.23,.88Z"/><polygon class="cls-8" points="183.62 63.28 181.4 64.13 182.41 66.99 184.2 65.51 183.62 63.28"/><path class="cls-8" d="M184.2,65.51l.21,.87s-1.9,.6-1.91,.65-.09-.04-.09-.04"/><g><polygon class="cls-9" points="137.68 80.98 136.15 82.83 135.9 82.62 132.69 86.51 132.94 86.72 131.36 88.64 131.73 88.95 138.05 81.28 137.68 80.98"/><path class="cls-9" d="M140.03,76.47s.4-.59,.64-1.05,.41-.72,.58-.71,.34,.14,.33,.32-.27,.96-.27,.96l-.64,1.11-1.43,1.73-3.29,3.94-5.39,6.44s-.49,.7-.89,.77-.82,.15-1.24-.15c-.07-.05-.15-.11-.22-.16-.13-.1-.27-.2-.4-.3-.18-.13-.36-.27-.53-.4-.21-.16-.42-.31-.62-.47-.22-.17-.45-.34-.67-.51s-.45-.34-.68-.51c-.21-.16-.42-.32-.64-.48-.19-.14-.37-.28-.56-.42-.14-.11-.29-.22-.43-.33-.09-.07-.18-.14-.27-.2-.13-.1-.25-.2-.37-.29s-.26-.18-.35-.3c-.14-.17-.2-.4-.2-.61,0-.31,.14-.59,.36-.79,.71-.57,4.24-3.01,4.24-3.01l2.91-2.01s.46-.25,.34-.68c-.14-.5-1.48-3.32-1.48-3.32l-.13-.26s-.04-.13,.25-.32,.76-.53,.76-.53c0,0,.17-.08,.14,.07s-.05,.57,.02,.84,.33,1.2,.33,1.2c0,0,.59,1.52,.69,1.67s.39,.95,.04,1.43-2.58,1.95-2.58,1.95l-4.42,3.03-.69,.49s-.28,.26,.18,.59,3.99,3.04,3.99,3.04l.41,.3,.99,.63s.46,.34,.88-.19c.45-.58,5.27-6.42,5.27-6.42l5.05-6.09Z"/></g><path class="cls-9" d="M68.49,60.9s2.04,.49,1.29,1.4,1.79-.7,1.79-.7l.43-.7-1.4-.1-2.12,.1Z"/><path class="cls-8" d="M77.85,58.19c-.17-.28-.53-.37-.8-.21l-3.57,2.12H36.15c-1.78,0-3.42,2.96-3.73,3.55-.06,.11-.08,.23-.06,.34,0,.1,0,.21,.06,.31l18.66,37.76s.04,.07,.06,.1l5.27,6.77c.11,.14,.28,.23,.46,.23,.04,0,.08,0,.12-.01,.22-.05,.39-.21,.45-.43l11.31-44.45,8.89-5.27c.28-.17,.37-.53,.21-.8Zm-41.7,3.09h35.34l-3.67,2.18H33.89c.67-1.05,1.62-2.18,2.26-2.18Zm20.45,45.99l-4.5-5.78-18.21-36.86h33.57l-10.85,42.64Z"/><polygon class="cls-10" points="37.2 71.31 39.38 75.68 40.01 75.36 37.89 70.95 37.2 71.31"/><polygon class="cls-10" points="67.75 68.15 66.51 72.88 67.2 73.06 68.51 68.34 67.75 68.15"/><polygon class="cls-10" points="52.74 102.29 56.68 107.35 56.87 106.29 53.49 101.88 52.74 102.29"/></g></g></svg>