<svg id="Layer_1" data-name="Layer 1" xmlns="http://www.w3.org/2000/svg" xmlns:xlink="http://www.w3.org/1999/xlink" viewBox="0 0 254 136"><defs><style>.cls-1,.cls-3,.cls-4{fill:none;}.cls-2{clip-path:url(#clip-path);}.cls-3,.cls-4{stroke:#262041;stroke-linecap:round;stroke-linejoin:round;}.cls-3{stroke-width:0.65px;}.cls-4{stroke-width:0.33px;}.cls-5{fill:#262041;}.cls-6{fill:#dbb44f;}.cls-7{fill:#f37b22;}.cls-8{fill:#32cc77;}.cls-9{fill:#4b4272;}.cls-10{fill:#def0f7;}.cls-11{fill:#806a47;}.cls-12{fill:#2c765b;}.cls-13{fill:#186f93;}.cls-14{fill:#e0f0f7;}</style><clipPath id="clip-path"><rect class="cls-1" width="254" height="136"/></clipPath></defs><g class="cls-2"><path id="Layer1_4_MEMBER_0_MEMBER_0_1_STROKES" data-name="Layer1 4 MEMBER 0 MEMBER 0 1 STROKES" class="cls-3" d="M83,83.67l.75-.71m10.58,20.32,1-.25m-2.59-5.62,1-.26M87.33,88l.74-.71m-46.6-3.58-.72-.7M30.14,103.31l-1-.26m2.55-5.63-1-.26M37.16,88l-.7-.72m37.13-9,.26-1m-6.13-.6.26-1M50.91,78.23l-.27-1m6.12-.6-.26-1m36.29,44.45,1,.27m-6.43,9.17.73.75m-5,3.56.74.73M50.93,139.3l-.26,1m-9.2-6.45-.72.7m-3.59-5-.68.71m-6.34-16.08-1,.3m2.55,5.59-1,.28m42.82,19,.26,1m-6.13.59.26,1m-11.15-1-.26,1M94.36,114.2l1,.28"/><path id="Layer1_4_MEMBER_0_MEMBER_0_2_STROKES" data-name="Layer1 4 MEMBER 0 MEMBER 0 2 STROKES" class="cls-4" d="M50.91,78.23l5.43,20.33,4.34,4.34,1.56-5.83L56.76,76.63m11,0L62.24,97.07l1.58,5.83,4.31-4.29,5.46-20.38M31.71,97.42l20.4,5.47L37.16,88m4.31-4.31L56.34,98.56l1.59,5.89,2.18.58.57-2.13,1.58,1.56,1.56-1.56.57,2.13,2.18-.58,1.56-5.84L83,83.67m9.75,13.74-20.32,5.46-4.32,4.31L74,108.74l20.39-5.46m0,10.92L74,108.74l-5.85,1.59,4.33,4.31,20.35,5.45M64.39,105l.34,1.24,1.25.34.59-2.16,5.88-1.58L87.33,88m-22.6,18.31.23.91.68.7.34-1.27,2.15.57-1.6,1.57,1.58,1.58L66,110.9l.58,2.16,5.91,1.58,14.89,14.89M62.26,104.46l.91.9,1.22-.33m-4.28,0,1.24.33.91-.9m-.91.9.88.24.94-.24.67.66.89.25m-3.38-.91-.64.65.7-.18,0,0s0,0,.06,0l.72-.2.76.21h0l0,0,.77.19.55.59,0,.06.52.51.19.73a.14.14,0,0,0,0,.06v0l.21.83.26-1,.89.87-.91.93L66,110.9l-1.2.34-.35,1.25,2.13.57,1.56,5.82,14.94,15m-20.82-22-.72-.18h-.08l-.73-.2.67.64.86-.25.78-.21h0l-.76-2.93-.8,3M65,110.32l-.55.55,0,0-.58.57.93-.23.24-.92.2-.74a0,0,0,0,1,0,0l-2.94-.8,2.14,2.15m-2.19,1,.94.26.67-.68-.72.21H63m2.36-2.83.24.83-.63.64m.39-1.47-.18.65v0m-.81-2.94-2.13,2.14,2.91-.78m-3.72-2.17.81,3,.78-2.94m.8,8.81-1.58-1.57-1.59,1.61,1.57,5.9,1.6-5.94.56-2.13-1.25-.34-.89.9-.91-.91-1.27.34.59,2.18-4.28,4.25L50.93,139.3m22.63,0-5.47-20.42-4.25-4.26m-5.91-10.17.59,2.14,1.27-.32.32-1.24m0,1.58.06,0,.55-.55-.92.26-.25.91.56-.57,2.16,2.14L59.33,108a.08.08,0,0,0,0,0l-.21.83.16.65,0,.06,3-.8-2.16,2.17h.06l.52.57-.94-.26.34,1.24-2.1.57-1.59,5.86L41.47,133.84M58,108.75l-1.58-1.57-5.91,1.57,5.91,1.58L58,108.75l.9-.89-.33-1.27-2.15.59-4.26-4.29,5.82,1.56m1.4,3.52v0l.21-.75-.69.68.26,1-.25.84.6.62-.16-.68v-.07m-2.93.78,2.17.59.32-1.24-.91-.93m1.79,2.49-1.2-.32L58,113.05l-5.85,1.56-15,14.94M60.1,110.92l-.64-.62.28.94m-28,8.83,20.42-5.46,4.24-4.28m11.32,30.55-5.45-20.32L56.8,140.88m-26.66-26.7,20.32-5.43-20.32-5.44"/><g id="Layer1_4_MEMBER_0_MEMBER_1_FILL" data-name="Layer1 4 MEMBER 0 MEMBER 1 FILL"><path class="cls-5" d="M63.67,67.32c-.47,0-1,0-1.43,0l-1.4,0a40.13,40.13,0,0,0-15.29,3.35,40.8,40.8,0,0,0-12.62,8.76h0a39.93,39.93,0,0,0-12.15,29.32,39.91,39.91,0,0,0,12.15,29.31,39.94,39.94,0,0,0,29.32,12.16,39.88,39.88,0,0,0,29.31-12.16,39.88,39.88,0,0,0,12.16-29.31A39.9,39.9,0,0,0,91.55,79.43a39.71,39.71,0,0,0-27.1-12.08q-.39,0-.78,0M37.16,83.66A36.09,36.09,0,0,1,44.44,78l1.11-.64a34.27,34.27,0,0,1,16.51-4.06h.18c.75,0,1.49,0,2.21.06A34.08,34.08,0,0,1,87.33,83.67a35.46,35.46,0,0,1,0,50.18,34.21,34.21,0,0,1-25.09,10.39,34.23,34.23,0,0,1-25.1-10.39,35.51,35.51,0,0,1,0-50.18S37.16,83.67,37.16,83.66Z"/><path class="cls-6" d="M44.44,78l1.19,2a31.88,31.88,0,0,1,16.43-4.37V73.27a34.27,34.27,0,0,0-16.51,4.06Z"/><path class="cls-7" d="M38.83,85.33l-1.67-1.67s0,0,0,0a35.51,35.51,0,0,0,0,50.18,34.23,34.23,0,0,0,25.1,10.39,34.21,34.21,0,0,0,25.09-10.39,35.46,35.46,0,0,0,0-50.18A34.08,34.08,0,0,0,64.45,73.33c-.72,0-1.46-.06-2.21-.06h-.18v2.37h.17c.74,0,1.49,0,2.22.07a33.15,33.15,0,0,1,30.87,33,31.91,31.91,0,0,1-9.7,23.41,31.88,31.88,0,0,1-23.39,9.69,31.92,31.92,0,0,1-23.41-9.69,33.1,33.1,0,0,1,0-46.8S38.83,85.34,38.83,85.33Z"/><path class="cls-8" d="M38.83,85.33a35.16,35.16,0,0,1,6.72-5.27l.08,0-1.19-2a36.09,36.09,0,0,0-7.28,5.69Z"/></g><g id="Layer1_4_MEMBER_0_MEMBER_1_MEMBER_0_FILL" data-name="Layer1 4 MEMBER 0 MEMBER 1 MEMBER 0 FILL"><path class="cls-9" d="M21.47,107.37a.62.62,0,0,0-.16-.47.68.68,0,0,0-.46-.21.6.6,0,0,0-.47.18.62.62,0,0,0-.21.44c0,.49,0,1,0,1.46s0,1,0,1.43a.7.7,0,0,0,.21.46.62.62,0,0,0,.47.16.68.68,0,0,0,.46-.21.62.62,0,0,0,.16-.47c0-.46,0-.91,0-1.37s0-.93,0-1.4m56.92,40.27h0c.44-.17.89-.37,1.33-.59a.67.67,0,0,0,.33-.37.64.64,0,0,0,0-.49.65.65,0,0,0-.37-.34.69.69,0,0,0-.49,0c-.41.2-.83.38-1.25.56l-1.3.52a.56.56,0,0,0-.37.32.64.64,0,0,0,0,.51.58.58,0,0,0,.33.37.78.78,0,0,0,.5,0l1.37-.54m5.91-4.36a.67.67,0,0,0-.49.1c-.37.25-.75.48-1.13.7s-.84.47-1.26.68a.66.66,0,0,0,.1,1.19.75.75,0,0,0,.51,0l1.28-.7c.41-.24.82-.49,1.22-.75a.7.7,0,0,0,.28-.42.69.69,0,0,0-.09-.49.65.65,0,0,0-.42-.28m-2.92.44a.65.65,0,0,0-.07-.49.59.59,0,0,0-.39-.3.6.6,0,0,0-.49,0l-1.15.61h0c-.39.19-.78.36-1.17.52a.63.63,0,0,0-.36.34.64.64,0,0,0,0,.51.66.66,0,0,0,.34.36.72.72,0,0,0,.5,0c.44-.17.87-.37,1.29-.58h0l1.21-.64a.65.65,0,0,0,.31-.39m.94-1.1a.6.6,0,0,0,.39.29.68.68,0,0,0,.5-.07c.38-.23.77-.48,1.17-.74s.76-.52,1.13-.8a.72.72,0,0,0,.26-.42.69.69,0,0,0-.13-.49.61.61,0,0,0-.43-.24.58.58,0,0,0-.49.11c-.34.26-.69.51-1,.75h0l-1.12.71a.57.57,0,0,0-.31.39.62.62,0,0,0,.08.51m5.56-.52c.37-.29.74-.58,1.1-.88a.7.7,0,0,0,.23-.44.6.6,0,0,0-.14-.47.73.73,0,0,0-.44-.25.56.56,0,0,0-.47.15l-1.08.85h0l-1.14.85a.59.59,0,0,0-.26.42.66.66,0,0,0,.54.75.72.72,0,0,0,.49-.12l1.17-.87m1.87-4.56a.61.61,0,0,0-.18-.45.65.65,0,0,0-.47-.2.6.6,0,0,0-.46.2c-.31.3-.63.6-.94.88h0c-.34.27-.69.54-1,.83a.52.52,0,0,0-.23.42A.64.64,0,0,0,87,140a.64.64,0,0,0,.49-.13l1.06-.86s0,0,0,0c.35-.3.68-.61,1-.92a.68.68,0,0,0,.18-.48m2.29,1,1-1a.6.6,0,0,0,.16-.47.63.63,0,0,0-.21-.44.6.6,0,0,0-.47-.18.65.65,0,0,0-.44.22l-.93,1-1,1a.63.63,0,0,0-.21.44.58.58,0,0,0,.18.47.63.63,0,0,0,.44.21.58.58,0,0,0,.47-.16c.37-.33.73-.67,1.07-1h0m1.69-3.82a.56.56,0,0,0-.15.47.73.73,0,0,0,.25.44.54.54,0,0,0,.47.14.69.69,0,0,0,.44-.22l.91-1.14c.29-.38.57-.77.83-1.16a.69.69,0,0,0,.11-.48.67.67,0,0,0-.27-.43.66.66,0,0,0-.49-.09.56.56,0,0,0-.42.27l-.8,1.09h0l-.9,1.11M93.52,132a.61.61,0,0,0,.24.43.7.7,0,0,0,.49.13.69.69,0,0,0,.42-.26c.29-.37.56-.75.82-1.13h0q.36-.57.72-1.17a.64.64,0,0,0,.06-.49.63.63,0,0,0-.31-.39.55.55,0,0,0-.48-.07.57.57,0,0,0-.39.3c-.23.38-.46.74-.69,1.1s-.52.73-.78,1.07a.66.66,0,0,0-.11.49m-3.11,3.4a.59.59,0,0,0-.19.46.64.64,0,0,0,.19.47.63.63,0,0,0,.46.18.67.67,0,0,0,.47-.18c.32-.33.63-.67.94-1h0l.85-1a.74.74,0,0,0,.13-.49.61.61,0,0,0-.25-.42.56.56,0,0,0-.49-.13.61.61,0,0,0-.42.24l-.81,1v0q-.44.5-.9,1m8.72-7.69a.65.65,0,0,0-.51,0,.6.6,0,0,0-.37.33c-.22.4-.44.8-.67,1.2s-.48.8-.73,1.2a.61.61,0,0,0-.08.49.67.67,0,0,0,.29.41.66.66,0,0,0,.49.08A.67.67,0,0,0,98,131l.75-1.24c.23-.42.47-.84.69-1.25a.69.69,0,0,0,0-.51.64.64,0,0,0-.31-.37m-2.81-.5a.54.54,0,0,0,0,.48.54.54,0,0,0,.31.39.62.62,0,0,0,.87-.24c.23-.4.45-.81.65-1.23h0a13.25,13.25,0,0,0,.57-1.27.63.63,0,0,0-.35-.84.64.64,0,0,0-.51,0,.6.6,0,0,0-.34.36c-.15.38-.33.76-.52,1.14h0l-.61,1.19m3.73-7.53a.55.55,0,0,0-.48.07.52.52,0,0,0-.3.39c-.1.41-.23.82-.37,1.25l0,0c-.16.41-.32.82-.49,1.24a.62.62,0,0,0,0,.5.6.6,0,0,0,.36.34.62.62,0,0,0,.5,0,.6.6,0,0,0,.34-.36c.18-.43.34-.86.51-1.28v0c.14-.45.27-.9.39-1.33a.65.65,0,0,0-.07-.49.58.58,0,0,0-.41-.29m1.08,5.2c.17-.44.34-.89.52-1.33a.72.72,0,0,0,0-.5.55.55,0,0,0-.37-.33.65.65,0,0,0-.51,0,.56.56,0,0,0-.32.37c-.16.43-.33.86-.51,1.28s-.37.85-.56,1.27a.61.61,0,0,0,0,.51.55.55,0,0,0,.32.35.62.62,0,0,0,.87-.3q.31-.67.6-1.32v0m2-7.09a.66.66,0,0,0-.4-.29.56.56,0,0,0-.49.1.6.6,0,0,0-.29.41c-.1.44-.2.88-.31,1.33s-.26.89-.41,1.35a.61.61,0,0,0,.05.49.59.59,0,0,0,.37.32.64.64,0,0,0,.49,0,.68.68,0,0,0,.33-.38c.15-.48.29-1,.42-1.43s.23-.92.32-1.38a.64.64,0,0,0-.08-.49m-1.52-2.91a.6.6,0,0,0-.44-.24.57.57,0,0,0-.48.13.54.54,0,0,0-.24.42,10.74,10.74,0,0,1-.23,1.26v0c-.08.43-.18.86-.29,1.28a.58.58,0,0,0,.07.49.65.65,0,0,0,.39.31.67.67,0,0,0,.79-.46q.18-.67.33-1.38l0,0c.1-.46.18-.92.25-1.38a.69.69,0,0,0-.13-.48m2.35-2.5a.6.6,0,0,0-.44-.23.65.65,0,0,0-.47.17.64.64,0,0,0-.23.44c0,.44-.07.89-.13,1.34s-.15.92-.22,1.39a.63.63,0,0,0,.09.48.64.64,0,0,0,.91.17.7.7,0,0,0,.28-.43c.09-.48.16-1,.23-1.43s.11-1,.14-1.43a.6.6,0,0,0-.16-.47m-1.88-2.66a.65.65,0,0,0-.47-.2.6.6,0,0,0-.46.2.58.58,0,0,0-.2.45c0,.42,0,.85,0,1.28s-.07.89-.12,1.32a.6.6,0,0,0,.13.49.61.61,0,0,0,.43.24.65.65,0,0,0,.48-.13.66.66,0,0,0,.25-.44c0-.45.09-.91.13-1.38s0-.92,0-1.38a.6.6,0,0,0-.18-.45m1.54-3a.63.63,0,0,0-.44.21.6.6,0,0,0-.18.47c0,.46,0,.91,0,1.37s0,.93,0,1.4a.6.6,0,0,0,.18.47.63.63,0,0,0,.44.21.6.6,0,0,0,.47-.16.7.7,0,0,0,.21-.46c0-.49,0-1,0-1.46s0-1,0-1.43a.62.62,0,0,0-.21-.44.58.58,0,0,0-.47-.18m-2.26-2.37a.64.64,0,0,0-.55.71c0,.42.08.85.11,1.29s0,.89,0,1.31a.57.57,0,0,0,.21.46.65.65,0,0,0,.46.18.59.59,0,0,0,.45-.2.67.67,0,0,0,.18-.47c0-.43,0-.89,0-1.36v0c0-.46-.07-.91-.13-1.35a.61.61,0,0,0-.24-.42.57.57,0,0,0-.49-.13M54.83,149.51a.66.66,0,0,0,.1.49.65.65,0,0,0,.42.27c.46.08.93.15,1.43.21s.93.12,1.43.17a.65.65,0,0,0,.7-.59.67.67,0,0,0-.59-.71L57,149.2h0c-.46-.06-.91-.14-1.35-.21a.62.62,0,0,0-.48.1.57.57,0,0,0-.28.42m-4.49-1.74a.63.63,0,0,0-.5,0,.6.6,0,0,0-.31.39.61.61,0,0,0,0,.49A.65.65,0,0,0,50,149c.47.14.93.27,1.4.39h0c.47.13.94.25,1.42.34a.62.62,0,0,0,.48-.08.67.67,0,0,0,.28-.4.59.59,0,0,0-.08-.49.67.67,0,0,0-.41-.29c-.44-.1-.89-.21-1.33-.33h0l-1.35-.39m4.25-1.06c-.44-.08-.87-.18-1.3-.29a.65.65,0,0,0-.8.49.61.61,0,0,0,.08.49.64.64,0,0,0,.41.29l1.36.31v0c.43.09.87.17,1.33.24a.65.65,0,0,0,.49-.13.66.66,0,0,0,.26-.42.72.72,0,0,0-.13-.49.61.61,0,0,0-.43-.24c-.43-.06-.85-.14-1.26-.23M71,148.79a.57.57,0,0,0-.07.49.58.58,0,0,0,.29.41.65.65,0,0,0,.49.06l1.4-.35h0L74.5,149a.65.65,0,0,0,.39-.32.61.61,0,0,0,.06-.49.65.65,0,0,0-.32-.39.59.59,0,0,0-.49,0l-1.31.37h0l-1.4.36a.55.55,0,0,0-.39.3m.7-1.85a.71.71,0,0,0-.31-.39.65.65,0,0,0-.51-.05c-.4.11-.8.2-1.22.28h0l-1.32.23a.61.61,0,0,0-.42.24.6.6,0,0,0-.12.49.66.66,0,0,0,.25.42.67.67,0,0,0,.49.13c.45-.07.91-.14,1.36-.23h0c.46-.08.92-.19,1.36-.31a.63.63,0,0,0,.39-.31.68.68,0,0,0,.07-.5m1.59-1.06a.63.63,0,0,0-.39.31.57.57,0,0,0-.07.49.69.69,0,0,0,.31.39.65.65,0,0,0,.49.07l1.33-.41c.45-.15.88-.31,1.3-.49a.6.6,0,0,0,.36-.34.6.6,0,0,0,0-.49.66.66,0,0,0-.83-.37l-1.25.45h0l-1.27.39m-7.1,3.43a.63.63,0,0,0-.46.23.62.62,0,0,0-.16.47.67.67,0,0,0,.7.6c.48,0,1-.08,1.48-.14l1.39-.21a.71.71,0,0,0,.43-.26.77.77,0,0,0,.11-.49.6.6,0,0,0-.26-.42A.62.62,0,0,0,69,149l-1.36.21c-.47.06-.93.1-1.38.13m-4.9-.74a.6.6,0,0,0,.2-.46.64.64,0,0,0-.18-.45.58.58,0,0,0-.46-.22c-.43,0-.86,0-1.28-.06h0c-.44,0-.88,0-1.31-.1a.64.64,0,0,0-.72.55.59.59,0,0,0,.13.49.68.68,0,0,0,.44.25c.45.05.92.09,1.38.11l1.35.07a.67.67,0,0,0,.47-.18m2.78,1.12a.6.6,0,0,0-.47-.18c-.45,0-.91,0-1.36,0s-.94,0-1.4,0a.58.58,0,0,0-.47.18.67.67,0,0,0-.22.44.6.6,0,0,0,.18.47.63.63,0,0,0,.44.21q.73,0,1.47,0l1.43,0a.68.68,0,0,0,.45-.21.65.65,0,0,0,0-.91M66,147.3l-1.29.11-1.31.05a.57.57,0,0,0-.46.21.65.65,0,0,0-.18.46.55.55,0,0,0,.22.45.6.6,0,0,0,.45.18l1.37,0h0c.46,0,.91-.07,1.35-.13a.65.65,0,0,0,.44-.24.68.68,0,0,0,.13-.49.61.61,0,0,0-.24-.42.6.6,0,0,0-.49-.13M32.44,136.6a.58.58,0,0,0-.43-.23.63.63,0,0,0-.48.17.61.61,0,0,0-.22.45.63.63,0,0,0,.16.47c.32.37.66.73,1,1.08s.67.65,1.05,1a.65.65,0,0,0,.91,0,.65.65,0,0,0,.17-.47.64.64,0,0,0-.21-.45c-.35-.31-.68-.62-1-.93s-.65-.67-1-1m12.93,9.28a.6.6,0,0,0-.49,0,.56.56,0,0,0-.37.32.65.65,0,0,0,0,.51.55.55,0,0,0,.33.35c.44.22.89.42,1.35.61l1.33.52a.75.75,0,0,0,.49,0,.69.69,0,0,0,.34-.37.74.74,0,0,0,0-.51.64.64,0,0,0-.37-.32c-.45-.17-.88-.33-1.29-.51h0c-.45-.18-.88-.37-1.3-.57m2.57-1a.64.64,0,0,0-.36.36.65.65,0,0,0,0,.51.67.67,0,0,0,.36.34l1.3.49h0c.41.15.83.29,1.27.42A.68.68,0,0,0,51,147a.61.61,0,0,0,.31-.39.66.66,0,0,0-.06-.48.57.57,0,0,0-.39-.31c-.41-.12-.81-.25-1.21-.39v0c-.42-.14-.83-.29-1.26-.46a.66.66,0,0,0-.48,0m-7.29-1.56a.62.62,0,0,0-.48-.08.66.66,0,0,0-.41.3.58.58,0,0,0-.08.48.64.64,0,0,0,.29.41c.4.25.81.5,1.24.75h0l1.24.68A.64.64,0,0,0,43,146a.71.71,0,0,0,.39-.31.75.75,0,0,0,.06-.51.67.67,0,0,0-.31-.39l-1.23-.68v0l-1.21-.74m-3.21-2.24v0c-.38-.3-.75-.59-1.11-.9a.61.61,0,0,0-.49-.14.67.67,0,0,0-.44.24.57.57,0,0,0-.14.47.65.65,0,0,0,.24.44c.37.3.75.61,1.14.91s.75.57,1.15.83a.65.65,0,0,0,.49.11.68.68,0,0,0,.41-.27.77.77,0,0,0,.11-.49.65.65,0,0,0-.28-.42c-.36-.26-.73-.53-1.08-.8m-.85-3.36c-.32-.27-.65-.56-1-.87a.61.61,0,0,0-.45-.19.6.6,0,0,0-.46.19.65.65,0,0,0-.19.48.61.61,0,0,0,.19.45c.34.33.69.63,1,.91s.69.62,1.06.91a.62.62,0,0,0,.47.13.65.65,0,0,0,.44-.24.68.68,0,0,0,.13-.49.69.69,0,0,0-.24-.42,11,11,0,0,1-1-.83l0,0m5.35,4.73A.61.61,0,0,0,42,142a.67.67,0,0,0-.29-.41c-.38-.23-.73-.46-1.06-.7l-.05,0a12.87,12.87,0,0,1-1.07-.75.62.62,0,0,0-.49-.11.57.57,0,0,0-.42.24.58.58,0,0,0-.13.49.59.59,0,0,0,.24.42,13.26,13.26,0,0,0,1.16.8c.35.25.73.5,1.13.75a.65.65,0,0,0,.51.08.66.66,0,0,0,.39-.29m1.88.34a.55.55,0,0,0-.48-.05.56.56,0,0,0-.39.31.59.59,0,0,0-.05.5.58.58,0,0,0,.31.38q.61.33,1.23.63h0l1.21.59a.69.69,0,0,0,.49,0,.64.64,0,0,0,.38-.34.72.72,0,0,0,0-.5.56.56,0,0,0-.34-.36L45,143.43l-1.19-.6m-12.55-9.77a.54.54,0,0,0-.24.42.58.58,0,0,0,.13.49c.28.37.58.73.89,1.09v0c.29.34.58.67.9,1a.62.62,0,0,0,.45.2.68.68,0,0,0,.48-.18.62.62,0,0,0,.19-.46.67.67,0,0,0-.18-.47c-.29-.3-.58-.61-.86-.92l-.85-1a.55.55,0,0,0-.43-.23.57.57,0,0,0-.48.13m-3.15-.73a.53.53,0,0,0-.26.42.67.67,0,0,0,.11.49c.29.39.58.77.88,1.15v0q.42.58.87,1.14a.7.7,0,0,0,.44.23.62.62,0,0,0,.49-.15.68.68,0,0,0,.23-.44.57.57,0,0,0-.15-.47c-.28-.35-.56-.72-.84-1.09h0c-.3-.36-.58-.73-.85-1.11a.65.65,0,0,0-.91-.14m.24-3.51a.55.55,0,0,0-.3.39.58.58,0,0,0,0,.48c.24.41.5.81.77,1.19v0c.24.36.49.73.75,1.09a.74.74,0,0,0,.44.26.66.66,0,0,0,.6-1.05c-.25-.33-.48-.67-.71-1l0,0c-.25-.35-.48-.71-.7-1.09a.56.56,0,0,0-.39-.31.57.57,0,0,0-.49.07m-2.48-1.19a.61.61,0,0,0-.51.05.56.56,0,0,0-.32.37.59.59,0,0,0,.05.5c.21.43.45.85.7,1.27v0c.23.4.48.8.73,1.2a.65.65,0,0,0,.4.29.57.57,0,0,0,.49-.08.62.62,0,0,0,.29-.4.57.57,0,0,0-.08-.49c-.25-.4-.48-.8-.71-1.19s-.46-.8-.67-1.22a.64.64,0,0,0-.37-.32m1.57-1.84c-.2-.4-.39-.81-.56-1.22a.7.7,0,0,0-.36-.34.65.65,0,0,0-.51,0,.59.59,0,0,0-.34.35.6.6,0,0,0,0,.49c.18.44.38.86.58,1.29h0q.27.56.6,1.17a.57.57,0,0,0,.38.31.58.58,0,0,0,.48,0,.66.66,0,0,0,.33-.37.74.74,0,0,0,0-.51c-.21-.41-.41-.8-.61-1.17m-4.61-2.73a.6.6,0,0,0,0,.49c.16.44.34.89.52,1.35v0a14.19,14.19,0,0,0,.59,1.33.64.64,0,0,0,.37.33.72.72,0,0,0,.5,0,.65.65,0,0,0,.3-.86c-.2-.42-.38-.83-.56-1.26s-.35-.87-.5-1.3a.56.56,0,0,0-.34-.35.59.59,0,0,0-.5,0,.51.51,0,0,0-.36.34m-.95-7.1a.74.74,0,0,0,.12-.49q-.12-.7-.21-1.38c-.07-.46-.12-.91-.15-1.37a.64.64,0,0,0-.21-.45.65.65,0,0,0-.47-.17.63.63,0,0,0-.46.23.62.62,0,0,0-.16.47c0,.49.09,1,.16,1.47s.13.93.21,1.41a.63.63,0,0,0,.26.42.71.71,0,0,0,.49.12.66.66,0,0,0,.42-.26m2.93,3.49a.53.53,0,0,0-.49-.06.6.6,0,0,0-.39.29.59.59,0,0,0-.06.5c.12.45.25.89.4,1.32,0,0,0,0,0,0,.13.42.28.84.44,1.25a.58.58,0,0,0,.36.36.57.57,0,0,0,.48,0,.6.6,0,0,0,.36-.34.62.62,0,0,0,0-.5c-.15-.39-.29-.79-.42-1.19v0c-.15-.41-.28-.83-.39-1.25a.67.67,0,0,0-.31-.39m-2-.13h0c-.13-.45-.25-.89-.34-1.34a.61.61,0,0,0-.28-.4.65.65,0,0,0-.49-.1.57.57,0,0,0-.4.27.67.67,0,0,0-.1.49,13,13,0,0,0,.36,1.43h0q.16.69.39,1.38a.65.65,0,0,0,.32.39.64.64,0,0,0,.49,0,.61.61,0,0,0,.42-.81c-.14-.44-.26-.87-.37-1.32M24,114.87a.67.67,0,0,0-.26-.43.65.65,0,0,0-.49-.11.61.61,0,0,0-.42.24.64.64,0,0,0-.12.49c.06.46.13.92.23,1.38s.18.88.28,1.3a.64.64,0,0,0,.29.41.57.57,0,0,0,.49.08.62.62,0,0,0,.4-.29.6.6,0,0,0,.09-.49c-.1-.42-.19-.84-.28-1.27l0,0c-.09-.46-.17-.9-.23-1.33m-.42-3.71c0-.45-.06-.9-.07-1.33a.59.59,0,0,0-.19-.46.74.74,0,0,0-.48-.18.55.55,0,0,0-.45.22.64.64,0,0,0-.18.45c0,.46,0,.92.06,1.4s.08.87.12,1.32a.65.65,0,0,0,.24.43.57.57,0,0,0,.47.15.68.68,0,0,0,.44-.23.62.62,0,0,0,.15-.49c0-.42-.08-.85-.11-1.28m.13-6.39a.64.64,0,0,0-.13-.47.6.6,0,0,0-.44-.24.54.54,0,0,0-.48.13.55.55,0,0,0-.24.44c-.06.45-.11.91-.13,1.38s-.05.89-.06,1.35a.71.71,0,0,0,.17.47.6.6,0,0,0,.46.19.71.71,0,0,0,.47-.18.58.58,0,0,0,.2-.45c0-.43,0-.86.06-1.28v0c0-.45.06-.88.12-1.32M22,102.09a.69.69,0,0,0-.11-.49.58.58,0,0,0-.41-.27.65.65,0,0,0-.49.09.6.6,0,0,0-.27.43c-.09.45-.16.93-.21,1.43s-.14.93-.18,1.43a.64.64,0,0,0,.16.47.64.64,0,0,0,.91.08.7.7,0,0,0,.23-.44c0-.47.1-.92.16-1.36v0c0-.47.13-.92.21-1.35M24.07,99a.67.67,0,0,0-.79.49c-.11.45-.21.9-.3,1.37v0c-.08.44-.16.88-.22,1.33a.58.58,0,0,0,.11.49.67.67,0,0,0,.42.26.64.64,0,0,0,.49-.13.67.67,0,0,0,.26-.42c.05-.43.13-.86.21-1.27h0c.07-.43.17-.87.27-1.3a.59.59,0,0,0-.08-.5.65.65,0,0,0-.39-.3m-.86-2.14a.73.73,0,0,0-.06-.5.58.58,0,0,0-.38-.31.62.62,0,0,0-.5,0,.6.6,0,0,0-.31.4c-.15.46-.28.93-.39,1.39h0q-.21.69-.36,1.41a.66.66,0,0,0,.1.49.65.65,0,0,0,.41.28.59.59,0,0,0,.48-.09.65.65,0,0,0,.28-.4c.1-.45.21-.89.34-1.34h0q.18-.68.39-1.35M26,94.92a.69.69,0,0,0,0-.49.65.65,0,0,0-.36-.35.64.64,0,0,0-.84.35c-.18.44-.33.87-.47,1.3a0,0,0,0,0,0,0c-.15.41-.29.83-.41,1.26a.65.65,0,0,0,0,.51.71.71,0,0,0,.39.31.7.7,0,0,0,.51-.07.6.6,0,0,0,.3-.39q.16-.6.39-1.2v0c.15-.41.3-.83.46-1.25m-.93-3.54a.64.64,0,0,0-.34-.38.6.6,0,0,0-.49,0,.59.59,0,0,0-.37.32q-.33.68-.6,1.35c-.17.43-.34.88-.51,1.33a.64.64,0,0,0,0,.49.66.66,0,0,0,.36.34.72.72,0,0,0,.5,0,.67.67,0,0,0,.34-.38c.16-.44.32-.87.49-1.28v0c.19-.45.38-.88.57-1.31a.58.58,0,0,0,0-.48m2.77-1.94a.65.65,0,0,0-.49,0,.63.63,0,0,0-.39.31c-.23.41-.44.83-.63,1.24v0c-.2.4-.39.81-.57,1.22a.56.56,0,0,0,0,.49.57.57,0,0,0,.34.37.69.69,0,0,0,.49,0,.65.65,0,0,0,.37-.34c.18-.4.36-.79.56-1.17s.39-.8.6-1.19a.63.63,0,0,0-.26-.88M31,85.56a.62.62,0,0,0-.26-.43.58.58,0,0,0-.47-.13.66.66,0,0,0-.44.25,12.9,12.9,0,0,0-.78,1.15c-.26.36-.52.74-.77,1.14a.67.67,0,0,0-.08.5.64.64,0,0,0,.29.39.65.65,0,0,0,.51.09.72.72,0,0,0,.39-.3,10.68,10.68,0,0,1,.71-1,.06.06,0,0,1,0,0A13,13,0,0,1,30.87,86a.65.65,0,0,0,.13-.48m3.07-4.36a.61.61,0,0,0-.45-.19.59.59,0,0,0-.46.19,12.83,12.83,0,0,0-.93,1c-.31.34-.61.69-.89,1.06a.55.55,0,0,0-.13.47.6.6,0,0,0,.24.44.62.62,0,0,0,.47.13.75.75,0,0,0,.44-.25,10.43,10.43,0,0,1,.82-1l0,0c.27-.33.56-.65.88-1a.64.64,0,0,0,.18-.45.6.6,0,0,0-.2-.46M27.7,86.66a.66.66,0,0,0-.29-.4.62.62,0,0,0-.49-.09.7.7,0,0,0-.41.3c-.25.4-.49.81-.73,1.23l0,0c-.22.41-.45.82-.68,1.23a.6.6,0,0,0,0,.49.59.59,0,0,0,.31.39.65.65,0,0,0,.49.07.71.71,0,0,0,.39-.31l.68-1.24q.34-.6.72-1.2a.64.64,0,0,0,.08-.49m.18-1.88a.57.57,0,0,0,.27.4.7.7,0,0,0,.49.12.74.74,0,0,0,.41-.28c.26-.37.52-.73.79-1.09s.58-.75.88-1.1a.63.63,0,0,0,.15-.49.68.68,0,0,0-.23-.44.62.62,0,0,0-.49-.15.69.69,0,0,0-.44.25c-.3.37-.6.74-.89,1.13h0c-.29.37-.57.76-.83,1.16a.63.63,0,0,0-.09.49M33.52,78c-.38.32-.74.66-1.08,1s-.66.68-1,1.06A.65.65,0,0,0,32,81.1a.63.63,0,0,0,.44-.21c.3-.35.62-.68.94-1s.66-.66,1-1A.66.66,0,0,0,34,77.8a.62.62,0,0,0-.47.17m3.25,1.56h0c.33-.3.67-.58,1-.85a.65.65,0,0,0,.24-.44.62.62,0,0,0-.13-.47.58.58,0,0,0-.44-.24.53.53,0,0,0-.48.13c-.37.28-.73.58-1.08.89s-.66.58-1,.89a.63.63,0,0,0-.19.46.67.67,0,0,0,.18.47.62.62,0,0,0,.45.2.66.66,0,0,0,.47-.18c.31-.29.61-.58.93-.86m2-4.43a.67.67,0,0,0-.11-.48.66.66,0,0,0-.91-.15c-.4.28-.79.57-1.17.88v0c-.39.28-.76.58-1.12.88a.67.67,0,0,0-.24.44.66.66,0,0,0,.14.49.69.69,0,0,0,.44.22.58.58,0,0,0,.49-.14l1.07-.85h0c.36-.29.73-.57,1.12-.84a.67.67,0,0,0,.26-.43m3.46.25a.6.6,0,0,0-.06-.49.69.69,0,0,0-.39-.31.6.6,0,0,0-.49,0,11.39,11.39,0,0,0-1.18.76.05.05,0,0,0,0,0c-.37.24-.73.49-1.09.75a.69.69,0,0,0-.13.91.69.69,0,0,0,.44.26.61.61,0,0,0,.47-.13c.34-.25.69-.49,1-.72,0,0,0,0,0,0a12.3,12.3,0,0,1,1.11-.7.65.65,0,0,0,.3-.39m1.16-3a.72.72,0,0,0,0-.5.62.62,0,0,0-.38-.33.63.63,0,0,0-.5,0c-.43.22-.86.45-1.29.7L40,73a.66.66,0,0,0-.3.41.62.62,0,0,0,.08.48.69.69,0,0,0,.41.3.65.65,0,0,0,.49-.08q.6-.37,1.2-.72h0c.41-.24.82-.46,1.24-.67a.67.67,0,0,0,.31-.37m3.06,1a.7.7,0,0,0,.34-.36.72.72,0,0,0,0-.5.68.68,0,0,0-.36-.35.62.62,0,0,0-.5,0c-.44.18-.87.38-1.29.59h0l-1.17.6a.58.58,0,0,0-.32.38.61.61,0,0,0,0,.49.58.58,0,0,0,.38.32.72.72,0,0,0,.5,0l1.17-.6h0c.4-.21.8-.4,1.22-.57m23.75-3.94h0c-.45-.09-.91-.17-1.38-.22a.52.52,0,0,0-.47.13.57.57,0,0,0-.25.42.65.65,0,0,0,.13.49.61.61,0,0,0,.43.24,8.82,8.82,0,0,1,1.25.21l0,0a11.44,11.44,0,0,1,1.29.29A.68.68,0,0,0,71.7,71a.69.69,0,0,0,.31-.39A.64.64,0,0,0,72,70.1a.62.62,0,0,0-.39-.31q-.69-.2-1.38-.33M63,69.37a.65.65,0,0,0,.2.47.61.61,0,0,0,.45.18c.43,0,.86,0,1.29,0l1.32.13a.61.61,0,0,0,.48-.13.65.65,0,0,0,.12-.91.6.6,0,0,0-.44-.24q-.69-.09-1.38-.15c-.47,0-.93,0-1.39,0a.58.58,0,0,0-.45.19.6.6,0,0,0-.2.46M67.74,67c-.49-.07-1-.13-1.43-.16a.63.63,0,0,0-.47.16.59.59,0,0,0-.23.44.64.64,0,0,0,.16.47.62.62,0,0,0,.44.23q.66,0,1.35.15c.45.06.91.14,1.38.22a.67.67,0,0,0,.49-.11A.73.73,0,0,0,69.7,68a.6.6,0,0,0-.11-.47.63.63,0,0,0-.42-.28c-.49-.1-1-.17-1.43-.23M58,69.12a.57.57,0,0,0-.15.47.65.65,0,0,0,.24.44.58.58,0,0,0,.48.15l1.28-.12L61.15,70a.6.6,0,0,0,.46-.2.69.69,0,0,0,.18-.47.59.59,0,0,0-.2-.45.66.66,0,0,0-.47-.18l-1.4.06-1.31.12a.65.65,0,0,0-.44.24m.7-2.13a.65.65,0,0,0-.48-.16c-.49,0-1,.09-1.46.16s-.95.13-1.41.21a.59.59,0,0,0-.43.26.65.65,0,0,0-.11.49.56.56,0,0,0,.26.42.68.68,0,0,0,.49.12q.67-.12,1.38-.21c.44-.07.9-.12,1.37-.15a.59.59,0,0,0,.43-.21.65.65,0,0,0,.17-.47.64.64,0,0,0-.21-.46m2.14-.32a.63.63,0,0,0-.44.21.6.6,0,0,0-.18.47.77.77,0,0,0,.22.46.64.64,0,0,0,.47.16c.45,0,.91,0,1.36,0s.93,0,1.4,0a.66.66,0,0,0,.47-.16.7.7,0,0,0,.21-.46.62.62,0,0,0-.16-.47.68.68,0,0,0-.45-.21c-.49,0-1,0-1.47,0s-1,0-1.43,0m-6.26,2.78h0c-.45.08-.88.18-1.3.27a.66.66,0,0,0-.41.3.58.58,0,0,0-.08.48.64.64,0,0,0,.29.41.61.61,0,0,0,.49.08c.42-.1.84-.19,1.27-.27h0c.44-.09.88-.16,1.31-.23a.67.67,0,0,0,.43-.26.63.63,0,0,0,.13-.48.71.71,0,0,0-.26-.43.68.68,0,0,0-.49-.11,13.05,13.05,0,0,0-1.37.23m-6.27.76a.64.64,0,0,0,0-.49.65.65,0,0,0-.34-.37.6.6,0,0,0-.49,0c-.47.17-.94.34-1.38.52a14.3,14.3,0,0,0-1.32.59.65.65,0,0,0-.32.39.57.57,0,0,0,0,.49.56.56,0,0,0,.37.32.6.6,0,0,0,.49,0c.4-.2.81-.38,1.22-.55h0q.66-.28,1.32-.51a.66.66,0,0,0,.36-.34m1.19.59h0c-.41.13-.83.28-1.27.45a.59.59,0,0,0-.35.34.61.61,0,0,0,0,.51.62.62,0,0,0,.34.35.66.66,0,0,0,.5,0c.41-.16.81-.31,1.21-.44s.85-.28,1.28-.39a.74.74,0,0,0,.39-.31.62.62,0,0,0,.07-.48.65.65,0,0,0-.31-.39.58.58,0,0,0-.49-.07c-.47.12-.92.25-1.36.41m1.85-2.72h0q-.69.18-1.38.39a.68.68,0,0,0-.42.81.59.59,0,0,0,.33.39.61.61,0,0,0,.48,0c.44-.14.88-.27,1.32-.38h0c.44-.13.88-.24,1.33-.34a.65.65,0,0,0,.42-.27.58.58,0,0,0,.08-.49.58.58,0,0,0-.27-.41.67.67,0,0,0-.49-.1c-.49.1-1,.22-1.43.36M103,101.28a.54.54,0,0,0-.42.26.59.59,0,0,0-.12.48l.21,1.37c.06.46.1.92.13,1.38a.64.64,0,0,0,.23.44.65.65,0,0,0,.91,0,.6.6,0,0,0,.16-.47c0-.5-.08-1-.14-1.48l-.21-1.4a.66.66,0,0,0-.26-.42.59.59,0,0,0-.49-.11m-.83-5.19a.6.6,0,0,0-.49,0,.64.64,0,0,0-.44.8c.12.44.25.89.38,1.33h0l.36,1.39a.66.66,0,0,0,.8.48.71.71,0,0,0,.4-.3.68.68,0,0,0,.07-.5l-.36-1.4c-.12-.45-.24-.9-.37-1.35a.7.7,0,0,0-.33-.39m-1.76,3.17a.6.6,0,0,0-.39.31.59.59,0,0,0,0,.49c.1.4.2.81.27,1.23v0c.08.43.15.87.23,1.3a.61.61,0,0,0,.24.42.66.66,0,0,0,.49.13.65.65,0,0,0,.42-.26.63.63,0,0,0,.13-.49c-.06-.45-.14-.9-.22-1.34h0c-.09-.47-.19-.94-.31-1.38a.71.71,0,0,0-.31-.39.65.65,0,0,0-.51,0m-1.56-4.91a.65.65,0,0,0-.35.36.6.6,0,0,0,0,.49c.16.39.32.79.47,1.22l0,0c.14.42.27.85.39,1.27a.69.69,0,0,0,.31.39.64.64,0,0,0,.49.06.69.69,0,0,0,.39-.31.59.59,0,0,0,.06-.48c-.13-.45-.26-.89-.4-1.34h0l-.49-1.27a.7.7,0,0,0-.34-.36.74.74,0,0,0-.51,0m1.66-3a.65.65,0,0,0-.37-.34.69.69,0,0,0-.49,0,.64.64,0,0,0-.34.38.72.72,0,0,0,0,.5c.2.4.38.81.55,1.24h0c.19.44.36.86.52,1.29a.61.61,0,0,0,.35.37.66.66,0,0,0,.48,0,.67.67,0,0,0,.38-.34.75.75,0,0,0,0-.51c-.17-.44-.35-.89-.53-1.33s-.37-.88-.59-1.32m-2.31-.16q-.3-.62-.63-1.2a.57.57,0,0,0-.39-.31.56.56,0,0,0-.49,0,.59.59,0,0,0-.31.39.67.67,0,0,0,0,.5c.21.38.41.76.6,1.15l0,0c.18.38.36.77.52,1.17a.66.66,0,0,0,.34.36.8.8,0,0,0,.51,0,.72.72,0,0,0,.35-.36.69.69,0,0,0,0-.49,11.43,11.43,0,0,0-.59-1.28v0M81.54,74.41a.66.66,0,0,0,.06-.51.63.63,0,0,0-.31-.39c-.4-.23-.81-.44-1.23-.65l0,0c-.42-.22-.84-.41-1.27-.59a.65.65,0,0,0-.51,0,.63.63,0,0,0-.32.84.53.53,0,0,0,.36.34c.38.16.75.34,1.13.54l1.19.62a.6.6,0,0,0,.49.06.65.65,0,0,0,.39-.3m3.09,1.08h0c-.38-.24-.77-.48-1.17-.71a.56.56,0,0,0-.49-.07.65.65,0,0,0-.39.3.54.54,0,0,0-.06.48.64.64,0,0,0,.29.41c.38.22.75.45,1.12.68h0l1.07.78a.64.64,0,0,0,.49.13.67.67,0,0,0,.42-.26.62.62,0,0,0,.13-.47.67.67,0,0,0-.26-.44c-.37-.28-.74-.56-1.12-.82m.19-2.06a.67.67,0,0,0-.29-.41c-.4-.25-.81-.49-1.24-.73s-.84-.48-1.25-.7a.67.67,0,0,0-.5,0,.65.65,0,0,0-.38.33.59.59,0,0,0,0,.49.65.65,0,0,0,.32.39c.4.2.8.43,1.2.66s.81.47,1.21.72a.58.58,0,0,0,.48.08.64.64,0,0,0,.41-.29.57.57,0,0,0,.08-.49M97.53,86.19a.63.63,0,0,0-.48.1.6.6,0,0,0-.28.41.63.63,0,0,0,.1.48c.25.38.48.77.7,1.16s.46.83.68,1.25a.64.64,0,0,0,.37.31.69.69,0,0,0,.49,0,.72.72,0,0,0,.33-.38.67.67,0,0,0,0-.5c-.22-.44-.46-.86-.69-1.29s-.49-.83-.75-1.23a.66.66,0,0,0-.43-.28m-3.88-.44a.6.6,0,0,0,.11.47c.26.35.51.7.75,1.06s.49.76.72,1.14a.56.56,0,0,0,.39.29.73.73,0,0,0,.5-.06.67.67,0,0,0,.29-.41.64.64,0,0,0-.06-.49c-.24-.39-.49-.78-.75-1.18h0c-.25-.39-.51-.77-.8-1.14a.59.59,0,0,0-.42-.24.61.61,0,0,0-.49.11.63.63,0,0,0-.24.44m-.08-3.43a.65.65,0,0,0,.14.49c.29.35.57.7.85,1.07h0q.42.56.84,1.14a.62.62,0,0,0,.42.26.76.76,0,0,0,.49-.11.66.66,0,0,0,.15-.91c-.29-.4-.59-.79-.88-1.17S95,82.34,94.72,82a.65.65,0,0,0-.44-.24.57.57,0,0,0-.47.14.67.67,0,0,0-.24.44m-2-.91a.64.64,0,0,0-.47-.19.65.65,0,0,0-.65.65.64.64,0,0,0,.19.47c.31.3.6.62.88.94v0c.27.33.55.67.83,1a.61.61,0,0,0,.42.24.67.67,0,0,0,.49-.13.65.65,0,0,0,.24-.44.59.59,0,0,0-.13-.48l-.86-1v0c-.31-.36-.62-.69-.93-1m-1.64-2.92a.68.68,0,0,0,.21.45l1,.91v0c.33.33.65.67,1,1a.65.65,0,0,0,.91,0,.68.68,0,0,0,.21-.45A.67.67,0,0,0,93,80l-1-1.07h0c-.35-.34-.69-.65-1-1a.6.6,0,0,0-.47-.18.62.62,0,0,0-.44.21.6.6,0,0,0-.18.48m-1.12.19h0c-.35-.29-.69-.57-1-.84a.56.56,0,0,0-.49-.13.64.64,0,0,0-.55.71.67.67,0,0,0,.24.44l1,.8s0,0,0,0c.33.3.64.59.94.9a.63.63,0,0,0,.46.18A.62.62,0,0,0,90,80.1a.62.62,0,0,0-.18-.46c-.32-.33-.67-.64-1-1m-.9-3.35h0c-.38-.3-.76-.57-1.15-.83a.66.66,0,0,0-.49-.1.59.59,0,0,0-.42.28.62.62,0,0,0-.1.48.57.57,0,0,0,.28.41l1.09.8,1.1.87a.57.57,0,0,0,.47.15.68.68,0,0,0,.44-.23.62.62,0,0,0,.15-.49.68.68,0,0,0-.23-.43q-.57-.47-1.14-.9m-12.6-4.48v0c-.46-.14-.9-.27-1.34-.37a.51.51,0,0,0-.48.06.56.56,0,0,0-.3.39.59.59,0,0,0,.07.5.62.62,0,0,0,.39.3,12.36,12.36,0,0,1,1.25.35h0c.42.15.83.3,1.24.48a.72.72,0,0,0,.5,0,.66.66,0,0,0,.35-.85.7.7,0,0,0-.36-.36l-1.29-.48M75,69.32a.65.65,0,0,0,0-.51.61.61,0,0,0-.37-.32c-.49-.15-1-.29-1.43-.41s-.93-.24-1.38-.34a.63.63,0,0,0-.49.1.58.58,0,0,0-.29.4.57.57,0,0,0,.09.49.68.68,0,0,0,.41.28c.44.1.89.2,1.33.32s.9.24,1.35.39a.6.6,0,0,0,.49,0,.64.64,0,0,0,.32-.37m2,0a.65.65,0,0,0-.81.88.65.65,0,0,0,.37.34c.44.15.87.32,1.29.49l1.27.57a.62.62,0,0,0,.5,0A.66.66,0,0,0,80,71.3a.69.69,0,0,0,0-.49.62.62,0,0,0-.34-.37c-.45-.22-.88-.42-1.32-.6h0Z"/></g><g id="Layer1_4_MEMBER_0_MEMBER_1_MEMBER_1_FILL" data-name="Layer1 4 MEMBER 0 MEMBER 1 MEMBER 1 FILL"><path class="cls-10" d="M71.54,102.56l-8.7-.29-.26,0h-.35a6.56,6.56,0,0,0-5.55,10,6.57,6.57,0,0,0,.93,1.13q.16.16,5.69,6.51a11.19,11.19,0,0,0,10.09-11.14,10.72,10.72,0,0,0-1.85-6.21m0,0a12.15,12.15,0,0,0-1.41-1.69,11.17,11.17,0,1,0-7.9,19.07c.35,0,.71,0,1.05,0l.17.18-.15-.18q-5.53-6.34-5.69-6.51a6.57,6.57,0,0,1-.93-1.13,6.55,6.55,0,0,1,5.55-10h.35l.26,0Z"/></g><path id="Layer1_4_MEMBER_0_MEMBER_1_MEMBER_1_1_STROKES" data-name="Layer1 4 MEMBER 0 MEMBER 1 MEMBER 1 1 STROKES" class="cls-3" d="M71.54,102.56l39.26,1.38.21,0a7.33,7.33,0,0,1,5.15,2.23,7.73,7.73,0,0,1,0,10.92,7.33,7.33,0,0,1-2.91,1.85c-.28.1-.56.18-.84.25L60.5,133.51m2.8-13.6q-5.53-6.34-5.69-6.51a6.57,6.57,0,0,1-.93-1.13,6.55,6.55,0,0,1,5.55-10h.35l.26,0,8.7.29M63.3,119.91l.15.18.26.29m-.43-.47.17.18m-.64,2.3-6,8.86"/><path id="Layer1_4_MEMBER_0_MEMBER_2_1_STROKES" data-name="Layer1 4 MEMBER 0 MEMBER 2 1 STROKES" class="cls-3" d="M198.4,76.65l.27-1m5.6,2.56.26-1m-22.93,1-.28-1m6.13-.6-.26-1m26.51,8,.75-.71M225,103.28l1-.25m-2.58-5.62,1-.26M218,88l.75-.71m-46.61-3.58-.71-.7m-10.62,20.34-1-.26m2.55-5.63-1-.26M167.84,88l-.7-.72m-6.32,26.92-1,.3m2.55,5.59-1,.28m10.73,13.49-.71.7m-3.6-5-.68.71m57.89-16.06,1,.28m-12.32,19.36.73.73m3.56-5,.73.75m4.73-10.19,1,.27m-26.08,20.52.26,1m-11.15-1-.26,1m-5.61-2.57-.26,1m22.89-1,.26,1"/><path id="Layer1_4_MEMBER_0_MEMBER_2_2_STROKES" data-name="Layer1 4 MEMBER 0 MEMBER 2 2 STROKES" class="cls-4" d="M181.6,78.23,187,98.56l4.34,4.34,1.56-5.83-5.48-20.44m11,0-5.47,20.42,1.57,5.83,4.31-4.29,5.46-20.38M218,88l-14.87,14.91,20.32-5.46m-24.65,1.2L213.7,83.67m-17,22.94.58-2.16-2.18.58.34,1.24,1.26.34,2.14.57,4.33-4.31-5.89,1.58,1.56-5.84m-5.09,7.2,0,0,.76.19-.67-.66-.94.24.76.21h.05l-.78,2.94,2.13-2.14-.55-.59.89.25.23.91.68.7.35-1.27m-1.6,0,.05.06.52.51.2.73a.13.13,0,0,0,0,.06v0l.21.83.26-1,.9.87,1.59-1.57,5.84,1.56L225,103.28m-30,1.75-.57-2.13-1.56,1.56.91.9Zm1,3.82-.17.65v0s0,0,0,0l-.2.74.64-.64Zm-2.35,2.83h0l-.78.21,1,.26.66-.68-.71.21h-.08l-.77-2.93-.79,3h0l.71.18-.86.25.91.91.9-.9,1.25.34.34-1.25-.93.23.59-.57-2.15-2.15L190,108s0,0,0,0l-.21.83.16.65,0,.06,3-.8-2.16-2.14-.55.57-.21.75v0m5.41,3.27.24-.92-.55.55,0,0m2.13-2.15,1.58,1.58,5.85-1.59,20.4,5.46m-27.83-5.45-.91.93.32,1.22,2.17-.57,4.32,4.31,20.35,5.45m-28.38-7.6,2.13.57-.59-2.16-1.2.34M218,129.53l-14.89-14.89-5.9-1.58,1.56,5.82,14.94,15m-9.48,5.46-5.46-20.42-4.26-4.26-1.59,5.94,5.44,20.32m-3.28-28.39-.57,2.13-1.58-1.57-1.59,1.61,1.58,5.9-5.45,20.32m3.89-38L190.8,105l1.23.33.91-.9Zm.66,2.46.88.24-.71.2s-.06,0-.07,0l.81,3,2.91-.78m-5.07-1.36.07,0,.55-.55-.93.26-.24.91-.7.68.26,1-.24.84.6.62-.17-.68v-.07m2.05-4.19-.63.65.7-.18,0,0m-1.66.47.33-1.24-2.18-.58.58,2.14Zm-1.85-1.82-5.82-1.56,4.26,4.29,2.14-.59.33,1.27-.9.89.92.93-.33,1.24,1.2.32-.27-.94.63.62,2.16-2.17,2.95.8m-7.26-.8-1.57-1.57-5.92,1.57,5.92,1.58Zm.59,2.17-2.16-.59-4.24,4.28,5.85-1.56Zm1.2.32,1,.26-.52-.57h-.07m1.37.78h-.05l-.73-.2.66.64-1.27.34.59,2.18-4.28,4.25-5.46,20.39m-9.46-5.46,14.92-14.93,1.6-5.86,2.09-.57-.34-1.24M172.15,83.67,187,98.56l1.59,5.89m-26.22-7,20.4,5.47L167.84,88m0,41.57,15-14.94-20.42,5.46m-1.58-5.89,20.32-5.43-20.32-5.44"/><g id="Layer1_4_MEMBER_0_MEMBER_3_FILL" data-name="Layer1 4 MEMBER 0 MEMBER 3 FILL"><path class="cls-5" d="M192.94,67.29l-1.4,0a40.13,40.13,0,0,0-15.29,3.35,40.84,40.84,0,0,0-12.63,8.76,39.93,39.93,0,0,0-12.15,29.32,41.5,41.5,0,0,0,41.47,41.47,41.52,41.52,0,0,0,41.47-41.47,39.9,39.9,0,0,0-12.16-29.32,39.71,39.71,0,0,0-27.1-12.08q-.39,0-.78,0c-.47,0-1,0-1.43,0m0,6c.75,0,1.49,0,2.21.06a35.53,35.53,0,0,1,33.28,35.42,35.5,35.5,0,0,1-60.59,25.1,35.51,35.51,0,0,1,0-50.18,36.59,36.59,0,0,1,8.41-6.34A34.47,34.47,0,0,1,192.94,73.27Z"/><path class="cls-7" d="M195.15,73.33c-.72,0-1.46-.06-2.21-.06a34.47,34.47,0,0,0-16.69,4.06,36.59,36.59,0,0,0-8.41,6.34,35.51,35.51,0,0,0,0,50.18,35.5,35.5,0,0,0,60.59-25.1,35.53,35.53,0,0,0-33.28-35.42m-2.22,2.31c.74,0,1.49,0,2.22.07a33.15,33.15,0,0,1,30.87,33,33.1,33.1,0,0,1-56.5,23.41,33.1,33.1,0,0,1,0-46.8,34,34,0,0,1,6.73-5.29A32,32,0,0,1,192.93,75.64Z"/><path class="cls-10" d="M192.93,97.6a11.15,11.15,0,1,0,7.9,3.27A10.74,10.74,0,0,0,192.93,97.6Z"/></g><g id="Layer1_4_MEMBER_0_MEMBER_3_MEMBER_0_FILL" data-name="Layer1 4 MEMBER 0 MEMBER 3 MEMBER 0 FILL"><path class="cls-9" d="M210.32,145.85a.69.69,0,0,0-.49,0c-.41.2-.83.38-1.25.56l-1.3.52a.56.56,0,0,0-.37.32.64.64,0,0,0,0,.51.58.58,0,0,0,.33.37.78.78,0,0,0,.5,0l1.37-.54h0c.44-.17.89-.37,1.33-.59a.67.67,0,0,0,.33-.37.64.64,0,0,0,0-.49.65.65,0,0,0-.37-.34m.81-2.88-1.15.61h0c-.39.19-.78.36-1.17.52a.59.59,0,0,0-.35.34.61.61,0,0,0,0,.51.66.66,0,0,0,.34.36.72.72,0,0,0,.5,0c.44-.17.87-.37,1.29-.58h0l1.21-.64a.63.63,0,0,0,.24-.88.59.59,0,0,0-.39-.3.6.6,0,0,0-.49,0m4.3.59a.7.7,0,0,0-.43-.28.67.67,0,0,0-.49.1c-.37.25-.75.48-1.13.7s-.84.47-1.25.68a.57.57,0,0,0-.33.38.68.68,0,0,0,.42.81.75.75,0,0,0,.51,0l1.28-.7c.41-.24.82-.49,1.22-.75a.7.7,0,0,0,.28-.42.75.75,0,0,0-.08-.49m.48-3.41a.55.55,0,0,0-.48.11q-.52.39-1.05.75h0l-1.12.71a.57.57,0,0,0-.31.39.62.62,0,0,0,.08.51.6.6,0,0,0,.39.29.68.68,0,0,0,.5-.07c.38-.23.77-.48,1.17-.74s.76-.52,1.13-.8a.72.72,0,0,0,.26-.42.69.69,0,0,0-.13-.49.61.61,0,0,0-.43-.24m3.77,1.07a.7.7,0,0,0,.23-.44.6.6,0,0,0-.14-.47.73.73,0,0,0-.44-.25.56.56,0,0,0-.47.15l-1.08.85h0l-1.14.85a.59.59,0,0,0-.26.42.66.66,0,0,0,.54.75.72.72,0,0,0,.49-.12l1.17-.87c.37-.29.74-.58,1.1-.88m.12-4.33a.6.6,0,0,0-.46.2c-.31.3-.63.6-.94.88h0c-.34.27-.69.54-1,.83a.55.55,0,0,0-.23.42.64.64,0,0,0,.55.73.64.64,0,0,0,.49-.13l1.06-.86s0,0,0,0c.35-.3.68-.61,1-.92a.68.68,0,0,0,.18-.48.61.61,0,0,0-.18-.45.65.65,0,0,0-.47-.2m2.92,1.61h0l1-1a.6.6,0,0,0,.16-.47.63.63,0,0,0-.21-.44.6.6,0,0,0-.47-.18.65.65,0,0,0-.44.22l-.93,1-1,1a.63.63,0,0,0-.21.44.58.58,0,0,0,.18.47.63.63,0,0,0,.44.21.58.58,0,0,0,.47-.16c.37-.33.73-.67,1.07-1m-30.67,9.16a.58.58,0,0,0-.46-.22c-.43,0-.86,0-1.28-.06h0c-.44,0-.88,0-1.31-.1a.64.64,0,0,0-.72.55.59.59,0,0,0,.13.49.68.68,0,0,0,.44.25c.46.05.92.09,1.38.11l1.35.07a.66.66,0,0,0,.47-.18.6.6,0,0,0,.2-.46.64.64,0,0,0-.18-.45m-6.24,1.43a.57.57,0,0,0-.28.42.66.66,0,0,0,.1.49.68.68,0,0,0,.42.27c.46.08.93.15,1.43.21s.93.12,1.43.17a.65.65,0,0,0,.7-.59.67.67,0,0,0-.58-.71l-1.37-.15h0c-.46-.06-.91-.14-1.35-.21a.62.62,0,0,0-.48.1M181,147.77a.63.63,0,0,0-.5,0,.6.6,0,0,0-.31.39.61.61,0,0,0,.05.49.65.65,0,0,0,.39.32c.47.14.93.27,1.4.39h0c.47.13.94.25,1.42.34a.62.62,0,0,0,.48-.08.67.67,0,0,0,.28-.4.59.59,0,0,0-.08-.49.64.64,0,0,0-.41-.29c-.44-.1-.89-.21-1.33-.33h0l-1.35-.39m4.25-1.06c-.44-.08-.87-.18-1.3-.29a.65.65,0,0,0-.8.49.61.61,0,0,0,.08.49.64.64,0,0,0,.41.29L185,148v0c.43.09.87.17,1.33.24a.64.64,0,0,0,.49-.13.63.63,0,0,0,.13-.91.61.61,0,0,0-.43-.24c-.43-.06-.85-.14-1.26-.23m20,1.11a.59.59,0,0,0-.49,0l-1.31.37h0l-1.4.36a.55.55,0,0,0-.39.3.57.57,0,0,0-.07.49.57.57,0,0,0,.3.41.62.62,0,0,0,.48.06l1.4-.35h0l1.33-.38a.65.65,0,0,0,.39-.32.66.66,0,0,0,.07-.49.7.7,0,0,0-.33-.39m-1-.68,1.33-.41c.45-.15.88-.31,1.3-.49a.6.6,0,0,0,.36-.34.6.6,0,0,0,0-.49.66.66,0,0,0-.83-.37l-1.25.45h0l-1.27.39a.63.63,0,0,0-.39.31.57.57,0,0,0-.07.49.69.69,0,0,0,.31.39.65.65,0,0,0,.49.07m-7.9,2.4a.62.62,0,0,0-.16.47.67.67,0,0,0,.7.6c.48,0,1-.08,1.48-.14l1.39-.21a.71.71,0,0,0,.43-.26.77.77,0,0,0,.11-.49.6.6,0,0,0-.26-.42.62.62,0,0,0-.49-.12l-1.36.21c-.47.06-.93.1-1.38.13a.63.63,0,0,0-.46.23m-2.06,1.27a.68.68,0,0,0,.45-.21.65.65,0,0,0-.05-.91.58.58,0,0,0-.47-.18c-.45,0-.91,0-1.36,0s-.94,0-1.4,0a.58.58,0,0,0-.47.18.67.67,0,0,0-.22.44.6.6,0,0,0,.18.47.63.63,0,0,0,.44.21q.74,0,1.47,0l1.43,0m3-3a.61.61,0,0,0-.24-.42.6.6,0,0,0-.49-.13l-1.28.11-1.32.05a.57.57,0,0,0-.46.21.65.65,0,0,0-.18.46.55.55,0,0,0,.22.45.6.6,0,0,0,.45.18l1.37,0h0c.46,0,.91-.07,1.35-.13a.65.65,0,0,0,.44-.24.68.68,0,0,0,.13-.49m1.27-.6a.6.6,0,0,0-.12.49.66.66,0,0,0,.25.42.67.67,0,0,0,.49.13c.45-.07.91-.14,1.36-.23h0c.46-.08.92-.19,1.36-.31a.63.63,0,0,0,.39-.31.68.68,0,0,0,.07-.5.71.71,0,0,0-.31-.39.65.65,0,0,0-.51-.05c-.4.11-.8.2-1.22.28h0l-1.32.23a.61.61,0,0,0-.42.24m26.66-13.69h0l-.9,1.11a.56.56,0,0,0-.15.47.73.73,0,0,0,.25.44.54.54,0,0,0,.47.14.69.69,0,0,0,.44-.22l.91-1.14c.29-.38.57-.77.83-1.16a.69.69,0,0,0,.11-.48.67.67,0,0,0-.27-.43.66.66,0,0,0-.49-.09.56.56,0,0,0-.42.27l-.8,1.09m-4.2,1.79a.59.59,0,0,0-.19.46.64.64,0,0,0,.19.47.63.63,0,0,0,.46.18.67.67,0,0,0,.47-.18c.32-.33.63-.67.94-1h0l.85-1a.74.74,0,0,0,.13-.49.61.61,0,0,0-.25-.42.56.56,0,0,0-.49-.13.61.61,0,0,0-.42.24l-.81,1v0q-.44.5-.9,1m4-5c-.26.37-.52.73-.78,1.07a.66.66,0,0,0-.11.49.61.61,0,0,0,.24.43.7.7,0,0,0,.49.13.69.69,0,0,0,.42-.26c.29-.37.56-.75.82-1.13h0q.36-.57.72-1.17a.6.6,0,0,0,.06-.49.63.63,0,0,0-.31-.39.55.55,0,0,0-.48-.07.57.57,0,0,0-.39.3c-.23.38-.46.74-.69,1.1m4.72-2.73a.65.65,0,0,0-.51,0,.6.6,0,0,0-.37.33c-.22.4-.44.8-.67,1.2s-.48.8-.73,1.2a.61.61,0,0,0-.08.49.67.67,0,0,0,.29.41.66.66,0,0,0,.49.08.67.67,0,0,0,.41-.29l.75-1.24c.23-.42.47-.84.69-1.25a.69.69,0,0,0,0-.51.64.64,0,0,0-.31-.37m-2.81-.5a.54.54,0,0,0-.05.48.54.54,0,0,0,.31.39.62.62,0,0,0,.87-.24c.23-.4.45-.81.65-1.23h0a13.25,13.25,0,0,0,.57-1.27.63.63,0,0,0-.35-.84.64.64,0,0,0-.51,0,.63.63,0,0,0-.34.36,11.51,11.51,0,0,1-.52,1.14h0l-.61,1.19m4.94-4.49a.65.65,0,0,0-.51,0,.56.56,0,0,0-.32.37c-.16.43-.33.86-.51,1.28s-.37.85-.56,1.27a.61.61,0,0,0,0,.51.55.55,0,0,0,.32.35.62.62,0,0,0,.87-.3q.32-.67.6-1.32v0c.17-.44.34-.89.52-1.33a.72.72,0,0,0,0-.5.55.55,0,0,0-.37-.33m-1.21-3a.55.55,0,0,0-.48.07.52.52,0,0,0-.3.39c-.1.41-.23.82-.37,1.25l0,0c-.15.41-.32.82-.49,1.24a.62.62,0,0,0,0,.5.63.63,0,0,0,.36.34.62.62,0,0,0,.5,0,.6.6,0,0,0,.34-.36c.18-.43.34-.86.51-1.28v0c.14-.45.27-.9.39-1.33a.65.65,0,0,0-.07-.49.58.58,0,0,0-.41-.29m1.13-5a.54.54,0,0,0-.47.13.53.53,0,0,0-.25.42,10.74,10.74,0,0,1-.23,1.26v0c-.08.43-.18.86-.29,1.28a.58.58,0,0,0,.07.49.65.65,0,0,0,.39.31.67.67,0,0,0,.79-.46q.18-.67.33-1.38l0,0c.1-.46.18-.92.25-1.38a.69.69,0,0,0-.13-.48.6.6,0,0,0-.44-.24m-67.65,24.92a.65.65,0,0,0,.91,0,.65.65,0,0,0,.17-.47.64.64,0,0,0-.21-.45c-.35-.31-.68-.62-1-.93s-.65-.67-.95-1a.62.62,0,0,0-.44-.23.63.63,0,0,0-.48.17.61.61,0,0,0-.22.45.63.63,0,0,0,.16.47c.32.37.66.73,1,1.08s.67.65,1,1m13.12,6.94h0c-.44-.18-.88-.37-1.3-.57a.6.6,0,0,0-.49,0,.56.56,0,0,0-.37.32.65.65,0,0,0,0,.51.57.57,0,0,0,.33.35c.44.22.89.42,1.35.61l1.33.52a.75.75,0,0,0,.49,0,.69.69,0,0,0,.34-.37.74.74,0,0,0,0-.51.64.64,0,0,0-.37-.32c-.45-.17-.88-.33-1.29-.51m.93-1.17a.65.65,0,0,0,0,.51.67.67,0,0,0,.36.34l1.3.49h0c.41.15.83.29,1.27.42a.68.68,0,0,0,.5-.07.61.61,0,0,0,.31-.39.66.66,0,0,0-.06-.48.57.57,0,0,0-.39-.31c-.4-.12-.81-.25-1.21-.39v0c-.42-.14-.83-.29-1.25-.46a.69.69,0,0,0-.49,0,.64.64,0,0,0-.36.36m-7.41-2a.66.66,0,0,0-.41.3.58.58,0,0,0-.08.48.64.64,0,0,0,.29.41c.4.25.81.5,1.24.75h0l1.24.68a.64.64,0,0,0,.49.07.71.71,0,0,0,.39-.31.7.7,0,0,0,.06-.51.67.67,0,0,0-.31-.39l-1.23-.68v0l-1.21-.74a.62.62,0,0,0-.48-.08m-2.73-2.14c-.38-.3-.75-.59-1.11-.9a.61.61,0,0,0-.49-.14.67.67,0,0,0-.44.24.57.57,0,0,0-.14.47.65.65,0,0,0,.24.44c.37.3.75.61,1.14.91s.75.57,1.15.83a.65.65,0,0,0,.49.11.68.68,0,0,0,.41-.27.71.71,0,0,0,.11-.49.68.68,0,0,0-.27-.42c-.37-.26-.74-.53-1.09-.8v0m1.62-1.14a.57.57,0,0,0-.42.24.58.58,0,0,0-.13.49.59.59,0,0,0,.24.42,13.26,13.26,0,0,0,1.16.8c.35.25.73.5,1.13.75a.65.65,0,0,0,.51.08.66.66,0,0,0,.39-.29.61.61,0,0,0,.08-.49.67.67,0,0,0-.29-.41c-.38-.23-.73-.46-1.06-.7l-.05,0a12.87,12.87,0,0,1-1.07-.75.62.62,0,0,0-.49-.11m-1.35-.47a.68.68,0,0,0,.13-.49.69.69,0,0,0-.24-.42,11,11,0,0,1-1-.83l-.05,0c-.32-.27-.65-.56-1-.87a.63.63,0,0,0-.46-.19.6.6,0,0,0-.46.19.65.65,0,0,0-.19.48.61.61,0,0,0,.19.45,12.66,12.66,0,0,0,1,.91,13.18,13.18,0,0,0,1.05.91.62.62,0,0,0,.47.13.65.65,0,0,0,.44-.24m5.24,3.56a.59.59,0,0,0-.05.5.58.58,0,0,0,.31.38q.61.33,1.23.63h0l1.22.59a.66.66,0,0,0,.48,0,.64.64,0,0,0,.38-.34.72.72,0,0,0,0-.5.56.56,0,0,0-.34-.36l-1.17-.57-1.19-.6a.55.55,0,0,0-.48-.05.56.56,0,0,0-.39.31m-21.3-30.37a.64.64,0,0,0-.21-.45.65.65,0,0,0-.47-.17.63.63,0,0,0-.46.23.62.62,0,0,0-.16.47c0,.49.09,1,.16,1.47s.13.93.21,1.41a.63.63,0,0,0,.26.42.71.71,0,0,0,.49.12.66.66,0,0,0,.42-.26.74.74,0,0,0,.12-.49q-.12-.7-.21-1.38c-.07-.46-.12-.91-.15-1.37m-1.27-5.85a.62.62,0,0,0-.21.44c0,.49,0,1,0,1.46s0,1,0,1.43a.7.7,0,0,0,.21.46.62.62,0,0,0,.47.16.68.68,0,0,0,.46-.21.62.62,0,0,0,.16-.47c0-.46,0-.91,0-1.37s0-.93,0-1.4a.62.62,0,0,0-.16-.47.68.68,0,0,0-.46-.21.6.6,0,0,0-.47.18m11.37,26.06a.57.57,0,0,0-.48.13.54.54,0,0,0-.24.42.58.58,0,0,0,.13.49c.28.37.58.73.89,1.09v0c.29.34.58.67.9,1a.62.62,0,0,0,.45.2.68.68,0,0,0,.48-.18.62.62,0,0,0,.19-.46.67.67,0,0,0-.18-.47c-.29-.3-.58-.61-.86-.92l-.84-1a.59.59,0,0,0-.44-.23m-3.63-.6a.53.53,0,0,0-.26.42.67.67,0,0,0,.11.49c.29.39.58.77.88,1.15v0q.42.58.87,1.14a.7.7,0,0,0,.44.23.62.62,0,0,0,.49-.15.68.68,0,0,0,.23-.44.57.57,0,0,0-.15-.47c-.28-.35-.56-.72-.84-1.09h0c-.3-.36-.58-.73-.85-1.11a.65.65,0,0,0-.91-.14m1.12-3.27a.56.56,0,0,0-.39-.31.57.57,0,0,0-.49.07.55.55,0,0,0-.3.39.58.58,0,0,0,0,.48c.24.41.5.81.77,1.19l0,0c.23.36.48.73.74,1.09a.74.74,0,0,0,.44.26.65.65,0,0,0,.47-.13.65.65,0,0,0,.13-.92c-.25-.33-.48-.67-.71-1l0,0c-.25-.35-.48-.71-.7-1.09m-3.36-1.43a.61.61,0,0,0-.51.05.56.56,0,0,0-.32.37.59.59,0,0,0,.05.5c.21.43.45.85.7,1.27v0c.23.4.48.8.73,1.2a.65.65,0,0,0,.4.29.57.57,0,0,0,.49-.08.62.62,0,0,0,.29-.4.57.57,0,0,0-.08-.49c-.25-.4-.48-.8-.71-1.19s-.46-.8-.67-1.22a.64.64,0,0,0-.37-.32m.14-3.38a.59.59,0,0,0-.34.35.6.6,0,0,0,0,.49c.18.44.38.86.58,1.29h0c.18.37.39.76.6,1.17a.57.57,0,0,0,.38.31.58.58,0,0,0,.48,0,.66.66,0,0,0,.33-.37.74.74,0,0,0,0-.51c-.21-.41-.41-.8-.61-1.17s-.39-.81-.56-1.22a.7.7,0,0,0-.36-.34.65.65,0,0,0-.51,0m-2.82-1.53a.51.51,0,0,0-.36.34.6.6,0,0,0,0,.49c.16.44.34.89.52,1.35v0c.18.45.37.89.59,1.33a.64.64,0,0,0,.37.33.72.72,0,0,0,.5,0,.65.65,0,0,0,.3-.86c-.2-.42-.38-.83-.56-1.26s-.35-.87-.5-1.3a.56.56,0,0,0-.34-.35.59.59,0,0,0-.5,0m1.13-3.33a.6.6,0,0,0-.39.29.59.59,0,0,0-.06.5c.12.45.25.89.4,1.32,0,0,0,0,0,0,.13.42.28.84.44,1.25a.58.58,0,0,0,.36.36.6.6,0,0,0,.49,0,.63.63,0,0,0,.35-.84c-.15-.39-.29-.79-.42-1.19v0c-.15-.41-.28-.83-.39-1.25a.67.67,0,0,0-.31-.39.53.53,0,0,0-.49-.06m-1.49-.07h0c-.13-.45-.25-.89-.34-1.34a.61.61,0,0,0-.28-.4.65.65,0,0,0-.49-.1.57.57,0,0,0-.4.27.67.67,0,0,0-.1.49c.1.49.22,1,.36,1.43h0q.18.69.39,1.38a.65.65,0,0,0,.32.39.64.64,0,0,0,.49,0,.61.61,0,0,0,.42-.81c-.14-.44-.26-.87-.37-1.32m.42-5a.61.61,0,0,0-.42.24.64.64,0,0,0-.12.49c.06.46.13.92.23,1.38s.18.88.28,1.3a.64.64,0,0,0,.29.41.57.57,0,0,0,.49.08.62.62,0,0,0,.4-.29.6.6,0,0,0,.09-.49c-.1-.42-.19-.84-.28-1.27l0,0c-.09-.46-.17-.9-.23-1.33a.67.67,0,0,0-.26-.43.65.65,0,0,0-.49-.11m.33-3.17c0-.45-.06-.9-.07-1.33a.59.59,0,0,0-.19-.46.74.74,0,0,0-.48-.18.55.55,0,0,0-.45.22.64.64,0,0,0-.18.45c0,.46,0,.92.06,1.4s.08.87.12,1.32a.65.65,0,0,0,.24.43.57.57,0,0,0,.47.15.68.68,0,0,0,.44-.23.62.62,0,0,0,.15-.49c0-.42-.08-.85-.11-1.28m.13-6.39a.64.64,0,0,0-.13-.47.6.6,0,0,0-.44-.24.51.51,0,0,0-.47.13.53.53,0,0,0-.25.44c-.06.45-.11.91-.13,1.38s-.05.89-.06,1.35a.67.67,0,0,0,.18.47.57.57,0,0,0,.45.19.71.71,0,0,0,.47-.18.58.58,0,0,0,.2-.45c0-.43,0-.86.06-1.28v0c0-.45.06-.88.12-1.32m.35-5.79a.67.67,0,0,0-.79.49c-.11.45-.21.9-.3,1.37v0c-.08.44-.16.88-.22,1.33a.58.58,0,0,0,.11.49.67.67,0,0,0,.42.26.64.64,0,0,0,.49-.13.67.67,0,0,0,.26-.42c0-.43.13-.86.21-1.27h0c.07-.43.17-.87.27-1.3a.59.59,0,0,0-.08-.5.65.65,0,0,0-.39-.3m2-4.55a.62.62,0,0,0-.36-.35.64.64,0,0,0-.84.35c-.18.44-.33.87-.47,1.3a0,0,0,0,0,0,0c-.15.41-.29.83-.41,1.26a.69.69,0,0,0,.05.51.71.71,0,0,0,.39.31.7.7,0,0,0,.51-.07.6.6,0,0,0,.3-.39,11.25,11.25,0,0,1,.4-1.2v0c.14-.41.29-.83.45-1.25a.6.6,0,0,0,0-.49m-.93-3.05a.64.64,0,0,0-.34-.38.6.6,0,0,0-.49,0,.59.59,0,0,0-.37.32q-.33.68-.6,1.35c-.17.43-.34.88-.5,1.33a.6.6,0,0,0,0,.49.66.66,0,0,0,.36.34.72.72,0,0,0,.5,0,.67.67,0,0,0,.34-.38c.16-.44.32-.87.49-1.28v0c.19-.45.38-.88.57-1.31a.58.58,0,0,0,0-.48m1.89-1.68c-.23.41-.44.83-.63,1.24v0c-.2.4-.39.81-.57,1.22a.6.6,0,0,0,0,.49.57.57,0,0,0,.34.37.69.69,0,0,0,.49,0,.65.65,0,0,0,.37-.34c.18-.4.36-.79.56-1.17s.39-.8.6-1.19a.65.65,0,0,0-.75-.93.63.63,0,0,0-.39.31M164.32,81a.59.59,0,0,0-.46.19,12.83,12.83,0,0,0-.93,1c-.31.34-.61.69-.89,1.06a.55.55,0,0,0-.13.47.6.6,0,0,0,.24.44.62.62,0,0,0,.47.13.75.75,0,0,0,.44-.25,10.43,10.43,0,0,1,.82-1l0,0c.27-.33.56-.65.88-1a.64.64,0,0,0,.18-.45.6.6,0,0,0-.2-.46.61.61,0,0,0-.45-.19m-4.57,5.39c-.26.36-.52.74-.77,1.14a.67.67,0,0,0-.08.5.64.64,0,0,0,.29.39.65.65,0,0,0,.51.09.72.72,0,0,0,.39-.3,10.68,10.68,0,0,1,.71-1,.06.06,0,0,1,0,0,13,13,0,0,1,.75-1.08.65.65,0,0,0,.13-.48.62.62,0,0,0-.26-.43A.58.58,0,0,0,161,85a.66.66,0,0,0-.44.25,12.9,12.9,0,0,0-.78,1.15m-1.35.26a.66.66,0,0,0-.29-.4.62.62,0,0,0-.49-.09.7.7,0,0,0-.41.3c-.25.4-.49.81-.73,1.23l0,0c-.22.41-.45.82-.68,1.23a.6.6,0,0,0-.05.49.59.59,0,0,0,.31.39.65.65,0,0,0,.49.07.71.71,0,0,0,.39-.31l.68-1.24q.35-.6.72-1.2a.64.64,0,0,0,.08-.49m1.12-3.53h0c-.29.37-.57.76-.83,1.16a.63.63,0,0,0-.09.49.57.57,0,0,0,.27.4.7.7,0,0,0,.49.12.74.74,0,0,0,.41-.28c.26-.37.52-.73.79-1.09s.58-.75.88-1.1a.63.63,0,0,0,.15-.49.68.68,0,0,0-.23-.44.62.62,0,0,0-.49-.15.69.69,0,0,0-.44.25c-.3.37-.6.74-.89,1.13m5.77-4.63a.67.67,0,0,0-.6-.7.62.62,0,0,0-.47.17c-.38.32-.74.66-1.07,1s-.67.68-1,1.06a.65.65,0,0,0,.54,1.07.63.63,0,0,0,.44-.21c.3-.35.62-.68.94-1s.66-.66,1-1a.62.62,0,0,0,.21-.44m2.18,1h0c.33-.3.67-.58,1-.85a.65.65,0,0,0,.24-.44.63.63,0,0,0-.57-.71.53.53,0,0,0-.48.13c-.37.28-.73.58-1.08.89s-.66.58-1,.89a.63.63,0,0,0-.19.46.67.67,0,0,0,.18.47.62.62,0,0,0,.45.2.66.66,0,0,0,.47-.18l.93-.86m1-5.06c-.4.28-.79.57-1.17.88v0c-.39.28-.76.58-1.12.88a.67.67,0,0,0-.24.44.63.63,0,0,0,.15.49.64.64,0,0,0,.43.22.58.58,0,0,0,.49-.14l1.07-.85h0c.36-.29.73-.57,1.12-.84a.66.66,0,0,0,.15-.91.66.66,0,0,0-.91-.15m2.36.89,0,0c-.37.24-.73.49-1.09.75a.69.69,0,0,0-.13.91.69.69,0,0,0,.44.26.61.61,0,0,0,.47-.13c.34-.25.69-.49,1-.72,0,0,0,0,0,0a12.3,12.3,0,0,1,1.11-.7.71.71,0,0,0,.31-.39.64.64,0,0,0-.07-.49.69.69,0,0,0-.39-.31.6.6,0,0,0-.49,0,11.39,11.39,0,0,0-1.18.76m3-2.6a.63.63,0,0,0,.31-.37.72.72,0,0,0,0-.5.62.62,0,0,0-.38-.33.63.63,0,0,0-.5,0c-.43.22-.86.45-1.29.7l-1.21.73a.66.66,0,0,0-.3.41.62.62,0,0,0,.08.48.69.69,0,0,0,.41.3.65.65,0,0,0,.49-.08q.6-.37,1.2-.72h0c.41-.24.82-.46,1.24-.67m3.37.64a.7.7,0,0,0,.34-.36.72.72,0,0,0,0-.5.68.68,0,0,0-.36-.35.62.62,0,0,0-.5,0c-.44.18-.87.38-1.29.59h0l-1.17.6a.58.58,0,0,0-.32.38.61.61,0,0,0,0,.49.58.58,0,0,0,.38.32.72.72,0,0,0,.5,0l1.17-.6h0c.4-.21.8-.4,1.22-.57m-24.55,28.2a.58.58,0,0,0-.41-.27.65.65,0,0,0-.49.09.6.6,0,0,0-.27.43c-.09.45-.16.93-.21,1.43s-.14.93-.18,1.43a.64.64,0,0,0,.16.47.7.7,0,0,0,.44.23.68.68,0,0,0,.47-.15.7.7,0,0,0,.23-.44c0-.47.1-.92.16-1.36v0q.09-.7.21-1.35a.69.69,0,0,0-.11-.49m-.31-3.75q-.21.69-.36,1.41a.66.66,0,0,0,.1.49.65.65,0,0,0,.41.28.59.59,0,0,0,.48-.09.65.65,0,0,0,.28-.4c.1-.45.21-.89.34-1.34h0q.18-.68.39-1.35a.73.73,0,0,0-.06-.5.56.56,0,0,0-.38-.31.62.62,0,0,0-.5,0,.6.6,0,0,0-.31.4c-.15.46-.28.93-.39,1.39h0m23.21-27.41a.65.65,0,0,0-.32.39.57.57,0,0,0,.05.49.56.56,0,0,0,.37.32.6.6,0,0,0,.49,0c.4-.2.81-.38,1.22-.55h0q.66-.28,1.32-.51a.66.66,0,0,0,.36-.34.64.64,0,0,0,0-.49.65.65,0,0,0-.34-.37.6.6,0,0,0-.49,0c-.47.17-.94.34-1.38.52s-.89.37-1.32.59m56.17,28.87a.63.63,0,0,0-.5,0,.62.62,0,0,0-.44.8c.1.4.2.81.27,1.23v0c.08.43.15.87.23,1.3a.61.61,0,0,0,.24.42.66.66,0,0,0,.49.13.68.68,0,0,0,.55-.75c-.06-.45-.14-.9-.22-1.34h0c-.09-.47-.19-.94-.31-1.38a.71.71,0,0,0-.31-.39m-1.22-4.6a.7.7,0,0,0-.34-.36.74.74,0,0,0-.51,0,.65.65,0,0,0-.35.36.6.6,0,0,0,0,.49c.16.39.32.79.47,1.22l0,0c.14.42.27.85.39,1.27a.69.69,0,0,0,.31.39.64.64,0,0,0,.49.06.69.69,0,0,0,.39-.31.59.59,0,0,0,.06-.48c-.13-.45-.26-.89-.4-1.34h0l-.49-1.27m-3-5a.59.59,0,0,0-.31.39.67.67,0,0,0,0,.5c.21.38.41.76.6,1.15l0,0c.18.38.36.77.52,1.17a.7.7,0,0,0,.34.36.8.8,0,0,0,.51,0,.72.72,0,0,0,.35-.36.69.69,0,0,0,0-.49,11.43,11.43,0,0,0-.59-1.28v0q-.3-.62-.63-1.2a.57.57,0,0,0-.39-.31.56.56,0,0,0-.49,0m3,1.31a.64.64,0,0,0-.34.38.72.72,0,0,0,0,.5c.2.4.38.81.55,1.24h0c.19.44.36.86.53,1.29a.57.57,0,0,0,.34.37.66.66,0,0,0,.48,0,.67.67,0,0,0,.38-.34.75.75,0,0,0,0-.51c-.17-.44-.35-.89-.53-1.33s-.37-.88-.59-1.32a.65.65,0,0,0-.37-.34.69.69,0,0,0-.49,0M210.76,72.86l0,0c-.42-.22-.84-.41-1.27-.59a.65.65,0,0,0-.51,0,.63.63,0,0,0-.32.84.53.53,0,0,0,.36.34c.38.16.76.34,1.13.54l1.19.62a.6.6,0,0,0,.49.06.66.66,0,0,0,.15-1.2c-.41-.23-.82-.44-1.24-.65m2.5,2.15a.54.54,0,0,0-.06.48.64.64,0,0,0,.29.41c.38.22.75.45,1.12.68h0l1.07.78a.64.64,0,0,0,.49.13.67.67,0,0,0,.42-.26.62.62,0,0,0,.13-.47.67.67,0,0,0-.26-.44c-.37-.28-.74-.56-1.12-.82h0c-.38-.24-.77-.48-1.17-.71a.56.56,0,0,0-.49-.07.65.65,0,0,0-.39.3m2.26-1.58a.67.67,0,0,0-.29-.41c-.4-.25-.81-.49-1.24-.73s-.84-.48-1.25-.7a.67.67,0,0,0-.5,0,.61.61,0,0,0-.37.33.56.56,0,0,0-.05.49.65.65,0,0,0,.32.39c.4.2.8.43,1.2.66s.81.47,1.21.72a.6.6,0,0,0,.49.08.65.65,0,0,0,.4-.29.57.57,0,0,0,.08-.49M227.47,86.7a.63.63,0,0,0,.1.48c.25.38.48.77.7,1.16s.46.83.68,1.25a.64.64,0,0,0,.37.31.69.69,0,0,0,.49,0,.72.72,0,0,0,.33-.38.67.67,0,0,0,0-.5c-.22-.44-.46-.86-.69-1.29s-.49-.83-.75-1.23a.66.66,0,0,0-.42-.28.65.65,0,0,0-.49.1.6.6,0,0,0-.28.41m-2.39-1.5a.61.61,0,0,0-.49.11.63.63,0,0,0-.24.44.6.6,0,0,0,.11.47c.26.35.51.7.75,1.06s.49.76.72,1.14a.56.56,0,0,0,.39.29.73.73,0,0,0,.5-.06.67.67,0,0,0,.29-.41.6.6,0,0,0-.06-.49c-.24-.39-.49-.78-.75-1.18h0c-.25-.39-.51-.77-.8-1.14a.59.59,0,0,0-.42-.24m-.1-3.46a.57.57,0,0,0-.47.14.67.67,0,0,0-.24.44.65.65,0,0,0,.14.49c.29.35.57.7.85,1.07h0q.42.56.84,1.14a.62.62,0,0,0,.42.26.76.76,0,0,0,.49-.11.66.66,0,0,0,.15-.91c-.29-.4-.59-.79-.88-1.17s-.57-.75-.88-1.11a.65.65,0,0,0-.44-.24m-1.82.7v0c-.31-.36-.62-.69-.93-1a.64.64,0,0,0-.47-.19.65.65,0,0,0-.65.65.64.64,0,0,0,.19.47c.31.3.6.62.88.94v0c.27.33.55.67.83,1a.61.61,0,0,0,.42.24.67.67,0,0,0,.49-.13.65.65,0,0,0,.24-.44.59.59,0,0,0-.13-.48c-.29-.36-.57-.71-.86-1m-3.7-3.76h0c-.35-.29-.69-.57-1-.84a.56.56,0,0,0-.49-.13.64.64,0,0,0-.55.71.67.67,0,0,0,.24.44l1,.8s0,0,0,0c.33.3.64.59.94.9a.63.63,0,0,0,.46.18.62.62,0,0,0,.65-.65.62.62,0,0,0-.18-.46c-.32-.33-.67-.64-1-1m-.12-1.3a.68.68,0,0,0,.44-.23.62.62,0,0,0,.15-.49.68.68,0,0,0-.23-.43q-.57-.47-1.14-.9h0c-.38-.3-.76-.57-1.15-.83a.66.66,0,0,0-.49-.1.59.59,0,0,0-.42.28.62.62,0,0,0-.1.48.6.6,0,0,0,.28.41l1.09.8,1.1.87a.57.57,0,0,0,.47.15m2.33.6a.6.6,0,0,0-.47-.18.62.62,0,0,0-.44.21.6.6,0,0,0-.18.48.68.68,0,0,0,.21.45l1,.91v0c.33.33.65.67,1,1a.65.65,0,0,0,.91,0,.68.68,0,0,0,.21-.45.63.63,0,0,0-.16-.48l-1-1.07h0c-.34-.34-.69-.65-1-1m-17.84-7.07a.59.59,0,0,0,.07.5.62.62,0,0,0,.39.3,12.36,12.36,0,0,1,1.25.35h0c.41.15.82.3,1.23.48a.72.72,0,0,0,.5,0,.66.66,0,0,0,.35-.85.7.7,0,0,0-.36-.36L206,70.85v0c-.46-.14-.9-.27-1.34-.37a.51.51,0,0,0-.48.06.56.56,0,0,0-.3.39m-2.08-2.18a.68.68,0,0,0,.41.28c.44.1.89.2,1.33.32s.9.24,1.35.39a.6.6,0,0,0,.49,0,.64.64,0,0,0,.29-.88.61.61,0,0,0-.37-.32c-.49-.15-1-.29-1.43-.41s-.93-.24-1.38-.34a.63.63,0,0,0-.49.1.58.58,0,0,0-.29.4.57.57,0,0,0,.09.49m-2.24.51a.52.52,0,0,0-.47.13.53.53,0,0,0-.24.42.64.64,0,0,0,.55.73,8.82,8.82,0,0,1,1.25.21l0,0a11.44,11.44,0,0,1,1.29.29.68.68,0,0,0,.48-.06.69.69,0,0,0,.31-.39.64.64,0,0,0-.06-.49.62.62,0,0,0-.39-.31q-.69-.2-1.38-.33h0c-.45-.09-.91-.17-1.38-.22m-5.84.13a.65.65,0,0,0,.2.47.61.61,0,0,0,.45.18c.43,0,.86,0,1.29,0l1.32.13a.61.61,0,0,0,.48-.13.65.65,0,0,0,.12-.91.6.6,0,0,0-.44-.24q-.69-.09-1.38-.15c-.47,0-.93,0-1.39,0a.58.58,0,0,0-.45.19.6.6,0,0,0-.2.46M198.44,67c-.49-.07-1-.13-1.43-.16a.63.63,0,0,0-.47.16.59.59,0,0,0-.23.44.64.64,0,0,0,.16.47.62.62,0,0,0,.44.23q.66,0,1.35.15c.45.06.91.14,1.38.22a.67.67,0,0,0,.49-.11.73.73,0,0,0,.27-.42.6.6,0,0,0-.11-.47.63.63,0,0,0-.42-.28c-.49-.1-1-.17-1.43-.23m-9.33,1.89a.65.65,0,0,0-.44.24.57.57,0,0,0-.15.47.65.65,0,0,0,.24.44.58.58,0,0,0,.48.15l1.28-.12,1.33-.06a.6.6,0,0,0,.46-.2.69.69,0,0,0,.18-.47.59.59,0,0,0-.2-.45.66.66,0,0,0-.47-.18l-1.4.06-1.31.12m2-2a.6.6,0,0,0-.18.47.77.77,0,0,0,.22.46.64.64,0,0,0,.47.16c.45,0,.91,0,1.36,0s.93,0,1.4,0a.64.64,0,0,0,.47-.16.7.7,0,0,0,.21-.46.62.62,0,0,0-.16-.47.68.68,0,0,0-.45-.21c-.49,0-1,0-1.47,0s-.95,0-1.43,0a.63.63,0,0,0-.44.21m-5.82,2.57h0c-.45.08-.88.18-1.3.27a.66.66,0,0,0-.41.3.58.58,0,0,0-.08.48.64.64,0,0,0,.29.41.61.61,0,0,0,.49.08c.42-.1.84-.19,1.27-.27h0c.44-.09.88-.16,1.31-.23a.67.67,0,0,0,.43-.26.63.63,0,0,0,.13-.48.71.71,0,0,0-.26-.43.67.67,0,0,0-.49-.11,13.05,13.05,0,0,0-1.37.23m-5.08,1.35h0c-.41.13-.83.28-1.27.45a.59.59,0,0,0-.35.34.61.61,0,0,0,0,.51.62.62,0,0,0,.34.35.69.69,0,0,0,.51,0c.4-.16.8-.31,1.2-.44s.85-.28,1.28-.39a.7.7,0,0,0,.39-.31.62.62,0,0,0,.07-.48.65.65,0,0,0-.31-.39.58.58,0,0,0-.49-.07c-.47.12-.92.25-1.36.41M182,68.08h0q-.69.18-1.38.39a.6.6,0,0,0-.37.33.58.58,0,0,0-.05.48.59.59,0,0,0,.33.39.61.61,0,0,0,.48,0c.44-.14.88-.27,1.32-.38h0c.44-.13.88-.24,1.33-.34a.65.65,0,0,0,.42-.27.58.58,0,0,0,.08-.49.58.58,0,0,0-.27-.41.66.66,0,0,0-.49-.1c-.49.1-1,.22-1.43.36m4-.88a.55.55,0,0,0-.42.26.61.61,0,0,0-.12.49.56.56,0,0,0,.26.42.68.68,0,0,0,.49.12q.68-.12,1.38-.21c.45-.07.9-.12,1.37-.15a.63.63,0,0,0,.44-.21.69.69,0,0,0,.16-.47.63.63,0,0,0-.68-.62c-.5,0-1,.09-1.47.16s-1,.13-1.41.21m23,2.64-1.34-.51a.65.65,0,0,0-.81.88.65.65,0,0,0,.37.34c.44.15.87.32,1.29.49l1.27.57a.62.62,0,0,0,.5,0,.66.66,0,0,0,.36-.34.64.64,0,0,0,0-.49.62.62,0,0,0-.34-.37q-.66-.33-1.32-.6h0m24.56,49.77c.12-.46.23-.92.32-1.38a.64.64,0,0,0-.08-.49.66.66,0,0,0-.4-.29.56.56,0,0,0-.49.1.6.6,0,0,0-.29.41c-.1.44-.2.88-.31,1.33s-.26.89-.41,1.35a.61.61,0,0,0,.05.49.59.59,0,0,0,.37.32.64.64,0,0,0,.49,0,.68.68,0,0,0,.33-.38c.15-.48.29-1,.42-1.43m1.07-7.28a.6.6,0,0,0-.44-.23.65.65,0,0,0-.47.17.64.64,0,0,0-.23.44c0,.44-.07.89-.13,1.34s-.15.92-.22,1.39a.63.63,0,0,0,.09.48.64.64,0,0,0,.91.17.7.7,0,0,0,.28-.43c.09-.48.16-1,.23-1.43s.11-1,.15-1.43a.65.65,0,0,0-.17-.47m-1.7-2.21a.6.6,0,0,0-.18-.45.65.65,0,0,0-.47-.2.6.6,0,0,0-.46.2.57.57,0,0,0-.19.45c0,.42,0,.85,0,1.28s-.07.89-.12,1.32a.6.6,0,0,0,.13.49.61.61,0,0,0,.43.24.65.65,0,0,0,.48-.13.66.66,0,0,0,.25-.44c.05-.45.09-.91.13-1.38s.05-.92.05-1.38m.92-3.22a.6.6,0,0,0-.18.47c0,.46,0,.91,0,1.37s0,.93,0,1.4a.6.6,0,0,0,.18.47.63.63,0,0,0,.44.21.6.6,0,0,0,.47-.16.7.7,0,0,0,.21-.46c0-.49,0-1,0-1.46s0-1,0-1.43a.62.62,0,0,0-.21-.44.58.58,0,0,0-.47-.18.63.63,0,0,0-.44.21m-1.09-2a.61.61,0,0,0-.24-.42.56.56,0,0,0-.49-.13.64.64,0,0,0-.55.71c0,.42.08.85.11,1.29s0,.89.05,1.31a.57.57,0,0,0,.21.46.65.65,0,0,0,.46.18.59.59,0,0,0,.45-.2.67.67,0,0,0,.18-.47c0-.43,0-.89,0-1.36v0c0-.46-.07-.91-.13-1.35m1.68-3.06a.62.62,0,0,0-.26-.42.59.59,0,0,0-.49-.11.54.54,0,0,0-.42.26.59.59,0,0,0-.12.48l.21,1.37c.06.46.1.92.13,1.38a.64.64,0,0,0,.23.44.65.65,0,0,0,.91,0,.65.65,0,0,0,.17-.47c0-.5-.09-1-.15-1.48l-.21-1.4m-.88-4c-.12-.45-.24-.9-.37-1.35a.7.7,0,0,0-.33-.39.6.6,0,0,0-.49,0,.64.64,0,0,0-.44.8c.12.44.25.89.38,1.33h0l.36,1.39a.66.66,0,0,0,.8.48.71.71,0,0,0,.4-.3.68.68,0,0,0,.07-.5Z"/></g><g id="Layer1_4_MEMBER_1_FILL" data-name="Layer1 4 MEMBER 1 FILL"><path class="cls-9" d="M179.4,77.38l-1.75.65,11.44,31,1.76-.65-1.09-3-10.36-28m-.71-3.19-1,.36-1.19.44.85,2.29,1.76-.65.4-.16-.84-2.28M173,61.76l-1.22.45,4.49,12,1.18-.44-4.45-12m-1.5-.29,1.71-.64L171.76,57q-1.2-3.12-4.37-1.75l-.94.35q2.55-.7,3.6,2l1.43,3.89m-9.57-19.72-.75-2-.92.34-1.27.47.75,2,2.19-.81M61.58,117.22v7L57.3,131H55.56v1.22L59,134.26h1.67l2-1.22v-3.66H60.91l3.27-5.12,1.69-1.69V117l-3.5-3.5v-5.72h-5v4.5h2.71v3.42l1.5,1.49m59-26.62H119v7.56a2.18,2.18,0,0,1,1.58.66V90.6m-.34-6.47H119v2.52h1.24V84.13m0,3.3H119v2.39h1.92V87.43h-.68M119,80.08v3.27h2l.6-.61V80.1l-2.62,0m-23.52-38a2.42,2.42,0,0,1-.78.52l4.63,12.5,1.2-.46L95.71,41.73a2.16,2.16,0,0,1-.27.33m8.6,20-.39.14-1.5.56.65,1.75,1.5-.55.39-.15L104,62.07m-2.16,0,1.49-.55-2-5.29a1.53,1.53,0,0,0-.63-.81l-1.2.45,2.31,6.2M94.93,40.48a1.37,1.37,0,0,0,0-.36,1,1,0,0,0-.22-.34.1.1,0,0,0,0-.05,1,1,0,0,0-.75-.32,1.21,1.21,0,0,0-.38.06,1.07,1.07,0,0,0-.39.26,1.24,1.24,0,0,0-.14.18,1,1,0,0,0-.17.49v.08a1.08,1.08,0,0,0,.31.76,1,1,0,0,0,.77.31h.22l.15,0a1.19,1.19,0,0,0,.38-.25A1.07,1.07,0,0,0,94.93,40.48Z"/><path class="cls-5" d="M166.45,55.56l-1.68.62-2.58.94.39,1.08q5.28-.39,7.47,4.63l.49-.18,4.73,12.81-1,.36.84,2.28.49-.18,11.72,31.71,4.37,1.84h0l.31.11a2.43,2.43,0,0,0,3-2.32,2.42,2.42,0,0,0-1.56-2.26l-3.78-1.61,1.09,3-1.76.65L177.65,78l1.75-.65-.27-.75-1.76.65L176.52,75l1.19-.44-.28-.75-1.18.44-4.49-12,1.22-.45.49-.18-.28-.75-1.71.64-1.43-3.89q-1.05-2.73-3.6-2M58.7,120.67a2.9,2.9,0,0,0,2.88,2.93v-5.86a2.93,2.93,0,0,0-2,.85,2.87,2.87,0,0,0-.84,2.08m1.38-8.36H57.37a1.77,1.77,0,0,0-1.24.51,1.69,1.69,0,0,0,0,2.4,1.65,1.65,0,0,0,1.17.51h2.78v-3.42m58.86-13.07a1.09,1.09,0,0,0-.76.3.12.12,0,0,1-.05,0,1.07,1.07,0,0,0-.34.76v.08a1.15,1.15,0,0,0,.34.78.12.12,0,0,1,.05.05,1.08,1.08,0,0,0,.76.29,1.11,1.11,0,0,0,.82-.34,1.2,1.2,0,0,0,.34-.78v0a1.18,1.18,0,0,0-1.16-1.16m.65-20.87v.78l-3,3.81,1.17,1.17v3.3h-.69V90.6h.35v8.14a2.12,2.12,0,0,1,1.49-.58V90.6h1.92v-.78H119V87.43h1.24v-.78H119V84.13h1.24l.78-.78h-2V80.08l2.62,0h.71V77.8h-2.7v.57M86.35,36.85a.45.45,0,0,0,.11.28l2.07,2.55a2.1,2.1,0,0,0,1.93.72h0l1.19-.1a.9.9,0,0,0,0,.18,2.17,2.17,0,0,0,.65,1.58,2.06,2.06,0,0,0,1,.56l5,13.66a1.49,1.49,0,0,0,0,1l2.24,6.05-.39.15.65,1.75.39-.14,1.56-.59-.65-1.75,1.5-.56-.28-.74-1.49.55-2.31-6.2,1.2-.45-.28-.75-1.2.46-4.63-12.5a2.42,2.42,0,0,0,.78-.52,2.16,2.16,0,0,0,.27-.33,2.19,2.19,0,0,0,.38-1.25,3.59,3.59,0,0,0,0-.47,4.73,4.73,0,0,0,1.82-.86h0l2.83-2.07,0,0H99.08l-1.81,1.32h0a2.84,2.84,0,0,1-1.55.59.49.49,0,0,0-.17.06l-.1-.11a2.12,2.12,0,0,0-1.56-.65,2.18,2.18,0,0,0-1.58.65,2.31,2.31,0,0,0-.31.39.22.22,0,0,0-.14,0l-1.45.13a1.27,1.27,0,0,1-1.11-.36l-1.35-1.65-1.59-.56m8.54,3.27a1.37,1.37,0,0,1,0,.36,1.07,1.07,0,0,1-.3.76,1.19,1.19,0,0,1-.38.25l-.15,0h-.22a1,1,0,0,1-.77-.31,1.08,1.08,0,0,1-.31-.76V40.4a1,1,0,0,1,.17-.49,1.24,1.24,0,0,1,.14-.18,1.07,1.07,0,0,1,.39-.26,1.21,1.21,0,0,1,.38-.06,1,1,0,0,1,.75.32.1.1,0,0,1,0,.05,1,1,0,0,1,.22.34m61.05-3.43-.22.08L157,40.15l.44-.14.36,1-.93.34.75,2,2.1-.76-.75-2,1.27-.47-.38-1,3.92-1.45-.37-1,1.7-1.71h-.06a1.57,1.57,0,0,1-1.16-.48,1.6,1.6,0,0,1-.48-1.16h0l-1,1Z"/><path class="cls-6" d="M162.33,41.58l-.42.17-2.19.81,5.05,13.62,1.68-.62.94-.35-5.06-13.63M120.54,98.82a2.18,2.18,0,0,0-1.58-.66,2.12,2.12,0,0,0-1.49.58.39.39,0,0,0-.1.08,2.13,2.13,0,0,0-.67,1.5v.08l0,4.1-.78.27-1.15.38c-.15.41-.31.81-.49,1.2a1.33,1.33,0,0,0,.88.05l1.19-.39q.4-.14.81-.3a28.62,28.62,0,0,0,4-1.83h0l.68-.41h0a21.63,21.63,0,0,0,7.18-7l0,0,26.24-46.09a1.27,1.27,0,0,0,.12-1,1.52,1.52,0,0,0-.15-.34l-1.11.68L128,95.75a20.09,20.09,0,0,1-6.77,6.6V100.4a2.18,2.18,0,0,0-.66-1.58m-2.36.72a1.09,1.09,0,0,1,.76-.3,1.18,1.18,0,0,1,1.16,1.16v0a1.2,1.2,0,0,1-.34.78,1.11,1.11,0,0,1-.82.34,1.08,1.08,0,0,1-.76-.29.12.12,0,0,0-.05-.05,1.15,1.15,0,0,1-.34-.78v-.08a1.07,1.07,0,0,1,.34-.76.12.12,0,0,0,.05,0M104.3,64l-1.5.55L108.18,79l1.51-.42-.24-.68-.55-1.47,49-30.92-.66-1.78L113.84,71.12q-4.82,2.7-9.14-6Z"/><path class="cls-11" d="M108.9,76.45l.55,1.47L154.2,49.66l1.11-.68a1.52,1.52,0,0,1,.15.34,1.27,1.27,0,0,1-.12,1L129.1,96.4l0,0a21.63,21.63,0,0,1-7.18,7h0l-.68.41h0a28.62,28.62,0,0,1-4,1.83q-.4.17-.81.3l-1.19.39a1.33,1.33,0,0,1-.88-.05q-3.15,6.78-12.86,6.84l1.06,0q22.77,1.22,31.47-14.08l26.55-46.63,1.71,4.6,2.58-.94-5.05-13.62-2.1.76-.47.18.08.25.66,1.78-49,30.92m-6.1-11.93-1.56.59,5.3,14.35,1.64-.44Z"/><path class="cls-8" d="M115.74,83h-1.4V97.2h1.4V83M64.08,108.17v1.45l38.38-1.26v-1.44l-38.38,1.25m55.51-31.7h-2.24l-7.66,2.13-1.51.42-1.64.44-2.94.81L60.08,104.59v2L104,82l13.12-3.63h2.45v-1.9M80.53,34.87l5.82,2,1.59.56,1,.34a6.7,6.7,0,0,0,3.18.23l4.69-.93h11.93v-.59a3.72,3.72,0,0,0-3.4-1.51H89l-7.79-1.09a.65.65,0,0,0-.54.26,1.2,1.2,0,0,0-.16.34v.41M168,28.11a1.45,1.45,0,0,0-.43,1.1,1.57,1.57,0,0,0,.48,1.16,1.67,1.67,0,0,0,2.29.05l0-.05a1.6,1.6,0,0,0,.47-1.16,1.67,1.67,0,0,0-1.64-1.64A1.59,1.59,0,0,0,168,28l0,0,0,0Z"/><path class="cls-12" d="M119.59,79.15v-.78h-2.45L104,82,60.08,106.54v1.27h2.29v3.29l3.43.81,35.6,1.28q9.7-.06,12.86-6.84c.18-.39.34-.79.49-1.2s.31-1,.44-1.5c0-.17.08-.34.11-.5a24.64,24.64,0,0,0,.44-6h-1.4V83h2.3l3-3.81M105.78,83h2.06l.75,2,0,0,1.56,4.24v7.87a13.4,13.4,0,0,1-.62,4.89q-1.56,4.44-7.06,4.9h0v1.44l-38.38,1.26v-3.35Z"/><path class="cls-13" d="M163.41,33.33h0a1.6,1.6,0,0,0,.48,1.16,1.57,1.57,0,0,0,1.16.48h.06a1.56,1.56,0,0,0,1.08-.45l4.11-4.11a1.67,1.67,0,0,1-2.29-.05,1.57,1.57,0,0,1-.48-1.16,1.45,1.45,0,0,1,.43-1.1l-4.07,4.06A1.65,1.65,0,0,0,163.41,33.33Z"/></g><g id="Layer1_4_MEMBER_2_FILL" data-name="Layer1 4 MEMBER 2 FILL"><path class="cls-5" d="M118.42,111.66a7.72,7.72,0,1,0-2.26,5.45,7.46,7.46,0,0,0,2.26-5.45m-3.86-3.88a5.27,5.27,0,0,1,1.57,3.22h0a.65.65,0,0,1,.48.19.61.61,0,0,1,.17.46.67.67,0,0,1-.17.47.68.68,0,0,1-.48.18h0a5.49,5.49,0,0,1-4.76,4.76v0a.68.68,0,0,1-.18.48.71.71,0,0,1-.47.17.62.62,0,0,1-.65-.65v0a5.41,5.41,0,0,1-4.78-4.76h0a.62.62,0,0,1-.46-.18.64.64,0,0,1-.19-.47.65.65,0,0,1,.65-.65h0a5.23,5.23,0,0,1,1.54-3.22,5.31,5.31,0,0,1,3.24-1.54v0a.58.58,0,0,1,.19-.45.6.6,0,0,1,.46-.2.65.65,0,0,1,.47.2.61.61,0,0,1,.18.45v0A5.18,5.18,0,0,1,114.56,107.78Z"/><path class="cls-9" d="M116.81,111.65a.61.61,0,0,0-.17-.46.65.65,0,0,0-.48-.19h-3.28a2.31,2.31,0,0,0-.58-1,2.1,2.1,0,0,0-.93-.56v-3.3a.61.61,0,0,0-.18-.45.65.65,0,0,0-.47-.2.6.6,0,0,0-.46.2.58.58,0,0,0-.19.45v3.21a.22.22,0,0,0,0,.08,2,2,0,0,0-1,.57,2.14,2.14,0,0,0-.55,1h-3.3a.65.65,0,0,0-.65.65.64.64,0,0,0,.19.47.62.62,0,0,0,.46.18h3.3a2,2,0,0,0,.55.94,2.33,2.33,0,0,0,1,.59.19.19,0,0,0,0,.08v3.18a.62.62,0,0,0,.65.65.71.71,0,0,0,.47-.17.68.68,0,0,0,.18-.48v-3.26a2.27,2.27,0,0,0,.93-.59,2.15,2.15,0,0,0,.58-.94h3.28a.68.68,0,0,0,.48-.18A.67.67,0,0,0,116.81,111.65Z"/></g><g id="Layer1_4_MEMBER_2_MEMBER_0_FILL" data-name="Layer1 4 MEMBER 2 MEMBER 0 FILL"><path class="cls-7" d="M107.35,128.13l-2.11,3.29H114l2.11-3.29h-8.78Z"/><path class="cls-14" d="M109.09,111.57A1.6,1.6,0,0,1,110.7,110a1.52,1.52,0,0,1,1.14.47,1.55,1.55,0,0,1,.47,1.14v2.08l.25-.23a2.56,2.56,0,0,0,.74-1.84,2.51,2.51,0,0,0-.74-1.82,2.59,2.59,0,0,0-1.37-.73.39.39,0,0,1-.15,0h-.32a2.59,2.59,0,0,0-2.57,2.23c0,.11,0,.23,0,.35a2.53,2.53,0,0,0,.75,1.84l.21.2Z"/><path class="cls-9" d="M109.56,110.43a1.55,1.55,0,0,0-.47,1.14v16.56h3.22V111.57a1.55,1.55,0,0,0-.47-1.14,1.52,1.52,0,0,0-1.14-.47A1.55,1.55,0,0,0,109.56,110.43Z"/></g></g></svg>