<svg id="Layer_1" data-name="Layer 1" xmlns="http://www.w3.org/2000/svg" xmlns:xlink="http://www.w3.org/1999/xlink" viewBox="0 0 254 136"><defs><style>.cls-1,.cls-3,.cls-4,.cls-8{fill:none;}.cls-2{clip-path:url(#clip-path);}.cls-3,.cls-4{stroke:#262041;}.cls-3,.cls-4,.cls-8{stroke-linecap:round;stroke-linejoin:round;}.cls-3,.cls-8{stroke-width:0.77px;}.cls-4{stroke-width:0.38px;}.cls-5{fill:#4b4272;}.cls-6{fill:#e0f0f7;}.cls-7{fill:#262041;}.cls-8{stroke:#4b4272;}.cls-9{fill:#ea3b3f;}.cls-10{fill:#b72e31;}</style><clipPath id="clip-path"><rect class="cls-1" width="254" height="136"/></clipPath></defs><g class="cls-2"><path id="Layer1_22_MEMBER_0_MEMBER_0_1_STROKES" data-name="Layer1 22 MEMBER 0 MEMBER 0 1 STROKES" class="cls-3" d="M228,94.9l1-.57m2.24,19.7h1.17m-1.17-7h1.17M228,126.14l1,.59m-50.64-50.2-.59-1m12.73-2.24V72.11m7,1.16V72.11m12.11,4.42.59-1m14.31,13.35,1-.57m-68.77,18.76h-1.17m4.4,19.07-1,.59M172.34,80l-.6-1m18.78,68.77V149m-18.17-7.9-.57,1m6.62,2.48-.58,1m46.71-13.35,1,.59m-28,15V149m18.13-7.9.58,1m-6.62,2.48.58,1M160,94.92l-1-.57m4.47-5.47-1-.57M156.75,114h-1.17m7.9,18.13-1,.59M215.65,80l.6-1"/><path id="Layer1_22_MEMBER_0_MEMBER_0_2_STROKES" data-name="Layer1 22 MEMBER 0 MEMBER 0 2 STROKES" class="cls-4" d="M195,107.05h1l-.74-1.28-1.27.72,1,.56.78.46.06,0,.73.42-.52-.92h1.49v-2.58l-2.23,1.3L194,103.59l-1.26,2.18,1.26.72-1,.56H195Zm2.54,0h2.55l3.52-6.08-6.07,3.5v-7l-3.5,6.08-3.48-6v6.94l2.22,1.27-.74,1.28h1l-.73.42-.06,0,1.76,3v-3.48m6.05,0-1.28,2.22,2.2,1.26,6-3.48Zm.92,3.48-2.22,1.28L200,114h7Zm-3.47-2-1-.57.44.76a.09.09,0,0,0,0,.06.1.1,0,0,0,0,.06l.47.84v-2.64m0,3.48v.92l.52-.88-.52-.88v.84H194l3,1.74a.16.16,0,0,0,0-.06l.44-.76v1.09l1.25-.73-.73-1.24.75-1.3-1.27-.73m-2.21,6.75L196,114H194.9l-.9.52,1.29.74,2.21,1.28V114H196l.56-1-.77.44a.07.07,0,0,1-.06,0l-.05,0-.79.46h-1.81l.91.52-1.3.76,1.29,2.24Zm2.21,1.28,6,3.46L200,114H197.5v-1.49l-.93.53.46-.8M215.65,80l-12.08,21,20.94-12.11m-34,18.19V104.5l-6.1-3.51,3.52,6.06H192l-.52.9.71-.42.05,0m-.76.46-1,.55v1.09l.46-.8a.09.09,0,0,0,0-.06Zm-1,3.59v1l.86.49-.4-.7,0-.06a.16.16,0,0,1,0-.06l-.41-.69-.55-1-.73,1.24,1.28.75V114H192l-.58-1,.88.5,1.74-3-3,1.76m0-3.5,3,1.74,1.74-3m-7.8-.46,1.26,2.2,1.32-.75v-1.45m0,4.49v-2l-.55,1-.77-1.32-2.2,1.28,2.24,1.28L188,114h2.56v2.52l2.18-1.24L192,114h1.13l-.77-.44-.06,0m3.48,0-1.74-3V114m-3.48-3.5H194l3-1.74M156.75,114h24.17l6.08-3.5-6-3.48H156.75M160,94.92l21,12.13h6.94m-24.46,25.11,21-12.13,3.46-6h-7L160,126.12m3.5-37.24L184.42,101,172.34,80m25.16,67.76V123.63L194,117.55l-3.47,6v24.25m-18.17-6.73,12.15-21,6-3.48v7l-12.12,21m46.13-12.35-21-12.15,12.14,21m-6,3.5L197.5,123.63v-7.06m0-43.3V97.51l12.11-21m-31.23,0,12.14,21V73.27M228,94.9l-21,12.15h24.27m0,7H207.05l21,12.11"/><g id="Layer1_22_MEMBER_0_MEMBER_1_FILL" data-name="Layer1 22 MEMBER 0 MEMBER 1 FILL"><path class="cls-5" d="M91.82,78.65A43.39,43.39,0,0,0,60,65.47,43.35,43.35,0,0,0,28.17,78.65,43.42,43.42,0,0,0,15,110.47,43.41,43.41,0,0,0,28.17,142.3,43.36,43.36,0,0,0,60,155.49,43.4,43.4,0,0,0,91.82,142.3a43.71,43.71,0,0,0,11.3-18.52A46.24,46.24,0,0,0,105,110.47c0-.6,0-1.19,0-1.78a43.31,43.31,0,0,0-13.16-30m-2.14,61.5A40.44,40.44,0,0,1,60,152.45a40.43,40.43,0,0,1-29.67-12.3A40.39,40.39,0,0,1,18,110.49,40.43,40.43,0,0,1,30.33,80.81,40.43,40.43,0,0,1,60,68.51a40.44,40.44,0,0,1,29.68,12.3A40.43,40.43,0,0,1,102,110.49,40.39,40.39,0,0,1,89.68,140.15Z"/><path class="cls-6" d="M60,152.45a40.44,40.44,0,0,0,29.68-12.3A40.39,40.39,0,0,0,102,110.49,40.43,40.43,0,0,0,89.68,80.81,40.44,40.44,0,0,0,60,68.51a40.43,40.43,0,0,0-29.67,12.3A40.43,40.43,0,0,0,18,110.49a40.39,40.39,0,0,0,12.29,29.66A40.43,40.43,0,0,0,60,152.45M88.89,81.59a39.4,39.4,0,0,1,12,28.9,39.37,39.37,0,0,1-12,28.88,39.35,39.35,0,0,1-28.88,12,39.37,39.37,0,0,1-28.89-12,39.37,39.37,0,0,1-12-28.88,39.4,39.4,0,0,1,12-28.9A39.37,39.37,0,0,1,60,69.62,39.35,39.35,0,0,1,88.89,81.59Z"/><path class="cls-7" d="M100.87,110.49a39.4,39.4,0,0,0-12-28.9A39.35,39.35,0,0,0,60,69.62a39.37,39.37,0,0,0-28.89,12,39.4,39.4,0,0,0-12,28.9,39.37,39.37,0,0,0,12,28.88,39.37,39.37,0,0,0,28.89,12,39.35,39.35,0,0,0,28.88-12,39.37,39.37,0,0,0,12-28.88M87.25,83.24a37.12,37.12,0,0,1,11.28,27.25,37.15,37.15,0,0,1-11.28,27.24A37.12,37.12,0,0,1,60,149a37.14,37.14,0,0,1-27.25-11.28,37.15,37.15,0,0,1-11.28-27.24A37.12,37.12,0,0,1,32.76,83.24,37.15,37.15,0,0,1,60,72,37.13,37.13,0,0,1,87.25,83.24m-34.6,27.23a7.37,7.37,0,1,0,2.16-5.2A7.08,7.08,0,0,0,52.65,110.47Z"/></g><path id="Layer1_22_MEMBER_0_MEMBER_2_1_STROKES" data-name="Layer1 22 MEMBER 0 MEMBER 2 1 STROKES" class="cls-8" d="M81.19,130.09l-18.52-.45a3.19,3.19,0,0,1-2.33-1,3.15,3.15,0,0,1-1-2.31,3.22,3.22,0,0,1,1-2.34l.23-.21.06,0,3.9-3,0,0,.21-.15a2.08,2.08,0,0,0,.21-.21,3.26,3.26,0,0,0,.11-4.53A7.36,7.36,0,1,1,60,103.11h.2l.19,0,20.79.38m-20.79-.38a7,7,0,0,1,4.82,2.14,7.39,7.39,0,0,1,0,10.4l-.12.12m-.57,7.84A3.32,3.32,0,0,1,65,124a3.19,3.19,0,0,1,1,2.34,3.33,3.33,0,0,1-3.29,3.29"/><g id="Layer1_22_MEMBER_0_MEMBER_3_FILL" data-name="Layer1 22 MEMBER 0 MEMBER 3 FILL"><path class="cls-5" d="M225.83,142.3A43.41,43.41,0,0,0,239,110.47a45,45,0,0,0-45-45,45,45,0,0,0-45,45,45,45,0,0,0,45,45,43.41,43.41,0,0,0,31.83-13.19M194,152.45a42,42,0,0,1-42-42,42,42,0,0,1,42-42,42,42,0,0,1,42,42,42,42,0,0,1-42,42Z"/><path class="cls-6" d="M164.34,140.15a41.95,41.95,0,0,0,59.35,0A40.42,40.42,0,0,0,236,110.49a42,42,0,0,0-42-42,42,42,0,0,0-42,42,40.4,40.4,0,0,0,12.3,29.66M194,151.34a40.89,40.89,0,0,1-40.87-40.85A40.89,40.89,0,0,1,194,69.62a40.87,40.87,0,0,1,40.85,40.87A40.87,40.87,0,0,1,194,151.34Z"/><path class="cls-7" d="M165.13,139.37a40.84,40.84,0,0,0,57.77,0,39.36,39.36,0,0,0,12-28.88A40.87,40.87,0,0,0,194,69.62a40.89,40.89,0,0,0-40.87,40.87,39.33,39.33,0,0,0,12,28.88m25.39-67.26c1.15-.1,2.32-.16,3.5-.16s2.35.06,3.48.16a36.76,36.76,0,0,1,23.76,11.13,37.12,37.12,0,0,1,11.28,27.25A38.51,38.51,0,0,1,194,149a38.51,38.51,0,0,1-38.53-38.52,38.53,38.53,0,0,1,35-38.38m7,38.29A3.48,3.48,0,0,0,194,107a3.33,3.33,0,0,0-2.46,1,3.41,3.41,0,0,0-1,2.4v.13a3.42,3.42,0,0,0,1,2.43,3.35,3.35,0,0,0,2.46,1,3.45,3.45,0,0,0,3.48-3.44v-.13Z"/></g><path id="Layer1_22_MEMBER_0_MEMBER_4_1_STROKES" data-name="Layer1 22 MEMBER 0 MEMBER 4 1 STROKES" class="cls-3" d="M44.37,76.47l-.59-1M63.5,73.22V72.05m-7,1.17V72.05M75.6,76.47l.59-1M94,94.85l1-.58M90.5,88.8l1-.57M97.25,114h1.17m-1.17-7h1.17M94,126.08l1,.59M29.47,88.82l-1-.57M26,126.06l-1,.59M22.74,107H21.57m68.95,25.13,1,.59M38.33,80l-.6-1m18.78,68.78v1.16m-12.12-4.41-.57,1m19.68,2.26v1.16M81.63,141l.57,1m-6.62,2.49.58,1M38.35,141l-.58,1M26,94.87l-1-.58M22.74,114H21.57m7.9,18.13-1,.6M81.65,80l.59-1"/><path id="Layer1_22_MEMBER_0_MEMBER_4_2_STROKES" data-name="Layer1 22 MEMBER 0 MEMBER 4 2 STROKES" class="cls-4" d="M94,94.85,73,107H97.25m0,7H73l21,12.11M26,94.87,47,107h6.94l-3.52-6.06L29.47,88.82m0,43.28,21-12.12L54,114h-7L26,126.06M22.74,114H46.91l6.09-3.5L47,107H22.74m40.76,0v-2.58l-2.24,1.3L62,107h4l3.52-6.08-6.06,3.5v-7L60,103.53l1.26,2.18-1.26.73,1,.55h1l.52.92,1,.57ZM58,107l-.52.9.71-.42.06,0,0,0L59,107H58l.74-1.28-2.22-1.26V107Zm2-.55L59,107H61l.79.46,0,0,.73.42.44.76a.15.15,0,0,0,0,.06.1.1,0,0,0,0,.06l.48.84v-1.15l1.26.73L66,107H73l-6,3.48L73,114H66l3.46,6,21,12.14M58.73,105.71,60,103.53l-3.49-6v6.94l-6.1-3.52L38.33,80m20.4,25.74,1.27.73m-2.53,1.45-1,.55v1.09l.46-.8a.09.09,0,0,0,0-.06Zm-1,.55V107H53.93l1.27,2.2Zm0,2v-.94l-.55,1,.55,1v-1H60l-3-1.74m-.46,2.76v1l.87.5-.41-.71,0-.06a.16.16,0,0,1,0-.06Zm0,1-1.28-.75L54,114h2.56Zm-.55-2-.76-1.32L53,110.47l2.23,1.28ZM58,114H56.51v2.53l2.19-1.25L58,114l-.57-1,.88.49,1.74-3-3,1.76M58,114h1.13l-.77-.44a.1.1,0,0,1-.05,0m3.48,0-.06,0-.79.46H62l.56-1-.77.44h0l-1.74-3V114h.89l-.89.52,1.28.74L62,114h1.5v-1.49l-.94.54.46-.81-3-1.74-1.76-3M60,114h-.92l.92.52-1.3.76L60,117.49l1.3-2.26,2.22,1.29V114H66l-1.28-2.22-1.24.73v-1.09l-.44.76,0,.06m.48-2.58v1.76l.51-.88Zm.51.88.73,1.24L67,110.47l-2.2-1.26ZM60,107v3.48l1.74-3M63,108.73l-3,1.74h3.5m0,37.26V123.57L60,117.49l-3.47,6v24.25m0-24.25-12.12,21M81.63,141,69.48,120l-6-3.46v7L75.58,144.5m-19.07-21v-7l-6,3.48L38.35,141m43.3-61-12.09,21L90.5,88.8M44.37,76.47l12.14,21V73.22m7,0V97.45l12.1-21"/><g id="Layer1_22_MEMBER_1_MEMBER_0_FILL" data-name="Layer1 22 MEMBER 1 MEMBER 0 FILL"><path class="cls-5" d="M181.59,64.59a.33.33,0,0,0-.17-.23.43.43,0,0,0-.29,0,.36.36,0,0,0-.23.19.37.37,0,0,0,0,.29l.09.29,1.24,4.32,0,0a.78.78,0,0,0,0,1.11,1,1,0,0,0,.19.15l0,0a.81.81,0,0,0,.87-.17.81.81,0,0,0,0-1.11.68.68,0,0,0-.41-.21l-.17-.71-1.11-3.92M77.65,66.81l.13-.27a.44.44,0,0,0,0-.32.36.36,0,0,0-.21-.21.52.52,0,0,0-.27,0,.32.32,0,0,0-.21.21L77,66.5,75.54,70l-.24.69a.92.92,0,0,0-.43.15,1,1,0,0,0-.28.54.78.78,0,0,0,.17.56.72.72,0,0,0,.52.3.74.74,0,0,0,.3,0l.08,0,.19-.13a.7.7,0,0,0,.29-.54A.63.63,0,0,0,76,71l0,0Z"/><path class="cls-7" d="M178,59.94l-.56.18-.53.17,1.34,4.55-.58.15,1.11,3.9,1,.5-.31.12a1.3,1.3,0,0,0-.8.72,1.33,1.33,0,0,0-.06,1.07,1.35,1.35,0,0,0,.73.79,1.41,1.41,0,0,0,1.07.07,36.92,36.92,0,0,1,5.51-1.49,1.43,1.43,0,0,0,.89-.57,1.32,1.32,0,0,0,.21-1,1.26,1.26,0,0,0-.57-.9,1.29,1.29,0,0,0-1.05-.23c-.91.16-1.8.36-2.68.59l.17.71a.68.68,0,0,1,.41.21.81.81,0,0,1,0,1.11.81.81,0,0,1-.87.17l0,0a1,1,0,0,1-.19-.15.78.78,0,0,1,0-1.11l0,0L181,65.09l-.82.23-.29-1-.55.17L178,59.94M82.3,62.51l-.5-.23L81.24,62l-1.87,4.42-.52-.25-.4.95-.8-.32L76,71l0,0a.63.63,0,0,1,.16.55.7.7,0,0,1-.29.54l-.19.13-.08,0a.74.74,0,0,1-.3,0,.72.72,0,0,1-.52-.3.78.78,0,0,1-.17-.56,1,1,0,0,1,.28-.54.92.92,0,0,1,.43-.15l.24-.69c-.84-.32-1.7-.62-2.6-.9a1.18,1.18,0,0,0-1,.14,1.29,1.29,0,0,0-.69.82,1.34,1.34,0,0,0,.1,1,1.59,1.59,0,0,0,.84.69c1.12.35,2.22.74,3.29,1.19.68.28,1.34.58,2,.91a1.42,1.42,0,0,0,1.07.06,1.39,1.39,0,0,0,.8-.72,1.27,1.27,0,0,0,.08-1.06,1.41,1.41,0,0,0-.73-.82.76.76,0,0,0-.29-.13l1.08-.4L81,67.08l-.55-.19Z"/></g><path id="Layer1_22_MEMBER_1_MEMBER_0_1_STROKES" data-name="Layer1 22 MEMBER 1 MEMBER 0 1 STROKES" class="cls-3" d="M81.8,62.28l3.1-5.21a10,10,0,0,1,7.49-4.7M178.23,31.2l.19.17c.19.19.37.39.55.59.1-.31.22-.63.35-.95M179,32a10.9,10.9,0,0,1-.55,14.77,11.67,11.67,0,0,1-2.35,1.83,52.07,52.07,0,0,0,1.33,11.56m-1.33-11.56a10.65,10.65,0,0,1-5.32,1.34c-.29,0-.59,0-.88,0m6.2-1.32A47.42,47.42,0,0,1,179,32"/><g id="Layer1_22_MEMBER_1_MEMBER_1_FILL" data-name="Layer1 22 MEMBER 1 MEMBER 1 FILL"><path class="cls-9" d="M172.22,68.72a.3.3,0,0,0,0,.21l.65,1.32a2.28,2.28,0,0,0,.19,1.28v0L193,111.39a1.38,1.38,0,0,0,.79.69,1.29,1.29,0,0,0,1-.06h0a1.31,1.31,0,0,0,.75-.78,1.37,1.37,0,0,0-.06-1L177.19,69.58a2,2,0,0,0-.86-1l-.42-1a.43.43,0,0,0-.21-.19.36.36,0,0,0-.27,0l-2.94.94a.28.28,0,0,0-.17.13.35.35,0,0,0-.1.19M167,40.55l-1.84.59,8.09,25.44L175,66a.48.48,0,0,0,.23-.19.41.41,0,0,0,0-.29L172,55l0,.11,0,0a.25.25,0,0,0,0-.12L167.48,40.8a.43.43,0,0,0-.19-.23.33.33,0,0,0-.29,0m-54.24,77.3-.65-2-49.26-6.72-1.08,1.8,51,6.94M95.42,48.16a.42.42,0,0,0-.29,0l-1.82.58L116,120.38l0,0a2.34,2.34,0,0,0,1-.65v0l.86-1-.82-2.56,51-58.41-.8-2.56-51,58.41L97.48,54.32l-.71-2.24L164,45l-.71-2.24-67.2,7.06-.46-1.48A.39.39,0,0,0,95.42,48.16Z"/><path class="cls-10" d="M96.77,52.08l.71,2.24,67.21-7.06,2.5,7.92.8,2.56-51,58.41.82,2.56,51-58.4,2.06,6.56A.85.85,0,0,0,171,67a.36.36,0,0,0,.19.13.31.31,0,0,0,.23,0l1.87-.59-8.09-25.44-1.83.58a.43.43,0,0,0-.23.19.35.35,0,0,0,0,.3l.19.58L164,45l-67.21,7m-5.54-2.6a.33.33,0,0,0,0,.29l.88,2.75-34,57.13a1.72,1.72,0,0,0-.24.69v0a1.47,1.47,0,0,0,0,.51v0a2,2,0,0,0,1.62,1.67h0l54.3,7.4a1.69,1.69,0,0,0,.28.19,2.26,2.26,0,0,0,1.53.33,2.36,2.36,0,0,0,.4-.08L93.31,48.7l-1.85.59a.4.4,0,0,0-.23.19m20.88,66.35.65,2-51-6.94,1.08-1.8L93.64,57.4Z"/></g><g id="Layer1_22_MEMBER_1_MEMBER_2_FILL" data-name="Layer1 22 MEMBER 1 MEMBER 2 FILL"><path class="cls-7" d="M171.55,69.09l2.18-.69L173,66.24l-1.78.57h0l-.39.11.69,2.17m32.92-47.55-1.92,1.05-1.91,1.05L200,30.53l2.13-.92q2.17,4,1.2,7.35c.73,3,2.22,5.07,4.48,6.19a7.31,7.31,0,0,1-2.61-4.59,21.92,21.92,0,0,0-1.05-9.12,1.52,1.52,0,0,1,.29-1.86h0a10.25,10.25,0,0,0,2.83-3.31V23.4l-2.79-1.86m-41,9.3-3.42,1.09.17.55a.79.79,0,0,0-.36.23.87.87,0,0,0,0,1.26.83.83,0,0,0,.63.27.86.86,0,0,0,.28,0L161,35a.76.76,0,0,0-.36.23.83.83,0,0,0-.27.63.92.92,0,0,0,.9.9,1.35,1.35,0,0,0,.29,0l.15.51.52-.15.88,2.76-.77.22.69,2.17,2.22-.69-.69-2.16,1.45-.46L164.8,35l11.84-2.58a1.71,1.71,0,0,0,.74-.39l1.09-1.05,9,.23a7.16,7.16,0,0,1,6.28,7.1,6.93,6.93,0,0,1-2.09,5.06,7.12,7.12,0,0,1-2.77,1.74l-9.54,2.41a1.54,1.54,0,0,0-.94.69,1.38,1.38,0,0,0-.17,1.17,1.55,1.55,0,0,0,.69.94,1.5,1.5,0,0,0,1.16.17L189.64,48l.1,0a10.08,10.08,0,0,0,4-2.5,9.92,9.92,0,0,0,3-7.23,11.35,11.35,0,0,0-.23-2.3,1.11,1.11,0,0,1-.82-.08,1.25,1.25,0,0,1-.62-.66,9.36,9.36,0,0,0-5.5-5.49,1.11,1.11,0,0,1-.67-.6A1.32,1.32,0,0,1,189,28l-11.13-.17a1.49,1.49,0,0,0-1.11.44l-1.24,1.19L163.86,32l-.36-1.18M97.81,21.41H95l-4.61,2a9.26,9.26,0,0,1-1.73.58l-.21-.48c-.39.08-.79.14-1.2.19l-5.41.52v.49l-1,.1h0a2.09,2.09,0,0,1-1.6-.52l-.46-.42a9.22,9.22,0,0,1-1.42-.55l-1.72-.84,2.81,2.67a3.31,3.31,0,0,0,2.49.81h0l.88-.08V27.2l3.61,1.74,5.82,18.44-.75.23.69,2.16,2.24-.71-6.3-19.87,1.44-.46a2.33,2.33,0,0,1,.15-1.16,1.76,1.76,0,0,1,1-1L89.1,25.1a11.11,11.11,0,0,0,1.74-.59h0Z"/><path class="cls-5" d="M176,67.69l-.69-2.16-2.26.71.69,2.16,2.26-.71M165.28,41.51l2.22-.71-.69-2.16-.77.25-1.45.46.69,2.16M202.06,22l-3.35.61-.4,2.09a2.57,2.57,0,0,1-2.14,2.06l-4.79,1.3L189,28a1.32,1.32,0,0,0-.09,1.11,1.11,1.11,0,0,0,.67.6,9.36,9.36,0,0,1,5.5,5.49,1.25,1.25,0,0,0,.62.66,1.11,1.11,0,0,0,.82.08l.65-.15c-.64-2-.21-3.34,1.28-4.13l1.41-.62.06-.53.69-6.89,1.91-1.05-.49-.59M88.57,28.73l-1.44.46,6.3,19.87,2.2-.69-.69-2.16-.77.23-5.6-17.71M95,21.41h6.73v-.73a1.93,1.93,0,0,0-.21-.9,1.9,1.9,0,0,0-.37-.5,1.82,1.82,0,0,0-.51-.36,2.14,2.14,0,0,0-.81-.19H78.7l-7.76-1.28h-.08l-.15,0a1.29,1.29,0,0,0-.94.38,1,1,0,0,0-.21.31l-.46,1.22,6.52,3.18,1.72.84a9.22,9.22,0,0,0,1.42.55,6.77,6.77,0,0,0,3.06.19,7.56,7.56,0,0,0,2.29-.74l1.93-1a9.32,9.32,0,0,1,4.17-1Z"/></g><g id="Layer1_22_MEMBER_1_MEMBER_2_MEMBER_0_FILL" data-name="Layer1 22 MEMBER 1 MEMBER 2 MEMBER 0 FILL"><path class="cls-7" d="M64.53,123.63v2.87a1.75,1.75,0,0,1-.56,1.15,1.72,1.72,0,0,1-1.3.55,1.84,1.84,0,0,1-1.85-1.8v-2.77a2.43,2.43,0,0,0-.48.38,3.22,3.22,0,0,0-1,2.34,3.15,3.15,0,0,0,1,2.31,3.19,3.19,0,0,0,2.33,1A3.33,3.33,0,0,0,66,126.35,3.19,3.19,0,0,0,65,124a3.32,3.32,0,0,0-.46-.38m-10.39-8.91a1.87,1.87,0,0,0-1.28.53l0,0a1.91,1.91,0,0,0,0,2.64,2,2,0,0,0,1,.54l.29,0,5.5.72a3.28,3.28,0,0,0,.75,1.13,3,3,0,0,0,.48.4V118a1.83,1.83,0,0,1,1.85-1.82l.19,0a1.7,1.7,0,0,1,1.11.52,1.81,1.81,0,0,1,.56,1.32v2.71a2.87,2.87,0,0,0,.46-.4A3.12,3.12,0,0,0,66,118a3.28,3.28,0,0,0-3.29-3.29,3.24,3.24,0,0,0-2.33,1,.76.76,0,0,0-.11.14l-2.47-.33a2.15,2.15,0,0,1-.33.46l-1.93,2a2,2,0,0,0,.52-1.3v-.07a1.86,1.86,0,0,0-.56-1.25,1.82,1.82,0,0,0-1.24-.55Z"/><path class="cls-5" d="M62.67,116.15A1.83,1.83,0,0,0,60.82,118v8.43a1.84,1.84,0,0,0,1.85,1.8,1.72,1.72,0,0,0,1.3-.55,1.75,1.75,0,0,0,.56-1.15V118a1.81,1.81,0,0,0-.56-1.32,1.7,1.7,0,0,0-1.11-.52l-.19,0m-8-2.77-1.86,1.87a1.87,1.87,0,0,1,1.28-.53h.08a1.82,1.82,0,0,1,1.24.55,1.86,1.86,0,0,1,.56,1.25v.07a2,2,0,0,1-.52,1.3l1.93-2a2.15,2.15,0,0,0,.33-.46,1.88,1.88,0,0,0-.35-2.14,1.84,1.84,0,0,0-1.34-.55,1.78,1.78,0,0,0-1.31.55Z"/></g><g id="Layer1_22_MEMBER_1_MEMBER_2_MEMBER_1_FILL" data-name="Layer1 22 MEMBER 1 MEMBER 2 MEMBER 1 FILL"><path class="cls-5" d="M108.31,105.94a13.31,13.31,0,1,0,10.17-1.36,12.91,12.91,0,0,0-10.17,1.36m-3.62,8.84a10.07,10.07,0,0,1,4-5.88l2-1.16a10.69,10.69,0,0,1,12.9,3.5l1.13,2a10.07,10.07,0,0,1,.56,7,10.25,10.25,0,0,1-4,5.86l-2,1.14a10.12,10.12,0,0,1-7.09.58,10.42,10.42,0,0,1-5.86-4l-1.13-2A10.11,10.11,0,0,1,104.69,114.78Z"/><path class="cls-7" d="M108.73,108.9l.8,1.4a8.87,8.87,0,0,0-3.29,4.88,8.67,8.67,0,0,0,.42,5.87l-1.4.8,1.13,2,1.4-.82a9.15,9.15,0,0,0,10.73,2.87l.82,1.39,2-1.14-.82-1.4a8.72,8.72,0,0,0,3.25-4.86,8.57,8.57,0,0,0-.4-5.83l1.39-.82-1.13-2-1.39.82a8.75,8.75,0,0,0-4.88-3.27,8.57,8.57,0,0,0-5.81.38l-.82-1.43-2,1.16m4,2.41a6.51,6.51,0,0,1,3.94-.19,6.37,6.37,0,0,1,3.39,2.14l-1.55.9a4.85,4.85,0,0,0-2.28-1.35,4.56,4.56,0,0,0-2.64,0l-.86-1.51m-2,1.15.86,1.51a5,5,0,0,0-1.3,5l-1.53.89a6.39,6.39,0,0,1-.21-4,6.12,6.12,0,0,1,2.18-3.35m8.91,3.69,1.53-.9a6.35,6.35,0,0,1,.16,4,6.21,6.21,0,0,1-2.13,3.35l-.86-1.53a5.32,5.32,0,0,0,1.34-2.28,4.76,4.76,0,0,0,0-2.62M110,121.79l1.51-.91a4.56,4.56,0,0,0,2.28,1.35,4.93,4.93,0,0,0,2.64,0l.87,1.53a6.53,6.53,0,0,1-7.3-1.94Z"/></g><path id="Layer1_22_MEMBER_1_MEMBER_2_MEMBER_2_1_STROKES" data-name="Layer1 22 MEMBER 1 MEMBER 2 MEMBER 2 1 STROKES" class="cls-8" d="M81.19,103.51l33.69.63H115l.59,0,.21,0a13.38,13.38,0,0,1-.8,26.74l-.84,0-33-.81m34.4-25.93-.71,0"/><g id="Layer1_22_MEMBER_1_MEMBER_2_MEMBER_3_FILL" data-name="Layer1 22 MEMBER 1 MEMBER 2 MEMBER 3 FILL"><path class="cls-7" d="M115,115.62a1.88,1.88,0,0,0-1.89,1.89V137h3.78V117.51a1.88,1.88,0,0,0-1.89-1.89Z"/><path class="cls-6" d="M112.86,115.39a2.89,2.89,0,0,0-.86,1.72,3.23,3.23,0,0,0,.86,2.58,2.84,2.84,0,0,0,.25.23v-2.41a1.89,1.89,0,1,1,3.78,0V120l.29-.27a3,3,0,0,0,.88-2.16,2.89,2.89,0,0,0-.88-2.14,3,3,0,0,0-1.61-.86l-.17,0a1.23,1.23,0,0,0-.27,0H115A3,3,0,0,0,112.86,115.39Z"/></g></g></svg>