<svg xmlns="http://www.w3.org/2000/svg" viewBox="0 0 72 72"><path d="M40.7,44.26a9.9,9.9,0,0,0,2.42-1.83,9.61,9.61,0,0,0,2.93-6.64V32.55h0V30.79h.74a2.65,2.65,0,0,0,1.51-.5l.21-.17a1.07,1.07,0,0,0,.16-.14,2.62,2.62,0,0,0,.77-1.51,3.15,3.15,0,0,0,0-.44,2.75,2.75,0,0,0-2.69-2.75V17.9a.37.37,0,0,1,0-.12v-.36a10.39,10.39,0,0,0-3.16-7.63,10.82,10.82,0,0,0-15.26,0,10.33,10.33,0,0,0-3.15,7.5v8h0A2.77,2.77,0,0,0,22.54,28a3.15,3.15,0,0,0,0,.44,2.78,2.78,0,0,0,2.66,2.32H26v4.8a9.65,9.65,0,0,0,2.93,6.84,10.42,10.42,0,0,0,2.4,1.82h0v3.82a18.73,18.73,0,0,0-9.06,5.17l-.06.06A18.72,18.72,0,0,0,16.53,67H55.47a18.72,18.72,0,0,0-5.65-13.7l-.06-.06a18.73,18.73,0,0,0-9.06-5.17V44.26" fill="#caa387"/><path d="M49.82,67h5.65a18.72,18.72,0,0,0-5.65-13.7V67M16.53,67h5.65V53.3A18.72,18.72,0,0,0,16.53,67M31.3,44.25v5.16a4.51,4.51,0,0,0,1.39,3.2,4.94,4.94,0,0,0,.85.69,4.75,4.75,0,0,0,4.93,0,4.94,4.94,0,0,0,.85-.69A4.53,4.53,0,0,0,40.7,49.5V44.26a10.38,10.38,0,0,1-9.4,0m-.41-19a.67.67,0,0,1-.21.5.66.66,0,0,1-.5.21.69.69,0,0,1-.5-.21.67.67,0,0,1-.21-.5H28.33L26,22.92v2.36h-.74A2.77,2.77,0,0,0,22.54,28a3.15,3.15,0,0,0,0,.44,2.78,2.78,0,0,0,2.66,2.32H26v1.76l4.28,4.27A5.52,5.52,0,0,1,31.83,34a6,6,0,0,1,1.42-1.07,5.73,5.73,0,0,1,1.21-.47V25.28H30.89m15.16-5.57a2.21,2.21,0,0,0,0-.42,2.19,2.19,0,0,0-.64-1.36,2.09,2.09,0,0,0-1.35-.64l-.22,0-.21,0H42.51V13.22H29.62v4.07H28a2,2,0,0,0-1.35.64A2.09,2.09,0,0,0,26,19.29a.76.76,0,0,0,0,.15v3.48h2.36v-.59H32v.59H40v-.59h3.72v.59h2.37V19.71M49.47,28a2.75,2.75,0,0,0-2.69-2.75h-.73V22.92l-2.37,2.36H42.51a.72.72,0,0,1-.7.71.71.71,0,0,1-.51-.21.7.7,0,0,1-.2-.5H37.54v7.17a5.42,5.42,0,0,1,1.23.48A6.41,6.41,0,0,1,40.18,34a5.72,5.72,0,0,1,1.59,2.82l4.28-4.27V30.79h.74a2.65,2.65,0,0,0,1.51-.5l.21-.17a1.07,1.07,0,0,0,.16-.14,2.62,2.62,0,0,0,.77-1.51,3.15,3.15,0,0,0,0-.44" fill="#e8bb94"/><path d="M31.3,49.41V48.07a18.73,18.73,0,0,0-9.06,5.17l-.06.06V67H49.82V53.3l-.06-.06a18.73,18.73,0,0,0-9.06-5.17V49.5a4.53,4.53,0,0,1-1.38,3.11,4.94,4.94,0,0,1-.85.69,4.75,4.75,0,0,1-4.93,0,4.94,4.94,0,0,1-.85-.69,4.51,4.51,0,0,1-1.39-3.2" fill="#4b4272"/><path d="M29.68,24.79a.65.65,0,0,0-.21.49.67.67,0,0,0,.21.5.69.69,0,0,0,.5.21.66.66,0,0,0,.5-.21.67.67,0,0,0,.21-.5.65.65,0,0,0-.21-.49.67.67,0,0,0-.5-.22.7.7,0,0,0-.5.22M32,22.92v-.59H28.33V23.5H32v-.58m7.69,15.8a4.42,4.42,0,0,0,.13-.67h-7.7a2.84,2.84,0,0,0,.13.67,3.71,3.71,0,0,0,1,1.62,3.62,3.62,0,0,0,.83.64,1.89,1.89,0,0,1,.46-.71,2.06,2.06,0,0,1,2.89,0,2,2,0,0,1,.47.71,3.79,3.79,0,0,0,.82-.64,3.83,3.83,0,0,0,1-1.62m-1-5.79a5.42,5.42,0,0,0-1.23-.48v.6A1.55,1.55,0,0,1,36,34.6a1.51,1.51,0,0,1-1.1-.46,1.5,1.5,0,0,1-.45-1.09v-.59a5.73,5.73,0,0,0-1.21.47A6,6,0,0,0,31.83,34a5.52,5.52,0,0,0-1.58,2.82H41.77A5.72,5.72,0,0,0,40.18,34a6.41,6.41,0,0,0-1.41-1.07m2.53-8.14a.68.68,0,0,0-.2.49.7.7,0,0,0,.2.5.71.71,0,0,0,.51.21.72.72,0,0,0,.7-.71.65.65,0,0,0-.21-.49.68.68,0,0,0-.49-.22.72.72,0,0,0-.51.22m2.38-1.87v-.59H40V23.5h3.72v-.58m3.12-5.14v-.36a10.39,10.39,0,0,0-3.16-7.63,10.82,10.82,0,0,0-15.26,0,10.33,10.33,0,0,0-3.15,7.5v8H26V19.44a.76.76,0,0,1,0-.15,2.09,2.09,0,0,1,.64-1.36A2,2,0,0,1,28,17.29l.22,0,.21,0h1.22V13.22H42.51v4.07h1.12l.21,0,.22,0a2.09,2.09,0,0,1,1.35.64,2.19,2.19,0,0,1,.64,1.36,2.21,2.21,0,0,1,0,.42v5.57h.73V17.9a.37.37,0,0,1,0-.12" fill="#262041"/><path d="M39.88,37.76v-.94H32.13v.87a.15.15,0,0,0,0,.07,1.32,1.32,0,0,0,0,.29h7.7c0-.09,0-.18,0-.29" fill="#def0f6"/><path d="M37.92,41a2,2,0,0,0-.47-.71,2.06,2.06,0,0,0-2.89,0,1.89,1.89,0,0,0-.46.71,4,4,0,0,0,3.82,0" fill="#ea3b3f"/><path d="M37.54,33.05V25.28H34.46v7.77a1.5,1.5,0,0,0,.45,1.09,1.51,1.51,0,0,0,1.1.46,1.55,1.55,0,0,0,1.53-1.55" fill="#e98d76"/><path d="M46.05,35.79V32.55l-4.28,4.27H39.88v.94c0,.11,0,.2,0,.29a4.42,4.42,0,0,1-.13.67,3.83,3.83,0,0,1-1,1.62,3.79,3.79,0,0,1-.82.64,4,4,0,0,1-3.82,0,3.62,3.62,0,0,1-.83-.64,3.71,3.71,0,0,1-1-1.62,2.84,2.84,0,0,1-.13-.67,1.32,1.32,0,0,1,0-.29.15.15,0,0,1,0-.07v-.87H30.25L26,32.55v3a9.65,9.65,0,0,0,2.93,6.84,10.42,10.42,0,0,0,2.4,1.82,9.9,9.9,0,0,0,11.82-1.82,9.61,9.61,0,0,0,2.93-6.64m0-12.87H43.68v.58H40v-.58H32v.58H28.33v-.58H26l2.36,2.36h1.14a.65.65,0,0,1,.21-.49.7.7,0,0,1,.5-.22.67.67,0,0,1,.5.22.65.65,0,0,1,.21.49H41.1a.68.68,0,0,1,.2-.49.72.72,0,0,1,.51-.22.68.68,0,0,1,.49.22.65.65,0,0,1,.21.49h1.17Z" fill="#caa387"/></svg>