<svg xmlns="http://www.w3.org/2000/svg" xmlns:xlink="http://www.w3.org/1999/xlink" viewBox="0 0 72 72"><defs><clipPath id="a"><rect x="16.53" y="61.36" width="38.93" height="5.64" fill="none"/></clipPath></defs><path d="M55.47,67H16.53a18.71,18.71,0,0,1,5.65-13.7l.06-.06A18.94,18.94,0,0,1,29,48.8a14.65,14.65,0,0,1,1.62-.54l.72-1.06v-3a10.71,10.71,0,0,1-2.4-1.82,9.7,9.7,0,0,1-2.55-4.26A10.23,10.23,0,0,1,26,35.59V30.78h-.75a2.6,2.6,0,0,1-1.87-.8,2.76,2.76,0,0,1,1.87-4.7l-2.26-6v-.16a13.59,13.59,0,0,1,.13-1.83,12.33,12.33,0,0,1,.85-3.08,12.93,12.93,0,0,1,2.83-4.16A12.63,12.63,0,0,1,36,6.24a12.59,12.59,0,0,1,9.24,3.82,12.58,12.58,0,0,1,3.82,9.23v.43l-2.28,5.56A2.76,2.76,0,0,1,48.67,30a2.63,2.63,0,0,1-1.88.8h-.74v5a9.62,9.62,0,0,1-2.93,6.65,10.16,10.16,0,0,1-2.42,1.83V47.2l.73,1.06A14.48,14.48,0,0,1,43,48.8a17.46,17.46,0,0,1,3.52,1.8,21.25,21.25,0,0,1,3.2,2.64l.06.06q.34.33.66.69A18.7,18.7,0,0,1,55.47,67Z" fill="#e8bb94"/><path d="M50.48,54q-.31-.35-.66-.69V67h5.65a18.7,18.7,0,0,0-5-13M22.18,67V53.3A18.72,18.72,0,0,0,16.53,67h5.65m17.7-29.24v-.94H32.13v.87a.15.15,0,0,0,0,.07,1.46,1.46,0,0,0,0,.3h7.7c0-.1,0-.19,0-.3" fill="#def0f6"/><path d="M41.43,48.26,40.7,47.2l-3.52,5.1L43,50.6V54H45.4ZM29,54V50.6L26.61,54H29m1.62-5.73L29,50.6l5.88,1.7L31.3,47.2Z" fill="#12673a"/><path d="M30.58,48.26c-.55.16-1.1.33-1.62.54a18.94,18.94,0,0,0-6.72,4.44l-.06.06V67H49.82V53.3l-.06-.06a21.25,21.25,0,0,0-3.2-2.64A18,18,0,0,0,43,48.8a16.89,16.89,0,0,0-1.61-.54l4,5.73H43v1.69L37.16,54H34.82L29,55.68V54H26.61L29,50.6Z" fill="#32cc77"/><path d="M37.18,52.3H34.84L29,50.6v5.08L34.82,54h2.34L43,55.68V50.6l-5.86,1.7m2.66-14.13s0-.07,0-.11h-7.7s0,.08,0,.11a4.44,4.44,0,0,0,.12.55,3.71,3.71,0,0,0,1,1.62,3.62,3.62,0,0,0,.83.64,1.89,1.89,0,0,1,.46-.71,2.06,2.06,0,0,1,2.89,0,2,2,0,0,1,.47.71,3.79,3.79,0,0,0,.82-.64,3.83,3.83,0,0,0,1-1.62,3.15,3.15,0,0,0,.11-.55" fill="#262041"/><path d="M36,45.38a9.82,9.82,0,0,1-4.71-1.13v3l3.54,5.1h2.34l3.52-5.1V44.26A9.76,9.76,0,0,1,36,45.38m7.67-22.46v.58H40v-.58H32v.58H28.33v-.58H26l2.36,2.36h1.14a.65.65,0,0,1,.21-.49.69.69,0,0,1,.5-.21.67.67,0,0,1,.5.21.65.65,0,0,1,.21.49H41.1a.68.68,0,0,1,.2-.49.71.71,0,0,1,.51-.21.67.67,0,0,1,.49.21.65.65,0,0,1,.21.49h1.17l2.37-2.36Z" fill="#caa387"/><path d="M36,41.47A3.75,3.75,0,0,0,37.92,41a2,2,0,0,0-.47-.71,2.06,2.06,0,0,0-2.89,0,1.89,1.89,0,0,0-.46.71,3.75,3.75,0,0,0,1.91.49" fill="#ea3b3f"/><path d="M29.68,25.78a.69.69,0,0,0,.5.21.72.72,0,0,0,.71-.71.65.65,0,0,0-.21-.49.67.67,0,0,0-.5-.21.69.69,0,0,0-.5.21.65.65,0,0,0-.21.49.67.67,0,0,0,.21.5m11.42-.5a.7.7,0,0,0,.2.5.71.71,0,0,0,.51.21.72.72,0,0,0,.7-.71.65.65,0,0,0-.21-.49.67.67,0,0,0-.49-.21.71.71,0,0,0-.51.21.68.68,0,0,0-.2.49" fill="#4b4272"/><path d="M32,22.92v-.59H28.33V23.5H32v-.58m9.73,13.9A5.72,5.72,0,0,0,40.18,34a6.41,6.41,0,0,0-1.41-1.07,5.42,5.42,0,0,0-1.23-.48v.6A1.55,1.55,0,0,1,36,34.6a1.51,1.51,0,0,1-1.1-.46,1.5,1.5,0,0,1-.45-1.09v-.59a5.73,5.73,0,0,0-1.21.47A6,6,0,0,0,31.83,34a5.56,5.56,0,0,0-1.58,2.82H41.77m1.91-13.9v-.59H40V23.5h3.72v-.58M26.14,16.64c.32.32.65.62,1,.9a13.45,13.45,0,0,0,9,3.21h10v4.53h.73l2.28-5.55V19.3a12.58,12.58,0,0,0-3.82-9.24A12.58,12.58,0,0,0,36,6.25a12.62,12.62,0,0,0-9.23,3.81,13,13,0,0,0-2.83,4.16l1.4,1.56q.3.35.63.69l.17.17" fill="#e2da5a"/><path d="M37.54,25.28H34.46v7.77a1.5,1.5,0,0,0,.45,1.09,1.51,1.51,0,0,0,1.1.46,1.55,1.55,0,0,0,1.53-1.55V25.28Z" fill="#e98d76"/><path d="M46.78,25.28h-.73V22.92l-2.37,2.36H42.51a.72.72,0,0,1-.7.71.71.71,0,0,1-.51-.21.7.7,0,0,1-.2-.5H37.54v7.17a5.42,5.42,0,0,1,1.23.48A6.41,6.41,0,0,1,40.18,34a5.72,5.72,0,0,1,1.59,2.82H39.88v.94c0,.11,0,.2,0,.3l0,.11a3.15,3.15,0,0,1-.11.55,3.83,3.83,0,0,1-1,1.62,3.79,3.79,0,0,1-.82.64,4,4,0,0,1-3.82,0,3.62,3.62,0,0,1-.83-.64,3.71,3.71,0,0,1-1-1.62,4.44,4.44,0,0,1-.12-.55s0-.07,0-.11a1.46,1.46,0,0,1,0-.3.15.15,0,0,1,0-.07v-.87H30.25A5.56,5.56,0,0,1,31.83,34a6,6,0,0,1,1.42-1.07,5.73,5.73,0,0,1,1.21-.47V25.28H30.89a.67.67,0,0,1-.21.5.66.66,0,0,1-.5.21.69.69,0,0,1-.5-.21.67.67,0,0,1-.21-.5H28.33L26,22.92v2.36h-.75a2.76,2.76,0,0,0,0,5.51H26v4.8a10.23,10.23,0,0,0,.38,2.58,9.7,9.7,0,0,0,2.55,4.26,10.42,10.42,0,0,0,2.4,1.82,9.9,9.9,0,0,0,11.82-1.82,9.62,9.62,0,0,0,2.93-6.64v-5h.74a2.76,2.76,0,0,0,0-5.51m-20.8-6a.76.76,0,0,0,0,.15v3.48h2.36v-.59H32v.59H40v-.59h3.72v.59h2.37V20.75h-10a13.45,13.45,0,0,1-8.95-3.21,3.07,3.07,0,0,0-.5.39A2.09,2.09,0,0,0,26,19.29" fill="#e8bb94"/><path d="M23.1,17.31A12.08,12.08,0,0,0,23,19.13v.17l2.26,6H26V19.44a.76.76,0,0,1,0-.15,2.09,2.09,0,0,1,.64-1.36,3.07,3.07,0,0,1,.5-.39c-.33-.28-.66-.58-1-.9L26,16.47q-.33-.34-.63-.69l-1.4-1.56a12.38,12.38,0,0,0-.84,3.09" fill="#c5bd55"/><g opacity="0.15"><g clip-path="url(#a)"><path d="M49.82,61.36V67h5.65ZM22.18,67V61.36L16.53,67Z" fill="#262041"/></g></g></svg>