<svg xmlns="http://www.w3.org/2000/svg" xmlns:xlink="http://www.w3.org/1999/xlink" viewBox="0 0 72 72"><defs><clipPath id="a"><rect x="25.97" y="27.92" width="16.79" height="5.73" fill="none"/></clipPath><clipPath id="b"><rect x="16.53" y="61.36" width="38.93" height="5.64" fill="none"/></clipPath></defs><path d="M54.68,61.36A18.78,18.78,0,0,0,50,53.49l0-33.13V19.9c0-.21,0-.42,0-.63A13.52,13.52,0,0,0,45.92,10c-.25-.25-.52-.5-.79-.73V5.87L43.2,7.81a13.47,13.47,0,0,0-6.74-1.94h-.67a13.68,13.68,0,0,0-6.15,1.48h0a13.47,13.47,0,0,0-2.75,1.89c-.27.23-.54.47-.8.73a14.34,14.34,0,0,0-2.47,3.28A13.54,13.54,0,0,0,22,19.71V53.52a18.82,18.82,0,0,0-4.64,7.84h-.79V67H55.47V61.36Z" fill="#fcca81"/><path d="M31.3,48.07a18,18,0,0,0-5,2,20.49,20.49,0,0,0-4,3.15c-.1.09-.19.19-.28.28A18.7,18.7,0,0,0,16.53,67H44q-5.81-4.8-6.64-13.2A4.73,4.73,0,0,1,36,54a4.5,4.5,0,0,1-3.32-1.38,4.43,4.43,0,0,1-1.32-2.52,4.89,4.89,0,0,1-.07-.68V48.07M50,67h5.46A18.7,18.7,0,0,0,50,53.49Z" fill="#2bbbf9"/><path d="M37.26,50.09a38.17,38.17,0,0,1,.42-4.83,11.42,11.42,0,0,1-1.67.12,9.82,9.82,0,0,1-4.71-1.13v5.16a4.89,4.89,0,0,0,.07.68,4.43,4.43,0,0,0,1.32,2.52A4.5,4.5,0,0,0,36,54a4.73,4.73,0,0,0,1.37-.19,32,32,0,0,1-.12-3.71m6.79-25.18c.29-.65.59-1.32.9-2H43.68v.58H40v-.58H32v.58H28.33v-.58H26.9q-.09.36-.21.72l1.64,1.64h1.14a.65.65,0,0,1,.21-.49.7.7,0,0,1,.5-.22.67.67,0,0,1,.5.22.65.65,0,0,1,.21.49H41.1a.65.65,0,0,1,.21-.49.67.67,0,0,1,1,0,.65.65,0,0,1,.21.49h1.17Z" fill="#e2b574"/><path d="M37.92,41a2,2,0,0,0-.47-.71,2.06,2.06,0,0,0-2.89,0,1.89,1.89,0,0,0-.46.71,4,4,0,0,0,3.82,0" fill="#ea3b3f"/><path d="M45.13,5.87,43.2,7.81a13.47,13.47,0,0,0-6.74-1.94h-.67a13.68,13.68,0,0,0-6.15,1.48h0a13.47,13.47,0,0,0-2.75,1.89c-.27.23-.54.47-.8.73a14.34,14.34,0,0,0-2.47,3.28A14.41,14.41,0,0,0,26,16.47l.17.17a13.52,13.52,0,0,0,9.93,4.1H46c-.35.74-.69,1.46-1,2.18s-.61,1.34-.9,2c-.84,1.9-1.6,3.75-2.28,5.53-.33.87-.64,1.72-.93,2.56-.46,1.31-.87,2.58-1.24,3.83-.13.41-.24.82-.36,1.23-.23.81-.44,1.61-.62,2.4-.4,1.67-.72,3.26-.94,4.8a38.17,38.17,0,0,0-.42,4.83,32,32,0,0,0,.12,3.71Q38.22,62.2,44,67h6V53.49l0-33.13V19.9c0-.21,0-.42,0-.63A13.52,13.52,0,0,0,45.92,10c-.25-.25-.52-.5-.79-.73Z" fill="#f6d71e"/><path d="M39.24,38.06H32.16a2.86,2.86,0,0,0,.13.66,3.71,3.71,0,0,0,1,1.62,3.62,3.62,0,0,0,.83.64,1.89,1.89,0,0,1,.46-.71,2.06,2.06,0,0,1,2.89,0,2,2,0,0,1,.47.71,3.43,3.43,0,0,0,.7-.52c.18-.79.39-1.59.62-2.4" fill="#4b3025"/><path d="M30.18,24.57a.7.7,0,0,0-.5.22.65.65,0,0,0-.21.49.67.67,0,0,0,.21.5.69.69,0,0,0,.5.21.66.66,0,0,0,.5-.21.67.67,0,0,0,.21-.5.65.65,0,0,0-.21-.49.67.67,0,0,0-.5-.22" fill="#4b3025"/><polyline points="32.05 23.5 32.05 22.92 32.05 22.33 28.33 22.33 28.33 22.92 28.33 23.5 32.05 23.5" fill="#b79c18"/><path d="M42.3,25.78a.67.67,0,0,0,.21-.5.65.65,0,0,0-.21-.49.67.67,0,0,0-1,0,.65.65,0,0,0-.21.49.7.7,0,0,0,1.2.5" fill="#4b3025"/><polygon points="43.68 23.5 43.68 22.92 43.68 22.33 39.95 22.33 39.95 22.92 39.95 23.5 43.68 23.5" fill="#b79c18"/><path d="M32.14,37.76a1.46,1.46,0,0,0,0,.3h7.08c.12-.41.23-.82.36-1.23H32.13v.86a.15.15,0,0,0,0,.07" fill="#def0f6"/><path d="M26,16.47a14.41,14.41,0,0,1-2.37-3.23A13.54,13.54,0,0,0,22,19.71V53.52c.09-.09.18-.19.28-.28a20.49,20.49,0,0,1,4-3.15,18,18,0,0,1,5-2V44.25a10.42,10.42,0,0,1-2.4-1.82A9.65,9.65,0,0,1,26,35.59v-4.8h-.74A2.75,2.75,0,0,1,24,30.44a2.76,2.76,0,0,1,1.28-5.16H26a11.2,11.2,0,0,0,.72-1.64q.12-.36.21-.72A9,9,0,0,0,26,16.47" fill="#b79c18"/><path d="M42.51,25.28a.71.71,0,0,1-1.41,0H30.89a.67.67,0,0,1-.21.5.66.66,0,0,1-.5.21.69.69,0,0,1-.5-.21.67.67,0,0,1-.21-.5H28.33l-1.64-1.64A11.2,11.2,0,0,1,26,25.28h-.74A2.76,2.76,0,0,0,24,30.44a2.75,2.75,0,0,0,1.28.35H26v4.8a9.65,9.65,0,0,0,2.93,6.84,10.42,10.42,0,0,0,2.4,1.82A9.82,9.82,0,0,0,36,45.38a11.42,11.42,0,0,0,1.67-.12c.22-1.54.54-3.13.94-4.8a3.43,3.43,0,0,1-.7.52,4,4,0,0,1-3.82,0,3.62,3.62,0,0,1-.83-.64,3.71,3.71,0,0,1-1-1.62,2.86,2.86,0,0,1-.13-.66,1.46,1.46,0,0,1,0-.3.15.15,0,0,1,0-.07v-.86H39.6c.37-1.25.78-2.52,1.24-3.83.29-.84.6-1.69.93-2.56.68-1.78,1.44-3.63,2.28-5.53l-.37.37H42.51m-8,7.77v0h3.08v0A1.55,1.55,0,0,1,36,34.6a1.51,1.51,0,0,1-1.1-.46,1.5,1.5,0,0,1-.45-1.09m9.22-10.13H45c.33-.72.67-1.44,1-2.18h-9.9a13.52,13.52,0,0,1-9.93-4.1L26,16.47a9,9,0,0,1,.93,6.45h1.43v-.59H32v.59H40v-.59h3.72Z" fill="#fcca81"/><path d="M34.46,33v0a1.5,1.5,0,0,0,.45,1.09,1.51,1.51,0,0,0,1.1.46,1.55,1.55,0,0,0,1.53-1.55v0Z" fill="#e07e3d"/><g opacity="0.15"><g clip-path="url(#a)"><path d="M41.15,28.76A2.87,2.87,0,0,0,41,32.62c.54-1.51,1.13-3.07,1.79-4.67a2.74,2.74,0,0,0-1.61.81m-12.31-.84a2.87,2.87,0,1,0,2,.84,2.76,2.76,0,0,0-2-.84" fill="#ea3b3f"/></g></g><path d="M34.84,36.25a1.46,1.46,0,0,0-.38.58h3.07a1.61,1.61,0,0,0-.39-.58,1.31,1.31,0,0,0-.35-.27,1.52,1.52,0,0,0-.8-.21,1.58,1.58,0,0,0-.81.21,1.44,1.44,0,0,0-.34.27" fill="#ea3b3f"/><path d="M25.62,31.55a1.12,1.12,0,0,0,0-1.61,1.09,1.09,0,0,0-.8-.33,1.13,1.13,0,0,0-.81.33,1.15,1.15,0,0,0,0,1.61,1.13,1.13,0,0,0,.81.33,1.09,1.09,0,0,0,.8-.33" fill="#ea3b3f"/><g opacity="0.15"><g clip-path="url(#b)"><path d="M16.53,67h5.65V61.36ZM50,67h5.46L50,61.55Z" fill="#262041"/></g></g></svg>