<svg xmlns="http://www.w3.org/2000/svg" viewBox="0 0 72 72"><path d="M55.68,66.82v-.1c0-.11,0-.22,0-.33s0-.37,0-.55c0-.39-.06-.77-.1-1.15l0-.29a18.94,18.94,0,0,0-5.57-10.84,20.82,20.82,0,0,0-2.72-2.31c-.29-.21-.59-.4-.89-.59a18.15,18.15,0,0,0-4.2-1.94l-.83-1.93a23.6,23.6,0,0,0,6.74-2q5-2.36,5-5.71a5.67,5.67,0,0,0-.11-1v.09L49.44,18.58l-.12-.69a.13.13,0,0,0,0-.06,13.4,13.4,0,0,0-3.8-7A14.21,14.21,0,0,0,43.22,9a12.82,12.82,0,0,0-5.06-2l-.83-.12-.53,0h-.39l-.72,0a13.88,13.88,0,0,0-13.59,11l-.22,1.52-2.73,18.1A11.7,11.7,0,0,0,19,39.09q0,3.36,5,5.71a23.93,23.93,0,0,0,6.76,2l-.83,1.93-.74.24a18,18,0,0,0-3.44,1.7,3.68,3.68,0,0,0-.39.24l-.53.35a21.65,21.65,0,0,0-2.74,2.31,19,19,0,0,0-5.42,10.17l0,.19c0,.16-.07.32-.09.48s0,.23,0,.34,0,.31,0,.47-.05.41-.07.62q0,.58-.06,1.17H55.69A1.09,1.09,0,0,0,55.68,66.82Z" fill="#f7d98f"/><path d="M55.68,66.82c0,.06,0-.12,0,0Z" fill="#f7d98f"/><path d="M28.37,10.43c-.08.07-.15.15-.23.23a9.77,9.77,0,0,0-2.93,6.8V30.75H26v-7l.14-3a3.2,3.2,0,0,1,1.14-1.89,3.94,3.94,0,0,1,2.28-.59h.1V16.75l12.73,0v1.49a5,5,0,0,1,2.58.86,2.32,2.32,0,0,1,1,1.58L46,23.74v7h.76V17.21a9.8,9.8,0,0,0-3.15-6.78l-.32-.3a10.6,10.6,0,0,0-1.6-1.2,10.73,10.73,0,0,0-5.48-1.55H36a10.59,10.59,0,0,0-7.64,3.05" fill="#7b5057"/><path d="M55.68,66.82a18.07,18.07,0,0,0-1.79-7.53,19.82,19.82,0,0,0-5.09-6.45,23,23,0,0,0-2-1.52v0a18.32,18.32,0,0,0-6-2.59v1.72A4.52,4.52,0,0,1,39.07,54a4.85,4.85,0,0,1-7.08-1,4.85,4.85,0,0,1-.75-2.79V48.76a19.84,19.84,0,0,0-12.89,10,18.62,18.62,0,0,0-2,8.2H55.69a1.09,1.09,0,0,0,0-.18C55.68,66.7,55.69,66.88,55.68,66.82Z" fill="#514c68"/><rect x="29.79" y="49.17" width="12.52" height="17.83" fill="#e5dea9"/><path d="M46,32.73h0V21.21A3.29,3.29,0,0,0,45.76,20a3.2,3.2,0,0,0-.7-1,3.14,3.14,0,0,0-2-.91h-.62V16.06H29.55v2.11h-.62a3.16,3.16,0,0,0-2,.9,2.9,2.9,0,0,0-.69,1A2.81,2.81,0,0,0,26,21.23V32.57h0v3a9.15,9.15,0,0,0,2.93,6.57,9.84,9.84,0,0,0,2.34,1.72h0v.87h0v3.82a4.34,4.34,0,0,0,1.39,3.12,5.63,5.63,0,0,0,.75.6,5,5,0,0,0,5.25,0,4.59,4.59,0,0,0,.75-.6,4.3,4.3,0,0,0,1.33-2.43,5.36,5.36,0,0,0,.06-.69v-4.7a11.25,11.25,0,0,0,2.33-1.72A9.09,9.09,0,0,0,46,36a7.72,7.72,0,0,0,0-1.36Z" fill="#f7d98f"/><path d="M46,24.4a3.74,3.74,0,0,1-.68-.06l-1.77,1.77H28.4L26.7,24.4H26V36a9.86,9.86,0,0,0,.2,1.74,9.53,9.53,0,0,0,2.73,5.08,9.8,9.8,0,0,0,2.34,1.78A9.94,9.94,0,0,0,36,45.76a9.8,9.8,0,0,0,4.77-1.18,10.44,10.44,0,0,0,2.32-1.78,9.6,9.6,0,0,0,2.77-5.08,10.72,10.72,0,0,0,.17-1.3c0-.16,0-.4,0-.7s0-.54,0-.71V24.4m-8.65,8.8a1.57,1.57,0,0,1-.42.92,1.38,1.38,0,0,1-.65.37,1,1,0,0,1-.36.06h0a2,2,0,0,1-.36,0,1.41,1.41,0,0,1-.69-.39,1.36,1.36,0,0,1-.42-.92h2.94m12-6.92a2.58,2.58,0,0,0-1.81-.8v4.36a1.06,1.06,0,0,1,.75.31,1.1,1.1,0,0,1,.3.52,3.06,3.06,0,0,0,.76-.55,2.52,2.52,0,0,0,.78-1.54l0-.45a2.55,2.55,0,0,0-.8-1.85m-26.83,0a2.49,2.49,0,0,0-.78,1.54l0,.45a2.59,2.59,0,0,0,.8,1.85,2.93,2.93,0,0,0,.86.59,1.06,1.06,0,0,1,.26-.53l0,0a1,1,0,0,1,.66-.29V25.48a2.63,2.63,0,0,0-1.81.8M34.37,52.94l.07.13.41,1h2.3l.43-1,.05-.13,1.82-4.22,1.32-3.1A9.91,9.91,0,0,1,36,46.79a10.05,10.05,0,0,1-4.77-1.17Z" fill="#f7d98f"/><path d="M37,34.12a1.57,1.57,0,0,0,.42-.92H34.44a1.36,1.36,0,0,0,.42.92,1.41,1.41,0,0,0,.69.39,2,2,0,0,0,.36,0h0a1,1,0,0,0,.36-.06A1.38,1.38,0,0,0,37,34.12Z" fill="#c66f36"/><path d="M43.2,23.41a5.14,5.14,0,0,1-.51-.45,4.82,4.82,0,0,1-1-1.49,8.43,8.43,0,0,1-.62.67,6.49,6.49,0,0,1-.78.7,8,8,0,0,1-1.29.82h0a7.31,7.31,0,0,1-3.13.73H26.7l1.7,1.71H43.58l1.77-1.77h0a4.53,4.53,0,0,1-1.78-.67h0l-.33-.25m4.4,2.07h-.79v4.7l0,0a1.08,1.08,0,0,1,.76-.31V25.48m-22.43,0h-.78v4.38l.1,0a1,1,0,0,1,.68.26V25.48m6.06,19.1v1A10.05,10.05,0,0,0,36,46.79a9.91,9.91,0,0,0,4.77-1.17v-1A9.8,9.8,0,0,1,36,45.76,9.94,9.94,0,0,1,31.23,44.58Z" fill="#efcc7f"/><path d="M43.22,9l-8.81,3.79c0,.3,1.92,3.61,1.81,4s2.21,2.54,2,2.93,3.8,1.27,3.41,1.78a4.82,4.82,0,0,0,1,1.49,5.14,5.14,0,0,0,.51.45l.33.25h0a4.53,4.53,0,0,0,1.78.67h0a3.74,3.74,0,0,0,.68.06V35c0,.17,0,.4,0,.71s0,.54,0,.7a10.72,10.72,0,0,1-.17,1.3,9.6,9.6,0,0,1-2.77,5.08,10.44,10.44,0,0,1-2.32,1.78v1l.5,1.17a23.6,23.6,0,0,0,6.74-2q5-2.36,5-5.71a5.67,5.67,0,0,0-.11-1v.09L49.44,18.58l-.12-.69a.13.13,0,0,0,0-.06,13.4,13.4,0,0,0-3.8-7A14.21,14.21,0,0,0,43.22,9M47.6,25.48a2.58,2.58,0,0,1,1.81.8,2.55,2.55,0,0,1,.8,1.85l0,.45a2.52,2.52,0,0,1-.78,1.54,3.06,3.06,0,0,1-.76.55,1,1,0,0,1,0,.25,1,1,0,0,1-.32.75,1,1,0,0,1-.75.32,1.05,1.05,0,0,1-.76-.32,1,1,0,0,1-.31-.75,1.05,1.05,0,0,1,.28-.74v-4.7h.79m-13,31.77-.89,3.63,3.63-3.63Z" fill="#603f44"/><path d="M48.65,30.67a1.1,1.1,0,0,0-.3-.52,1.06,1.06,0,0,0-.75-.31,1.08,1.08,0,0,0-.76.31l0,0a1.05,1.05,0,0,0-.28.74,1,1,0,0,0,.31.75,1.05,1.05,0,0,0,.76.32,1,1,0,0,0,.75-.32,1,1,0,0,0,.32-.75,1,1,0,0,0,0-.25M23.7,30.18a1.06,1.06,0,0,0-.26.53,1.49,1.49,0,0,0,0,.21,1,1,0,0,0,.31.75,1.05,1.05,0,0,0,.76.32,1.09,1.09,0,0,0,1.07-1.07,2,2,0,0,0,0-.25,1.29,1.29,0,0,0-.3-.52l-.07,0a1,1,0,0,0-.68-.26l-.1,0a1,1,0,0,0-.66.29l0,0M41.27,46.79l-.5-1.17-1.32,3.1-1.82,4.22-.05.13-.43,1h7.23l-.45-1L42.1,48.72l-.83-1.93m-10-1.17-.49,1.17-.83,1.93L28.08,53l-.19.44-.27.6h7.23l-.41-1-.07-.13Z" fill="#fff7bc"/><path d="M43.22,17.8V9a12.82,12.82,0,0,0-5.06-2l-.83-.12-.53,0h-.39l-.72,0a13.88,13.88,0,0,0-13.59,11l-.22,1.52-2.73,18.1A11.7,11.7,0,0,0,19,39.09q0,3.36,5,5.71a23.93,23.93,0,0,0,6.76,2l.49-1.17v-1a9.8,9.8,0,0,1-2.34-1.78,9.53,9.53,0,0,1-2.73-5.08A9.86,9.86,0,0,1,26,36V24.4h9.86A7.31,7.31,0,0,0,39,23.67h0a8,8,0,0,0,1.29-.82,6.49,6.49,0,0,0,.78-.7,8.43,8.43,0,0,0,.62-.67A8.09,8.09,0,0,0,42.6,20,7.41,7.41,0,0,0,43,18.84a7.2,7.2,0,0,0,.2-1m-18.8,7.68h.75V30.1l.07,0a1.29,1.29,0,0,1,.3.52,2,2,0,0,1,0,.25A1.09,1.09,0,0,1,24.49,32a1.05,1.05,0,0,1-.76-.32,1,1,0,0,1-.31-.75,1.49,1.49,0,0,1,0-.21,2.93,2.93,0,0,1-.86-.59,2.59,2.59,0,0,1-.8-1.85l0-.45a2.49,2.49,0,0,1,.78-1.54,2.63,2.63,0,0,1,1.81-.8h0m9.32,35.4-.48,1.95-.44,1.79L33.26,67h5.48l.44-2.38-.44-1.78-1.37-5.59-3.63,3.63m-.48-6.83.48,1.12.76,1.75.13.33h2.74l.14-.33.75-1.75.48-1.12H33.26Z" fill="#7b5057"/><path d="M42.25,67h4.94V62.06L42.25,67m1.14-8.73,3.8,3.79V58.27h-3.8M24.81,62.06V67h4.94l-4.94-4.94m0-3.79v3.79l3.8-3.79Z" fill="#7d798e"/><path d="M47.19,58.27V67h8.5c0-.2,0-.4,0-.61,0-.67-.09-1.33-.18-2a18.94,18.94,0,0,0-5.57-10.84,20.82,20.82,0,0,0-2.72-2.31v7m-22.38-7a21.65,21.65,0,0,0-2.74,2.31A18.89,18.89,0,0,0,16.53,64.4a20.11,20.11,0,0,0-.22,2.6h8.5V51.25Z" fill="#261f42"/><path d="M43.93,53l.45,1H41.12L39.18,64.62,38.74,67h3.51l4.94-4.94-3.8-3.79h3.8v-7c-.29-.21-.59-.4-.89-.59a18.15,18.15,0,0,0-4.2-1.94L43.93,53m-14-4.29-.74.24a18,18,0,0,0-3.44,1.7,3.68,3.68,0,0,0-.39.24l-.53.35v7h3.8l-3.8,3.79L29.75,67h3.51l-.44-2.38L30.9,54.05H27.62l.27-.6.19-.44Z" fill="#514c68"/><path d="M38.74,54.05l-.48,1.12-.75,1.75-.14.33,1.37,5.59V54.05m-5,1.12-.48-1.12v8.78l.48-1.95.89-3.63-.13-.33Z" fill="#d8d29f"/><path d="M41.12,54.05H38.74v8.79l.44,1.78,1.94-10.57m-7.86,0H30.9l1.92,10.57.44-1.79Z" fill="#e5dea9"/><path d="M31.31,30.32a1.64,1.64,0,0,0,0-2.32,1.59,1.59,0,0,0-1.16-.48A1.62,1.62,0,0,0,29,28a1.67,1.67,0,0,0,0,2.32,1.62,1.62,0,0,0,1.17.48A1.59,1.59,0,0,0,31.31,30.32Z" fill="#ed9959"/><path d="M43,30.32A1.64,1.64,0,0,0,40.69,28a1.64,1.64,0,0,0,0,2.32,1.65,1.65,0,0,0,2.33,0Z" fill="#ed9959"/><path d="M34.42,41.92v0a.44.44,0,0,0,.44.44h2.29a.46.46,0,0,0,.31-.13.42.42,0,0,0,.13-.31v0a.42.42,0,0,0-.13-.31.46.46,0,0,0-.31-.13H34.86a.44.44,0,0,0-.44.44Z" fill="#e2b574"/><path d="M37.38,40.24l-.17-.14A1.8,1.8,0,0,0,36,39.68H36a1.89,1.89,0,0,0-1.18.42l-.15.14a2.28,2.28,0,0,0-.36.49,3.49,3.49,0,0,0,1.68.43h.15a3.44,3.44,0,0,0,1.65-.43,1.76,1.76,0,0,0-.36-.49M36,36.37h0a2,2,0,0,0-1.18.42l-.15.15a2.06,2.06,0,0,0-.36.49h3.48a1.63,1.63,0,0,0-.36-.49l-.17-.15A1.86,1.86,0,0,0,36,36.37Z" fill="#eb4539"/><path d="M32.54,38.59a3.29,3.29,0,0,0,.91,1.52l.3.28a4.11,4.11,0,0,0,.51.34,2.28,2.28,0,0,1,.36-.49l.15-.14A1.89,1.89,0,0,1,36,39.68H36a1.8,1.8,0,0,1,1.17.42l.17.14a1.76,1.76,0,0,1,.36.49,4.11,4.11,0,0,0,.51-.34l.3-.28a3.46,3.46,0,0,0,.91-1.52Z" fill="#4b3025"/><path d="M32.4,37.43v.22a3.29,3.29,0,0,0,.14.94h6.92a3.4,3.4,0,0,0,.14-1v-.14H32.4Z" fill="#fbe5be"/><path d="M42,26a.9.9,0,0,0-1.32,0,.87.87,0,0,0-.28.66h1.9A.85.85,0,0,0,42,26M30.09,26a.88.88,0,0,0-.29.66h1.9a.85.85,0,0,0-.3-.66.88.88,0,0,0-1.31,0Z" fill="#4b3025"/></svg>