<svg xmlns="http://www.w3.org/2000/svg" xmlns:xlink="http://www.w3.org/1999/xlink" viewBox="0 0 72 72"><defs><clipPath id="a"><rect x="25.96" y="27.92" width="20.08" height="5.73" fill="none"/></clipPath><clipPath id="b"><rect x="16.53" y="61.36" width="38.93" height="5.64" fill="none"/></clipPath></defs><path d="M54.68,61.36a18.84,18.84,0,0,0-4.92-8.11,18.82,18.82,0,0,0-8.33-5l-.73-1v-.86a31.44,31.44,0,0,0,9-2.15q5.67-2.36,5.67-5.68c0-2.17-1.81-4-5.42-5.59a11.51,11.51,0,0,1-1.88-2.48,3.26,3.26,0,0,0,.6-.47,2.75,2.75,0,0,0-1.87-4.69h0V17.9a.36.36,0,0,1,0-.11v-.36a10.41,10.41,0,0,0-3.16-7.64,10.82,10.82,0,0,0-15.26,0,10.33,10.33,0,0,0-3.15,7.5v8a2.61,2.61,0,0,0-1.88.8,2.74,2.74,0,0,0,0,3.89,2.88,2.88,0,0,0,.6.47h0a11.76,11.76,0,0,1-1.88,2.48q-5.44,2.32-5.45,5.59T22.3,44.2a31.44,31.44,0,0,0,9,2.15v.86l-.72,1a18.8,18.8,0,0,0-8.34,5,18.84,18.84,0,0,0-4.92,8.11H54.68" fill="#e8bb94"/><path d="M29,54H26.61l4-5.73a18.87,18.87,0,0,0-8.34,5A18.73,18.73,0,0,0,16.53,67H31.89L29,54M45.4,54H43.05L40.13,67H55.47a18.73,18.73,0,0,0-5.71-13.76,18.89,18.89,0,0,0-8.33-5Z" fill="#32cc77"/><path d="M31.3,47.2l-.72,1.06-4,5.73H29l2.93,13h1l1.56-9.9L31.31,54H36L31.3,47.2M29.62,15.08h1.11V11.92H29.62ZM43.05,54H45.4l-4-5.73L40.7,47.2,36,54H40.7l-3.1,3.1L39.15,67h1l2.92-13M32.14,37.76a1.46,1.46,0,0,0,0,.3h7.7c0-.1,0-.19,0-.3v-.94H32.13v.87a.15.15,0,0,0,0,.07" fill="#def0f6"/><polygon points="40.7 53.99 36.01 53.99 31.31 53.99 34.42 57.1 32.87 67 39.15 67 37.6 57.09 40.7 53.99" fill="#4b4272"/><path d="M40.7,47.2V44.26a10.38,10.38,0,0,1-9.4,0v3L36,54,40.7,47.2M45,22.92H43.68v.58H40v-.58H32v.58H28.33v-.58H26l2.36,2.36h1.14a.65.65,0,0,1,.21-.49.69.69,0,0,1,.5-.21.72.72,0,0,1,.71.7H41.1a.68.68,0,0,1,.2-.49.71.71,0,0,1,.51-.21.67.67,0,0,1,.49.21.65.65,0,0,1,.21.49h1.17l1.75-1.74-.1-.16a3.29,3.29,0,0,0-.23-.33.64.64,0,0,0-.1-.13" fill="#caa387"/><path d="M26,35.59v-4.8h-.74A2.79,2.79,0,0,1,24,30.45a11.46,11.46,0,0,1-1.88,2.47q-5.44,2.32-5.45,5.6T22.3,44.2a31.44,31.44,0,0,0,9,2.14V44.25a10.42,10.42,0,0,1-2.4-1.82A9.65,9.65,0,0,1,26,35.59M32,22.92v-.59H28.33V23.5H32v-.58m4,16.76a2,2,0,0,0-1.45.59,1.89,1.89,0,0,0-.46.71,4,4,0,0,0,3.82,0,2,2,0,0,0-.47-.71A2,2,0,0,0,36,39.68M35.19,36a1.44,1.44,0,0,0-.34.27,1.63,1.63,0,0,0-.38.57h3.07a1.63,1.63,0,0,0-.38-.57,1.73,1.73,0,0,0-.35-.27,1.58,1.58,0,0,0-.81-.21,1.6,1.6,0,0,0-.81.21m8.49-13.06v-.59H40V23.5h3.72v-.58m.92-.45c.14.15.28.3.4.45a.64.64,0,0,1,.1.13,3.29,3.29,0,0,1,.23.33l.1.16a4.85,4.85,0,0,1,.62,2.3v10a9.61,9.61,0,0,1-2.93,6.64,10.09,10.09,0,0,1-2.42,1.83v2.08a31.44,31.44,0,0,0,9-2.14q5.67-2.36,5.67-5.68T50,32.93a11.81,11.81,0,0,1-1.88-2.49,2.7,2.7,0,0,1-1.26.35V25.71a2.71,2.71,0,0,1,0-.29v-.14h0V17.9a.37.37,0,0,1,0-.12v-.36a10.39,10.39,0,0,0-3.16-7.63,10.82,10.82,0,0,0-15.26,0,10.33,10.33,0,0,0-3.15,7.5v8H26V19.44a.76.76,0,0,1,0-.15,2.09,2.09,0,0,1,.64-1.36A2,2,0,0,1,28,17.29l.22,0,.21,0h1.22V11.92h1.12v3.16a10.78,10.78,0,0,0,2.05,2.79A10.39,10.39,0,0,0,40.42,21h.86a4.76,4.76,0,0,1,3.32,1.45" fill="#ea3b3f"/><path d="M29.68,24.79a.65.65,0,0,0-.21.49.67.67,0,0,0,.21.5.69.69,0,0,0,.5.21.66.66,0,0,0,.5-.21.67.67,0,0,0,.21-.5.72.72,0,0,0-.71-.7.69.69,0,0,0-.5.21m12.83.49a.65.65,0,0,0-.21-.49.67.67,0,0,0-.49-.21.71.71,0,0,0-.51.21.68.68,0,0,0-.2.49.7.7,0,0,0,.2.5.71.71,0,0,0,.51.21.72.72,0,0,0,.7-.71M32.16,38.06a2.86,2.86,0,0,0,.13.66,3.71,3.71,0,0,0,1,1.62,3.62,3.62,0,0,0,.83.64,1.89,1.89,0,0,1,.46-.71,2.06,2.06,0,0,1,2.89,0,2,2,0,0,1,.47.71,3.79,3.79,0,0,0,.82-.64,3.83,3.83,0,0,0,1-1.62,4.53,4.53,0,0,0,.13-.66Z" fill="#262041"/><path d="M46.8,25.28v.14a2.71,2.71,0,0,0,0,.29v5.08a2.7,2.7,0,0,0,1.26-.35,3.2,3.2,0,0,0,.6-.46,2.76,2.76,0,0,0-1.87-4.7m-1.37-1.74-1.75,1.74H42.51a.72.72,0,0,1-.7.71.71.71,0,0,1-.51-.21.7.7,0,0,1-.2-.5H30.89a.67.67,0,0,1-.21.5.66.66,0,0,1-.5.21.69.69,0,0,1-.5-.21.67.67,0,0,1-.21-.5H28.33L26,22.92v2.36h-.74A2.75,2.75,0,0,0,23.35,30a2.6,2.6,0,0,0,1.88.81H26v4.8a9.65,9.65,0,0,0,2.93,6.84,10.42,10.42,0,0,0,2.4,1.82,10.38,10.38,0,0,0,9.4,0,10.09,10.09,0,0,0,2.42-1.83,9.61,9.61,0,0,0,2.93-6.64V25.84a4.85,4.85,0,0,0-.62-2.3m-7.89,9.51A1.55,1.55,0,0,1,36,34.6a1.51,1.51,0,0,1-1.1-.46,1.5,1.5,0,0,1-.45-1.09v0h3.08v0m-2.69,3.2a1.44,1.44,0,0,1,.34-.27,1.6,1.6,0,0,1,.81-.21,1.58,1.58,0,0,1,.81.21,1.73,1.73,0,0,1,.35.27,1.63,1.63,0,0,1,.38.57h2.34v.94c0,.11,0,.2,0,.3a4.53,4.53,0,0,1-.13.66,3.83,3.83,0,0,1-1,1.62,3.79,3.79,0,0,1-.82.64,4,4,0,0,1-3.82,0,3.62,3.62,0,0,1-.83-.64,3.71,3.71,0,0,1-1-1.62,2.86,2.86,0,0,1-.13-.66,1.46,1.46,0,0,1,0-.3.15.15,0,0,1,0-.07v-.87h2.34a1.63,1.63,0,0,1,.38-.57M45,22.92c-.12-.15-.26-.3-.4-.45A4.76,4.76,0,0,0,41.28,21h-.86a10.39,10.39,0,0,1-7.63-3.15,11.06,11.06,0,0,1-2.06-2.79H29.62v2.21H28a2,2,0,0,0-1.35.64A2.09,2.09,0,0,0,26,19.29a.76.76,0,0,0,0,.15v3.48h2.36v-.59H32v.59H40v-.59h3.72v.59Z" fill="#e8bb94"/><path d="M37.09,34.14a1.5,1.5,0,0,0,.45-1.09v0H34.46v0a1.5,1.5,0,0,0,.45,1.09,1.51,1.51,0,0,0,1.1.46,1.48,1.48,0,0,0,1.08-.46" fill="#e98d76"/><g opacity="0.15"><g clip-path="url(#a)"><path d="M28.83,27.92a2.87,2.87,0,1,0,0,5.74,2.73,2.73,0,0,0,2-.84,2.87,2.87,0,0,0,0-4.06,2.73,2.73,0,0,0-2-.84m16.37.84a2.87,2.87,0,1,0,.84,2,2.75,2.75,0,0,0-.84-2" fill="#ea3b3f"/></g></g><g opacity="0.15"><g clip-path="url(#b)"><path d="M22.18,67V61.36L16.53,67Zm27.64-5.64V67h5.65Z" fill="#262041"/></g></g></svg>