<svg xmlns="http://www.w3.org/2000/svg" xmlns:xlink="http://www.w3.org/1999/xlink" viewBox="0 0 72 72"><defs><clipPath id="a"><rect x="25.97" y="27.92" width="20.08" height="5.73" fill="none"/></clipPath><clipPath id="b"><rect x="16.53" y="61.36" width="38.93" height="5.64" fill="none"/></clipPath></defs><path d="M31.3,47.21v-.86c-.89-.09-1.75-.21-2.59-.35a28.75,28.75,0,0,1-6.41-1.8q-5.67-2.36-5.67-5.68a3.67,3.67,0,0,1,.12-.94,4,4,0,0,1,.16-.49L24,15.44a7.46,7.46,0,0,1,.26-.8,10.45,10.45,0,0,1,.52-1.19,12.47,12.47,0,0,1,2.37-3.24A12,12,0,0,1,36,6.57a12,12,0,0,1,8.82,3.64,12.4,12.4,0,0,1,2.36,3.22,11.23,11.23,0,0,1,.8,2L55.1,37.1a4.42,4.42,0,0,1,.15.48,3.67,3.67,0,0,1,.12.94q0,3.33-5.67,5.68a31.27,31.27,0,0,1-9,2.15v.86l.73,1a18.92,18.92,0,0,1,8.34,5A18.77,18.77,0,0,1,55.47,67H16.53a18.78,18.78,0,0,1,5.71-13.76,18.87,18.87,0,0,1,8.34-5Z" fill="#f4e5c8"/><path d="M41.43,48.26,40.7,47.2,36,54H45.4ZM31.3,47.2l-.72,1.06-4,5.73H36Z" fill="#def0f6"/><path d="M36,54h-9.4l4-5.73a18.87,18.87,0,0,0-8.34,5A18.73,18.73,0,0,0,16.53,67H55.47a18.73,18.73,0,0,0-5.71-13.76,18.89,18.89,0,0,0-8.33-5l4,5.73Z" fill="#ffa76c"/><path d="M31.3,46.34v.86L36,54,40.7,47.2V44.26a10.38,10.38,0,0,1-9.4,0v2.09M43.68,25.28l1.79-1.78H26.54l1.79,1.78Z" fill="#d4c7b3"/><path d="M46.05,23.5h-.58l-1.79,1.78H28.33L26.54,23.5H26v1.78h-.75A2.75,2.75,0,0,0,23.35,30a2.69,2.69,0,0,0,.61.47,2.78,2.78,0,0,0,1.26.34H26v4.8a9.76,9.76,0,0,0,.23,2,9.5,9.5,0,0,0,2,4.07,11.18,11.18,0,0,0,3.12,2.61,10.38,10.38,0,0,0,9.4,0,10.09,10.09,0,0,0,2.42-1.83,9.62,9.62,0,0,0,2.71-4.86,10.31,10.31,0,0,0,.22-1.78v-5h.74a2.75,2.75,0,0,0,1.28-.35,3.2,3.2,0,0,0,.6-.46,2.76,2.76,0,0,0-1.89-4.7h-.73V23.5M34.91,34.14a1.5,1.5,0,0,1-.45-1.09h3.08A1.55,1.55,0,0,1,36,34.6a1.51,1.51,0,0,1-1.1-.46" fill="#f4e5c8"/><path d="M34.46,33.05a1.5,1.5,0,0,0,.45,1.09,1.51,1.51,0,0,0,1.1.46,1.55,1.55,0,0,0,1.53-1.55Z" fill="#e98d76"/><path d="M48,15.44a12.13,12.13,0,0,0-.8-2l-4,10.08h2.86v1.78h.73A2.76,2.76,0,0,1,48.67,30a3.2,3.2,0,0,1-.6.46,2.75,2.75,0,0,1-1.28.35h-.74v5a10.31,10.31,0,0,1-.22,1.78,9.62,9.62,0,0,1-2.71,4.86,10.09,10.09,0,0,1-2.42,1.83v2.08a31.44,31.44,0,0,0,9-2.14q5.67-2.36,5.67-5.68a3.81,3.81,0,0,0-.12-1,3.68,3.68,0,0,0-.15-.47L48,15.44M16.91,37.09a3,3,0,0,0-.16.48,3.81,3.81,0,0,0-.12,1q0,3.33,5.67,5.68A28.75,28.75,0,0,0,28.71,46c.84.14,1.7.25,2.59.34V44.25a11.18,11.18,0,0,1-3.12-2.61,9.5,9.5,0,0,1-2-4.07,9.76,9.76,0,0,1-.23-2v-4.8h-.75A2.78,2.78,0,0,1,24,30.45a2.69,2.69,0,0,1-.61-.47,2.76,2.76,0,0,1,1.87-4.7H26V23.5l-.15-2-1-8a11.51,11.51,0,0,0-.51,1.19c-.1.26-.19.53-.27.8Z" fill="#29a3dd"/><path d="M36,6.56a12.05,12.05,0,0,0-8.82,3.65,12.57,12.57,0,0,0-2.38,3.24V23.5H47.19V13.42a12.76,12.76,0,0,0-2.36-3.21A12,12,0,0,0,36,6.56" fill="#2bbbf9"/><path d="M36,41.47A3.85,3.85,0,0,0,37.92,41a2,2,0,0,0-.47-.71A2,2,0,0,0,36,39.68a1.93,1.93,0,0,0-1.07.29,2.28,2.28,0,0,0-.38.3,1.89,1.89,0,0,0-.46.71,3.72,3.72,0,0,0,1.69.48H36m-1.17-5.22a1.5,1.5,0,0,0-.38.57h3.07a1.66,1.66,0,0,0-.39-.57,1.31,1.31,0,0,0-.35-.27,1.52,1.52,0,0,0-.8-.21,1.58,1.58,0,0,0-.81.21,1.44,1.44,0,0,0-.34.27" fill="#ea3b3f"/><path d="M37.92,41a3.79,3.79,0,0,0,.82-.64,3.83,3.83,0,0,0,1-1.62,4.53,4.53,0,0,0,.13-.66h-7.7a2.86,2.86,0,0,0,.13.66,3.71,3.71,0,0,0,1,1.62,3.62,3.62,0,0,0,.83.64,1.89,1.89,0,0,1,.46-.71,2.28,2.28,0,0,1,.38-.3A1.93,1.93,0,0,1,36,39.68a2,2,0,0,1,1.44.59,2,2,0,0,1,.47.71" fill="#262041"/><path d="M39.88,37.76v-.94H32.13v.87a.15.15,0,0,0,0,.07,1.46,1.46,0,0,0,0,.3h7.7c0-.1,0-.19,0-.3" fill="#def0f6"/><g opacity="0.15"><g clip-path="url(#a)"><path d="M26.81,28.76a2.86,2.86,0,1,0,2-.84,2.76,2.76,0,0,0-2,.84m19.24,2a2.87,2.87,0,1,0-.84,2,2.76,2.76,0,0,0,.84-2" fill="#ea3b3f"/></g></g><g opacity="0.15"><g clip-path="url(#b)"><path d="M22.18,67V61.36L16.53,67Zm27.64,0h5.65l-5.65-5.64Z" fill="#262041"/></g></g><path d="M42.57,32.94a5.42,5.42,0,0,1-5.4-5H34.83a5.42,5.42,0,0,1-5.4,5,5.42,5.42,0,0,1-3.83-9.25,5.41,5.41,0,0,1,7.66,0,5.17,5.17,0,0,1,1.57,3.44h2.34a5.17,5.17,0,0,1,1.57-3.44,5.42,5.42,0,1,1,7.66,7.66A5.21,5.21,0,0,1,42.57,32.94Zm-4.64-5.42a4.64,4.64,0,0,0,7.92,3.28,4.64,4.64,0,0,0,0-6.56,4.64,4.64,0,0,0-7.92,3.28Zm-8.5-4.64a4.64,4.64,0,0,0-4.64,4.64,4.64,4.64,0,0,0,4.64,4.64,4.64,4.64,0,0,0,4.64-4.64,4.64,4.64,0,0,0-4.64-4.64Z" fill="#262041"/><path d="M32.05,24.7H28.34v1.16h3.71Zm11.64,0H40v1.16h3.73Z" fill="#262041"/></svg>