<svg xmlns="http://www.w3.org/2000/svg" viewBox="0 0 72 72"><path d="M55.69,66.87c0-.2,0-.37,0-.48s0-.3,0-.46c0-.45-.06-.9-.12-1.35,0-.08,0-.15,0-.23-.1-.64-.23-1.27-.39-1.9s-.25-1-.41-1.41c-.06-.19-.14-.36-.21-.54-.15-.41-.31-.82-.49-1.21,0-.06-.05-.12-.07-.17s-.16-.29-.24-.43c-.19-.38-.39-.76-.61-1.13s-.28-.45-.43-.67S52.2,56.28,52,56s-.38-.52-.59-.77-.39-.46-.59-.68-.48-.55-.74-.81l-.15-.16c-.16-.16-.34-.3-.51-.46s-.39-.39-.6-.57l-.26-.22,0,0-.09-.07c-.52-.43-1-.84-1.61-1.22v0l-.23-.14c-.3-.19-.6-.38-.91-.55-.15-.09-.3-.18-.46-.26-.36-.19-.72-.37-1.09-.54-.09,0-.17-.09-.26-.12l-.23-.12-.36-.15a7.41,7.41,0,0,0-1.88-3,5.85,5.85,0,0,0-.6-.54v-1a10.79,10.79,0,0,0,2.32-1.78A9.72,9.72,0,0,0,46,36.41a2.44,2.44,0,0,1,0-.27c0-.16,0-.36,0-.62a5.77,5.77,0,0,0,0-.68V34.3h1.18L46,33.12h0l2.17-2.17H49a2.58,2.58,0,0,0,1.85-.8,3.79,3.79,0,0,0,.38-.45,2.48,2.48,0,0,0,.4-1.09l0-.45a3.2,3.2,0,0,0-.1-.71,2.74,2.74,0,0,0-.7-1.14A2.6,2.6,0,0,0,49,25.5H48.2v-2h1.18L48.2,22.35h1.18L48.2,21.16V12.27l-1.12-1.11L45.52,9.6V6.81H29.46l-5.64,5.64v8.71l-1.19,1.19h1.19l-1.19,1.19h1.19v2h-.77a2.68,2.68,0,0,0-1.86.8,2.61,2.61,0,0,0-.78,1.88v.11a2.56,2.56,0,0,0,.78,1.85,2.64,2.64,0,0,0,1.86.8h.77L26,33.09l-1.19,1.19H26V36a9.66,9.66,0,0,0,2.93,6.82,10.82,10.82,0,0,0,2.34,1.78v1c-.24.2-.45.39-.62.56a7.15,7.15,0,0,0-1.84,3l-.38.15a19,19,0,0,0-2,1l-.15.08-.7.43c-.26.16-.51.33-.76.5l-.16.11a20.3,20.3,0,0,0-6,6.64c0,.05-.05.09-.07.14s-.18.31-.26.47c-.18.35-.34.71-.5,1.07l0,.08q-.3.72-.54,1.47c0,.1-.07.19-.1.29-.15.49-.28,1-.39,1.49,0,.13-.06.26-.08.4-.11.52-.19,1-.26,1.58,0,.07,0,.14,0,.21-.06.59-.11,1.19-.12,1.79H55.69Z" fill="#fcca81"/><path d="M28.37,10.54l-.23.25a10.33,10.33,0,0,0-2.93,7.07V31.65H26V24.38l.14-3.16a3.34,3.34,0,0,1,1.14-1.95,3.82,3.82,0,0,1,2.28-.62h.1V17.11l12.73,0v1.55a4.89,4.89,0,0,1,2.58.9,2.42,2.42,0,0,1,1,1.63L46,24.38v7.27h.76v-14a10.4,10.4,0,0,0-3.15-7.06l-.32-.31A11.64,11.64,0,0,0,41.72,9a10.4,10.4,0,0,0-5.48-1.61H36a10.41,10.41,0,0,0-7.64,3.16" fill="#ff9a24"/><path d="M55.68,66.81a18.79,18.79,0,0,0-1.79-7.69,20.24,20.24,0,0,0-5.09-6.59,21.5,21.5,0,0,0-2-1.55v0a18.22,18.22,0,0,0-6-2.64v1.76a4.69,4.69,0,0,1-1.7,3.56A4.79,4.79,0,0,1,32,52.62a5.05,5.05,0,0,1-.75-2.86v-1.4A19.91,19.91,0,0,0,18.35,58.62a19.32,19.32,0,0,0-2,8.38H55.69a1.21,1.21,0,0,0,0-.19C55.68,66.69,55.69,66.87,55.68,66.81Z" fill="#ec3939"/><rect x="29.71" y="48.78" width="12.52" height="18.22" fill="#e0cca9"/><path d="M46,32.93h0V21.51a3.24,3.24,0,0,0-.27-1.18,3,3,0,0,0-.7-.95,3.14,3.14,0,0,0-2-.91h-.62V16.4H29.55v2.09h-.62a3.11,3.11,0,0,0-2,.9,3.06,3.06,0,0,0-1,2.13V32.78h0v3a9,9,0,0,0,2.93,6.51A9.45,9.45,0,0,0,31.24,44h0v.87h0v3.79a4.3,4.3,0,0,0,1.39,3.1,5.52,5.52,0,0,0,.75.59,5,5,0,0,0,5.25,0,4.52,4.52,0,0,0,.75-.59,4.27,4.27,0,0,0,1.33-2.42,5.05,5.05,0,0,0,.06-.68V44a10.49,10.49,0,0,0,2.33-1.7A9,9,0,0,0,46,36.19a5.7,5.7,0,0,0,0-.67,5.77,5.77,0,0,0,0-.68Z" fill="#fcca81"/><path d="M28.4,26.16,26,23.72v9.37l3.57,3.56h1.59a4.83,4.83,0,0,1,1.29-2.17,4.92,4.92,0,0,1,2.13-1.28h0a.36.36,0,0,1,0-.1V26.16H28.4m17.63,7V23.72l-2.45,2.44H37.49v7a5.25,5.25,0,0,1,3.41,3.45h1.59L46,33.11m0-11.56v-.4a3.36,3.36,0,0,0-.28-1.24,3.45,3.45,0,0,0-.69-1,3.15,3.15,0,0,0-2-.94h-.62L40.26,15.8H31.72l-1.08,1.1a6.88,6.88,0,0,0-.54.54c-.06,0-.1.09-.15.13l-.1.1-.31.3h-.62a3.09,3.09,0,0,0-2,.95,3.24,3.24,0,0,0-1,2.23v2.56H46V21.55M40.7,50.28a5.51,5.51,0,0,0,.07-.71v-4a10.31,10.31,0,0,1-9.54,0v4a4.55,4.55,0,0,0,1.4,3.24,4.25,4.25,0,0,0,.75.62h5.24a4.25,4.25,0,0,0,.75-.62,4.44,4.44,0,0,0,1.33-2.53m-20.29-22a2.56,2.56,0,0,0,.78,1.85,2.64,2.64,0,0,0,1.86.8V25.5a2.68,2.68,0,0,0-1.86.8,2.61,2.61,0,0,0-.78,1.88v.11M49,30.94h0a2.58,2.58,0,0,0,1.85-.8,3.79,3.79,0,0,0,.38-.45,2.48,2.48,0,0,0,.4-1.09l0-.45a3.2,3.2,0,0,0-.1-.71,2.74,2.74,0,0,0-.7-1.14A2.6,2.6,0,0,0,49,25.5Z" fill="#fcca81"/><path d="M34.51,25.52V33.1a.36.36,0,0,0,0,.1h2.94V25.52Z" fill="#e07e3d"/><path d="M37.49,25.52v.64h6.09L46,23.72H26l2.44,2.44h6.11v-.64h3M49,30.94V25.5H48.2v5.44H49M36,54.21a4.54,4.54,0,0,0,2.62-.78H33.38a4.54,4.54,0,0,0,2.62.78m4.77-8.6v-1a10.23,10.23,0,0,1-9.54,0v1a10.31,10.31,0,0,0,9.54,0m-17-20.11h-.77v5.44h.77V25.5M42.43,18V15.8H40.26L42.43,18m-12.58-.29.1-.1c.05,0,.09-.09.15-.13a6.88,6.88,0,0,1,.54-.54l1.08-1.1H29.54V18Z" fill="#e2b574"/><path d="M23.82,22.35l-1.19,1.19h1.19v7.4L26,33.09V21.16a3.18,3.18,0,0,1,.26-1.2l-2.4,2.39" fill="#e58a20"/><path d="M34.44,41.92v0a.42.42,0,0,0,.13.31.44.44,0,0,0,.31.13h2.28a.44.44,0,0,0,.31-.13.42.42,0,0,0,.13-.31v0a.42.42,0,0,0-.13-.31.44.44,0,0,0-.31-.13H34.88a.44.44,0,0,0-.31.13A.42.42,0,0,0,34.44,41.92Z" fill="#e58a20"/><path d="M46,34.3h1.18L46,33.11l-3.54,3.54H40.9a5.25,5.25,0,0,0-3.41-3.45,1.52,1.52,0,0,1-.43.92,1.43,1.43,0,0,1-1,.43h0a1.48,1.48,0,0,1-1.47-1.35,4.92,4.92,0,0,0-2.13,1.28,4.83,4.83,0,0,0-1.29,2.17H29.53L26,33.09l-1.19,1.19H26V36a9.66,9.66,0,0,0,2.93,6.82,10.82,10.82,0,0,0,2.34,1.78,10.23,10.23,0,0,0,9.54,0,10.71,10.71,0,0,0,2.32-1.78A9.72,9.72,0,0,0,46,36.41c0-.24,0-.47,0-.7s0-.48,0-.71v-.7" fill="#ff9a24"/><path d="M33.77,40.39a2.68,2.68,0,0,1-.3-.28,3.31,3.31,0,0,1-.92-1.52,3.68,3.68,0,0,1-.14-.94v-.22h7.21v.14a3.75,3.75,0,0,1-.14,1,3.49,3.49,0,0,1-.92,1.52l-.3.28a4,4,0,0,1-.5.34,3.45,3.45,0,0,1-1.66.43H36a3.49,3.49,0,0,1-1.68-.43,4,4,0,0,1-.5-.34" fill="#ff9a24"/><path d="M34.44,41.94v0a.42.42,0,0,1,.13-.31.44.44,0,0,1,.31-.13h2.28a.44.44,0,0,1,.31.13.42.42,0,0,1,.13.31v0a.42.42,0,0,1-.13.31.44.44,0,0,1-.31.13H34.88a.44.44,0,0,1-.31-.13.42.42,0,0,1-.13-.31" fill="#ff9a24"/><path d="M37.76,40.73a2.28,2.28,0,0,0-.36-.49l-.17-.14a1.85,1.85,0,0,0-1.18-.42H36a1.84,1.84,0,0,0-1.17.42,1.07,1.07,0,0,0-.16.14,2.28,2.28,0,0,0-.36.49,3.49,3.49,0,0,0,1.68.43h.15a3.45,3.45,0,0,0,1.66-.43m-6.53,4.88v0c-.24.2-.45.39-.62.56a7.15,7.15,0,0,0-1.84,3,7.6,7.6,0,0,0-.38,2.22V56.6a1.41,1.41,0,0,0,.39.93l.06.06a1.38,1.38,0,0,0,1,.38,1.4,1.4,0,0,0,1-.41,1.32,1.32,0,0,0,.41-1v-11m10.14.54a4.87,4.87,0,0,0-.6-.54v11a1.36,1.36,0,0,0,.41,1,1.4,1.4,0,0,0,1,.41,1.38,1.38,0,0,0,1-.38L40.77,60v0l2.48-2.49a1.41,1.41,0,0,0,.36-.92V51.34a7.2,7.2,0,0,0-2.24-5.19Z" fill="#eb4539"/><path d="M32.41,37.65a3.68,3.68,0,0,0,.14.94h6.93a3.75,3.75,0,0,0,.14-1v-.14H32.41v.22m6.21,15.78a4.79,4.79,0,0,1-5.24,0,4.25,4.25,0,0,1-.75-.62,4.55,4.55,0,0,1-1.4-3.24V50l1.64,17h6.26L40.7,50.28a4.44,4.44,0,0,1-1.33,2.53A4.25,4.25,0,0,1,38.62,53.43Z" fill="#fbe5be"/><path d="M33.47,40.11a2.68,2.68,0,0,0,.3.28,4,4,0,0,0,.5.34,2.28,2.28,0,0,1,.36-.49,1.07,1.07,0,0,1,.16-.14A1.84,1.84,0,0,1,36,39.68h.09a1.85,1.85,0,0,1,1.18.42l.17.14a2.28,2.28,0,0,1,.36.49,4,4,0,0,0,.5-.34l.3-.28a3.49,3.49,0,0,0,.92-1.52H32.55A3.31,3.31,0,0,0,33.47,40.11Z" fill="#4b3025"/><path d="M42.19,58a1.4,1.4,0,0,1-1-.41,1.36,1.36,0,0,1-.41-1V60l2.39-2.39a1.38,1.38,0,0,1-1,.38m-11.37-.41a1.4,1.4,0,0,1-1,.41,1.38,1.38,0,0,1-1-.38L31.23,60V56.6a1.32,1.32,0,0,1-.41,1m-2.05-8.44-.38.15a18.7,18.7,0,0,0-4.88,3l5.27,5.27a1.41,1.41,0,0,1-.39-.93V51.34a7.6,7.6,0,0,1,.38-2.22m14.84.15-.36-.15a7.48,7.48,0,0,1,.36,2.22V56.6a1.41,1.41,0,0,1-.36.92l.22-.22.2-.21L45,55.8l3.54-3.53A19.79,19.79,0,0,0,43.61,49.27Z" fill="#b12b2b"/><path d="M43.25,57.52,40.77,60v7H55.69a4.4,4.4,0,0,0,0-.61,18.84,18.84,0,0,0-5.75-12.83c-.45-.45-.93-.88-1.42-1.29L45,55.8l-1.28,1.29-.2.21-.22.22M31.23,67V60l-2.39-2.39-.06-.06-5.27-5.27c-.49.4-1,.84-1.44,1.3A19,19,0,0,0,16.31,67Z" fill="#ec3939"/><path d="M31.23,51.43V67h1.64L31.23,50v1.44m9.54-1.86a5.51,5.51,0,0,1-.07.71L39.13,67h1.64V49.57Z" fill="#e0cca9"/><path d="M37.49,33.2h-3A1.48,1.48,0,0,0,36,34.55h0a1.43,1.43,0,0,0,1-.43A1.52,1.52,0,0,0,37.49,33.2Z" fill="#c66f36"/><path d="M47.08,11.16,45.52,9.6l-1,5.11Z" fill="#cc7a1c"/><path d="M47.08,11.16l-1.56,1.55L42.43,15.8V18h.62a3.15,3.15,0,0,1,2,.94,3.45,3.45,0,0,1,.69,1A3.36,3.36,0,0,1,46,21.15v12l2.17-2.17v-7.4h1.18L48.2,22.35h1.18L48.2,21.16V12.27l-1.12-1.11" fill="#e58a20"/><path d="M45.52,9.6V6.81H29.46l-5.64,5.64v8.71l-1.19,1.19h1.19L26.22,20a3.19,3.19,0,0,1,.7-1,3.09,3.09,0,0,1,2-.95h.62V15.8H42.43l3.09-3.09Z" fill="#ff9a24"/><path d="M43.49,24.25a.63.63,0,0,0,0-.88.59.59,0,0,0-.44-.18H40.61a.62.62,0,1,0,0,1.24h2.44a.59.59,0,0,0,.44-.18m-11.62,0a.62.62,0,0,0-.44-1.06H29a.62.62,0,0,0,0,1.24h2.45a.6.6,0,0,0,.44-.18m-1,1.91a.65.65,0,1,0-.19.44.58.58,0,0,0,.19-.44m11.44-.44a.58.58,0,0,0-.44-.19.56.56,0,0,0-.44.19.58.58,0,0,0,0,.88.56.56,0,0,0,.44.19.62.62,0,0,0,.44-1.07Z" fill="#4b3025"/><path d="M31.3,30.37a1.57,1.57,0,0,0,.48-1.16,1.59,1.59,0,0,0-.48-1.16,1.57,1.57,0,0,0-1.16-.48,1.64,1.64,0,0,0-1.64,1.64A1.57,1.57,0,0,0,29,30.37a1.59,1.59,0,0,0,1.16.48A1.57,1.57,0,0,0,31.3,30.37Z" fill="#ed9959"/><path d="M41.84,27.57a1.59,1.59,0,0,0-1.16.48,1.64,1.64,0,0,0,0,2.32,1.59,1.59,0,0,0,1.16.48,1.64,1.64,0,1,0,0-3.28Z" fill="#ed9959"/></svg>