<svg xmlns="http://www.w3.org/2000/svg" xmlns:xlink="http://www.w3.org/1999/xlink" viewBox="0 0 72 72"><defs><clipPath id="a"><rect x="25.98" y="28.07" width="20.08" height="5.73" fill="none"/></clipPath><clipPath id="b"><rect x="16.55" y="61.36" width="38.93" height="5.64" fill="none"/></clipPath></defs><path d="M49.78,53.24A18.75,18.75,0,0,1,55.48,67H16.55a18.75,18.75,0,0,1,5.7-13.76c.18-.18.35-.35.53-.51v-.92a5.13,5.13,0,0,1,.28-1.72,5.07,5.07,0,0,1,.82-1.49A9.94,9.94,0,0,1,16.21,39a10,10,0,0,1,6.72-9.39,2.6,2.6,0,0,1-.38-1.38,2.77,2.77,0,0,1,2.69-2.75v-8a10.27,10.27,0,0,1,2.51-6.8c.2-.24.41-.47.64-.7A10.46,10.46,0,0,1,33.59,7,11.25,11.25,0,0,1,36,6.79h.07a11.06,11.06,0,0,1,2.47.27,10.41,10.41,0,0,1,5.09,2.88c.25.25.48.5.7.76a10.34,10.34,0,0,1,2.46,6.87v.36a.37.37,0,0,0,0,.12v7.38a2.68,2.68,0,0,1,1.89.81,2.65,2.65,0,0,1,.81,1.94,2.73,2.73,0,0,1-.38,1.39A10,10,0,0,1,55.79,39a9.53,9.53,0,0,1-2.9,7,9.43,9.43,0,0,1-4.74,2.65,4.82,4.82,0,0,1,.83,1.5,5.13,5.13,0,0,1,.28,1.72v.93Z" fill="#bb9065"/><path d="M55.79,39a9.9,9.9,0,0,0-9.89-9.9A9.9,9.9,0,0,0,36,39a9.88,9.88,0,0,0,9.9,9.89A9.88,9.88,0,0,0,55.79,39" fill="#613325"/><path d="M19.11,32a9.9,9.9,0,0,0,0,14,9.54,9.54,0,0,0,7,2.89A9.88,9.88,0,0,0,36,39a9.9,9.9,0,0,0-9.9-9.9,9.55,9.55,0,0,0-7,2.9" fill="#613325"/><path d="M39.33,51.77a4.49,4.49,0,0,0,1.32-2.52q0-.3.06-.6V43.41a10.28,10.28,0,0,1-9.39,0v5.16a3.85,3.85,0,0,0,.06.69A4.72,4.72,0,0,0,36,53.14a4.51,4.51,0,0,0,3.31-1.37" fill="#bb9065"/><path d="M39.33,52.77a4.49,4.49,0,0,0,1.32-2.52q0-.3.06-.6V44.41a10.32,10.32,0,0,1-9.39,0v5.15a3.85,3.85,0,0,0,.06.69A4.72,4.72,0,0,0,36,54.14a4.51,4.51,0,0,0,3.31-1.37" fill="#a47e5f"/><path d="M40,23.65v-.58H32.06v.58H28.35v-.58H26l2.37,2.36h1.13a.68.68,0,0,1,.22-.49.65.65,0,0,1,.49-.21.69.69,0,0,1,.51.21.67.67,0,0,1,.21.49h10.2a.67.67,0,0,1,.21-.49.7.7,0,0,1,1,0,.7.7,0,0,1,.2.49h1.17l2.37-2.36H43.69v.58Z" fill="#a47e5f"/><path d="M28.35,23.07v.58h3.71V22.48H28.35v.59m11.62,0v.58h3.72V22.48H40v.59M36,6.79a10.65,10.65,0,0,0-2.43.26,10.36,10.36,0,0,0-5.2,2.89c-.23.23-.44.47-.64.7a10.29,10.29,0,0,0-2.51,6.8v8H26V17.75a6.38,6.38,0,0,1,2.93-5.16l.29-.2a10.88,10.88,0,0,1,4.32-1.76A14.24,14.24,0,0,1,36,10.41h.07a15.5,15.5,0,0,1,2.51.23,11.18,11.18,0,0,1,4.3,1.78l.22.17a6.39,6.39,0,0,1,3,5.26v7.58h.73V18.05a.37.37,0,0,1,0-.12v-.35a10.35,10.35,0,0,0-2.46-6.88c-.22-.26-.45-.51-.7-.76a10.32,10.32,0,0,0-5.09-2.87,11.06,11.06,0,0,0-2.47-.28Z" fill="#613325"/><path d="M30.7,25.93a.69.69,0,0,0,0-1,.69.69,0,0,0-.51-.21.65.65,0,0,0-.49.21.67.67,0,0,0,0,1,.65.65,0,0,0,.49.21.69.69,0,0,0,.51-.21m10.62-1a.69.69,0,0,0,0,1,.7.7,0,0,0,1,0,.71.71,0,0,0,0-1,.7.7,0,0,0-1,0" fill="#262041"/><path d="M29.21,12.39l-.29.2A6.38,6.38,0,0,0,26,17.75v5.32h2.37v-.59h3.71v.59H40v-.59h3.72v.59h2.37V17.85a6.39,6.39,0,0,0-3-5.26l-.22-.17a11,11,0,0,0-4.3-1.77,14.44,14.44,0,0,0-2.51-.24H36a14.24,14.24,0,0,0-2.49.22,10.88,10.88,0,0,0-4.32,1.76m20.28,15.8a2.77,2.77,0,0,0-2.7-2.76h-.73V23.07l-2.37,2.36H42.52a.7.7,0,0,1-.2.5.7.7,0,0,1-1,0,.67.67,0,0,1-.21-.5H30.91a.67.67,0,0,1-.21.5.69.69,0,0,1-.51.21.65.65,0,0,1-.49-.21.68.68,0,0,1-.22-.5H28.35L26,23.07v2.36h-.74a2.75,2.75,0,0,0-1.88,4.7,2.59,2.59,0,0,0,.6.46,2.78,2.78,0,0,0,1.28.35H26v4.81a9.7,9.7,0,0,0,2.94,6.84l.08.08a10.74,10.74,0,0,0,2.32,1.74A9.9,9.9,0,0,0,43,42.67a.34.34,0,0,0,.09-.08,9.59,9.59,0,0,0,2.93-6.65v-5h.74a2.78,2.78,0,0,0,1.28-.35,2.82,2.82,0,0,0,.6-.46,2.65,2.65,0,0,0,.81-1.94m-15,5v-.06h3.08v.06a1.47,1.47,0,0,1-.45,1.08,1.44,1.44,0,0,1-1.08.46,1.49,1.49,0,0,1-1.1-.46,1.47,1.47,0,0,1-.45-1.08" fill="#bb9065"/><path d="M34.47,33.15v.06a1.47,1.47,0,0,0,.45,1.08,1.49,1.49,0,0,0,1.1.46,1.44,1.44,0,0,0,1.08-.46,1.47,1.47,0,0,0,.45-1.08v-.06Z" fill="#cb7157"/><g opacity="0.15"><g clip-path="url(#a)"><path d="M28.85,28.07a2.87,2.87,0,1,0,0,5.74,2.73,2.73,0,0,0,2-.84,2.87,2.87,0,0,0,0-4.06,2.73,2.73,0,0,0-2-.84m16.37.84a2.87,2.87,0,0,0-4.89,2,2.87,2.87,0,0,0,2.87,2.87,2.73,2.73,0,0,0,2-.84,2.87,2.87,0,0,0,0-4.06" fill="#ea3b3f"/></g></g><path d="M48,31.7a1.07,1.07,0,0,0,.34-.8,1.14,1.14,0,0,0-1.14-1.14,1.13,1.13,0,0,0-1.14,1.14,1.09,1.09,0,0,0,.33.8,1.14,1.14,0,0,0,.81.34,1.1,1.1,0,0,0,.8-.34" fill="#ea3b3f"/><path d="M25.64,31.7a1.07,1.07,0,0,0,.34-.8,1.14,1.14,0,0,0-1.14-1.14A1.13,1.13,0,0,0,23.7,30.9a1.09,1.09,0,0,0,.33.8,1.14,1.14,0,0,0,.81.34,1.1,1.1,0,0,0,.8-.34" fill="#ea3b3f"/><path d="M35.8,41.61H36a3.72,3.72,0,0,0,1.91-.49,2,2,0,0,0-.47-.71A2,2,0,0,0,36,39.83a1.94,1.94,0,0,0-1.07.3,2.12,2.12,0,0,0-.38.29,2,2,0,0,0-.46.71,3.72,3.72,0,0,0,1.69.48m-.95-5.21a1.67,1.67,0,0,0-.38.58h3.07a1.67,1.67,0,0,0-.38-.58,1.73,1.73,0,0,0-.35-.27,1.57,1.57,0,0,0-.81-.2,1.6,1.6,0,0,0-.81.2,1.44,1.44,0,0,0-.34.27" fill="#ea3b3f"/><path d="M32.17,38.21a3.78,3.78,0,0,0,.13.67,3.68,3.68,0,0,0,1,1.61,3.84,3.84,0,0,0,.83.64,2,2,0,0,1,.46-.71,2.12,2.12,0,0,1,.38-.29,1.94,1.94,0,0,1,1.07-.3,2,2,0,0,1,1.44.59,2,2,0,0,1,.47.71,3.56,3.56,0,0,0,.82-.64,3.8,3.8,0,0,0,1-1.61,3.05,3.05,0,0,0,.13-.67Z" fill="#262041"/><path d="M32.15,37.92a2.83,2.83,0,0,0,0,.29h7.7a2.83,2.83,0,0,1,0-.29V37H32.14v.86s0,0,0,.08" fill="#def0f6"/><path d="M29.17,52.24v-.1a2.11,2.11,0,0,0-.65-1.4,2.19,2.19,0,0,0-1.32-.65h-.52a2.09,2.09,0,0,0-.87.29l-.11.07a20,20,0,0,0-2.92,2.28l-.53.51A18.75,18.75,0,0,0,16.55,67H31.32V58.2H29.17V52.6a1.09,1.09,0,0,0,0-.18v0h0a.53.53,0,0,0,0-.13m17.29-1.71-.35-.22a2.05,2.05,0,0,0-.74-.22h-.52a2.09,2.09,0,0,0-.87.29l-.11.07a1.86,1.86,0,0,0-.35.29,2.14,2.14,0,0,0-.65,1.58v0h0V58.2H40.71V67H55.48a18.75,18.75,0,0,0-5.7-13.76l-.52-.5a19.82,19.82,0,0,0-2.8-2.21" fill="#29a3dd"/><path d="M31.32,46.65H27.51a5.21,5.21,0,0,0-4.45,3.44,5.13,5.13,0,0,0-.28,1.72v.92a20,20,0,0,1,2.92-2.28l.11-.07a2.09,2.09,0,0,1,.87-.29h.52a2.19,2.19,0,0,1,1.32.65,2.11,2.11,0,0,1,.65,1.4v.1a.53.53,0,0,1,0,.13h0v0a1.09,1.09,0,0,1,0,.18v5.6h2.15V46.65m14.79,3.66.35.22a19.82,19.82,0,0,1,2.8,2.21v-.93A5.13,5.13,0,0,0,49,50.09a5.21,5.21,0,0,0-4.45-3.44H40.71V58.2h2.14V52.34h0v0a2.15,2.15,0,0,1,.65-1.58,1.86,1.86,0,0,1,.35-.29l.11-.07a2.09,2.09,0,0,1,.87-.29h.52a2.05,2.05,0,0,1,.74.22" fill="#2bbbf9"/><path d="M40.71,49.5a5.61,5.61,0,0,1-.06.59,4.43,4.43,0,0,1-1.32,2.52,4.67,4.67,0,0,1-6.63,0,4.55,4.55,0,0,1-1.32-2.52,3.74,3.74,0,0,1-.06-.68V67h9.39V49.5Z" fill="#def0f6"/><g opacity="0.15"><g clip-path="url(#b)"><path d="M49.84,67h5.64l-5.64-5.64ZM16.55,67h5.64V61.36Z" fill="#262041"/></g></g></svg>