<svg xmlns="http://www.w3.org/2000/svg" xmlns:xlink="http://www.w3.org/1999/xlink" viewBox="0 0 72 72"><defs><clipPath id="a"><path d="M42.36,7.18A12.55,12.55,0,0,0,36,5.54,12.32,12.32,0,0,0,29.64,7.2a7.24,7.24,0,0,0-.9.58c-.2.13-.39.27-.58.42a14.33,14.33,0,0,0-1.24,1.1,14.5,14.5,0,0,0-1.23,1.4,11,11,0,0,0-1,1.5,12.38,12.38,0,0,0-1.56,5.87V38a6.41,6.41,0,0,0,.06.8,12.24,12.24,0,0,0,2,5.57v19a1.17,1.17,0,0,0,.34.78,1.16,1.16,0,0,0,1.62,0,1.17,1.17,0,0,0,.34-.78v-39H24.06l5.45-5.44c.16-.19.32-.37.48-.53s.35-.34.53-.49a8.58,8.58,0,0,1,9.49-1,8.84,8.84,0,0,1,2,1.51,9,9,0,0,1,1.1,1.32A8.32,8.32,0,0,1,44.49,24V63.36a1.16,1.16,0,0,0,.33.77,1.11,1.11,0,0,0,.82.34,1.07,1.07,0,0,0,.81-.34,1.12,1.12,0,0,0,.34-.77v-19a12.27,12.27,0,0,0,2-6.07V17.74a12.34,12.34,0,0,0-1.55-5.56,13.07,13.07,0,0,0-1-1.48,14.29,14.29,0,0,0-2.48-2.51A12.8,12.8,0,0,0,42.36,7.18Z" fill="#d4d3da"/></clipPath></defs><ellipse cx="39.39" cy="16.61" rx="2.83" ry="3.36" fill="#ec3939"/><path d="M28.37,10.54l-.23.25a10.33,10.33,0,0,0-2.93,7.07V31.65H26V24.38l.14-3.16a3.34,3.34,0,0,1,1.14-1.95,3.82,3.82,0,0,1,2.28-.62h.1V17.11l12.73,0v1.55a4.89,4.89,0,0,1,2.58.9,2.42,2.42,0,0,1,1,1.63L46,24.38v7.27h.76v-14a10.4,10.4,0,0,0-3.15-7.06l-.32-.31A11.64,11.64,0,0,0,41.72,9a10.4,10.4,0,0,0-5.48-1.61H36a10.41,10.41,0,0,0-7.64,3.16" fill="#ec3939"/><path d="M46,33.71h0v-12a3.35,3.35,0,0,0-.27-1.24,3.32,3.32,0,0,0-.7-1,3.09,3.09,0,0,0-2-.95h-.62V16.4H29.55v2.19h-.62a3.1,3.1,0,0,0-2,.94,3.29,3.29,0,0,0-1,2.23V33.55h0v3.13A9.66,9.66,0,0,0,28.9,43.5a9.43,9.43,0,0,0,2.34,1.78h0v4.89a4.62,4.62,0,0,0,1.39,3.25,6.83,6.83,0,0,0,.75.62,4.86,4.86,0,0,0,5.25,0,5.36,5.36,0,0,0,.75-.62,4.56,4.56,0,0,0,1.33-2.54,5.51,5.51,0,0,0,.06-.71V45.28A10.81,10.81,0,0,0,43.1,43.5,9.61,9.61,0,0,0,46,37.12a8.3,8.3,0,0,0,0-1.41Z" fill="#fcca81"/><path d="M55.68,66.81a18.79,18.79,0,0,0-1.79-7.69,20.24,20.24,0,0,0-5.09-6.59,21.5,21.5,0,0,0-2-1.55v0a18.22,18.22,0,0,0-6-2.64v1.76a4.69,4.69,0,0,1-1.7,3.56A4.79,4.79,0,0,1,32,52.62a5.05,5.05,0,0,1-.75-2.86v-1.4A19.91,19.91,0,0,0,18.35,58.62a19.32,19.32,0,0,0-2,8.38H55.69a1.21,1.21,0,0,0,0-.19C55.68,66.69,55.69,66.87,55.68,66.81Z" fill="#603f44"/><path d="M23.26,52.47c-.4.34-.8.71-1.19,1.09A19,19,0,0,0,16.31,67H27.5V63.42a1.17,1.17,0,0,1-.34.78,1.16,1.16,0,0,1-1.62,0,1.17,1.17,0,0,1-.34-.78l-1.94-11" fill="#7b5057"/><path d="M24.08,5a.93.93,0,0,0-.19.11,3.39,3.39,0,0,0-.73.56,3.45,3.45,0,0,0-1.05,2.49A3.41,3.41,0,0,0,23,10.48l.4.4,1.32,1.32a11,11,0,0,1,1-1.5L24.63,9.64l-.12-.11a.35.35,0,0,1-.07-.09A1.63,1.63,0,0,1,24,8.28,1.71,1.71,0,0,1,24.51,7a2.31,2.31,0,0,1,.38-.28l.09,0a1.55,1.55,0,0,1,.78-.19A1.73,1.73,0,0,1,27,7l.09.09a0,0,0,0,1,0,0l1.05,1c.19-.15.38-.29.58-.42a7.24,7.24,0,0,1,.9-.58L28.35,5.9s0,0,0,0l-.18-.19A3.52,3.52,0,0,0,24.08,5" fill="#7d798e"/><path d="M47.89,5a3.67,3.67,0,0,0-1.55-.36A3.42,3.42,0,0,0,44,5.52l-.4.4L42.36,7.18a12.8,12.8,0,0,1,1.47,1l1-1L45,7l.1-.08a1.65,1.65,0,0,1,1.15-.44A1.86,1.86,0,0,1,47.46,7a1.77,1.77,0,0,1,.48.82,1.93,1.93,0,0,1,.05.42,1.76,1.76,0,0,1-.53,1.25l-.09.1L46.31,10.7a13.07,13.07,0,0,1,1,1.48l1.31-1.3,0,0,.19-.18a3.44,3.44,0,0,0,1-2.5,3.52,3.52,0,0,0-.1-.87,3.62,3.62,0,0,0-.94-1.62A4,4,0,0,0,47.89,5" fill="#7d798e"/><path d="M55.69,67c0-.2,0-.4,0-.61a18.88,18.88,0,0,0-5.75-12.83c-.38-.38-.78-.75-1.18-1.09L46.79,63.36a1.12,1.12,0,0,1-.34.77,1.07,1.07,0,0,1-.81.34,1.11,1.11,0,0,1-.82-.34,1.16,1.16,0,0,1-.33-.77V67Z" fill="#7b5057"/><path d="M25.2,51a18.8,18.8,0,0,0-1.94,1.48l1.94,11V51m21.59,0V63.36l1.94-10.89A20.46,20.46,0,0,0,46.79,51m-6-2.62v1.82a4.69,4.69,0,0,1-.65,2.29,6.37,6.37,0,0,1-.75.93,4.78,4.78,0,0,1-6.74,0,5.69,5.69,0,0,1-.74-.93,4.68,4.68,0,0,1-.66-2.34V48.36L27.5,52.09V67h17V52.08Z" fill="#603f44"/><path d="M31.23,48.36c-.44.1-.87.22-1.3.35h0a17,17,0,0,0-2.39,1v2.41l3.73-3.73m10.87.36h0c-.43-.13-.86-.25-1.3-.35l3.72,3.72V49.66A18.81,18.81,0,0,0,42.1,48.72Z" fill="#473d2e"/><path d="M31.23,44.58a9.8,9.8,0,0,1-2.34-1.78,10.9,10.9,0,0,1-1.39-1.7v8.58a17,17,0,0,1,2.39-1h0c.43-.13.86-.25,1.3-.35V44.58M43.09,42.8a10.44,10.44,0,0,1-2.32,1.78v3.78c.44.1.87.22,1.3.35h0a18.81,18.81,0,0,1,2.39.94V41.1a10.43,10.43,0,0,1-1.4,1.7M25,6.71l-.09,0a2.31,2.31,0,0,0-.38.28A1.71,1.71,0,0,0,24,8.28a1.63,1.63,0,0,0,.44,1.16.35.35,0,0,0,.07.09l.12.11,1.06,1.06a14.5,14.5,0,0,1,1.23-1.4,14.33,14.33,0,0,1,1.24-1.1l-1.05-1a0,0,0,0,0,0,0L27,7a1.73,1.73,0,0,0-1.25-.52,1.55,1.55,0,0,0-.78.19m19.88.45-1,1a14.29,14.29,0,0,1,2.48,2.51l1.06-1.07.09-.1A1.76,1.76,0,0,0,48,8.28a1.93,1.93,0,0,0-.05-.42A1.77,1.77,0,0,0,47.46,7a1.86,1.86,0,0,0-1.24-.52A1.65,1.65,0,0,0,45.07,7L45,7Z" fill="#a8a5b3"/><path d="M40.77,45.63A9.8,9.8,0,0,1,36,46.81a9.94,9.94,0,0,1-4.77-1.18v4.5a4.68,4.68,0,0,0,.66,2.34,5.69,5.69,0,0,0,.74.93,4.78,4.78,0,0,0,6.74,0,6.37,6.37,0,0,0,.75-.93,4.69,4.69,0,0,0,.65-2.29V45.63M32.21,24.38H27.5V41.1a10.9,10.9,0,0,0,1.39,1.7,9.8,9.8,0,0,0,2.34,1.78A9.94,9.94,0,0,0,36,45.76a9.8,9.8,0,0,0,4.77-1.18,11.3,11.3,0,0,0,3.72-3.48V24.17A7.71,7.71,0,0,1,40.74,22,8.46,8.46,0,0,1,39.2,20,8.16,8.16,0,0,1,37.67,22l-.06.06-.14.14a7.67,7.67,0,0,1-5.26,2.17m2.65,9.74a1.36,1.36,0,0,1-.42-.92h2.94a1.57,1.57,0,0,1-.42.92,1.45,1.45,0,0,1-1,.43h0a1.47,1.47,0,0,1-1-.43M23,10.48a1.54,1.54,0,0,0,.17.19,2.19,2.19,0,0,0,.23.21l-.4-.4m20.84-4.8a2.25,2.25,0,0,0-.21.24l.4-.4Z" fill="#fcca81"/><path d="M40.77,45.63V44.58A9.8,9.8,0,0,1,36,45.76a9.94,9.94,0,0,1-4.77-1.18v1.05A9.94,9.94,0,0,0,36,46.81,9.8,9.8,0,0,0,40.77,45.63Z" fill="#e2b574"/><path d="M39.2,20A8.46,8.46,0,0,0,40.74,22a7.71,7.71,0,0,0,3.75,2.16V24a8.32,8.32,0,0,0-1.38-4.26A9,9,0,0,0,42,18.41a8.84,8.84,0,0,0-2-1.51v.22a6.91,6.91,0,0,1-.16,1A7.47,7.47,0,0,1,39.2,20Z" fill="#b12b2b"/><path d="M34.44,33.2a1.36,1.36,0,0,0,.42.92,1.47,1.47,0,0,0,1,.43h0a1.45,1.45,0,0,0,1-.43,1.57,1.57,0,0,0,.42-.92H34.44Z" fill="#c66f36"/><path d="M30.52,17.92c-.18.15-.36.32-.53.49s-.32.34-.48.53l-5.45,5.44h8.15a7.67,7.67,0,0,0,5.26-2.17l.14-.14.06-.06A8.16,8.16,0,0,0,39.2,20a7.47,7.47,0,0,0,.65-1.8,6.91,6.91,0,0,0,.16-1V16.9a8.58,8.58,0,0,0-9.49,1Z" fill="#ec3939"/><path d="M42.36,7.18A12.55,12.55,0,0,0,36,5.54,12.32,12.32,0,0,0,29.64,7.2a7.24,7.24,0,0,0-.9.58c-.2.13-.39.27-.58.42a14.33,14.33,0,0,0-1.24,1.1,14.5,14.5,0,0,0-1.23,1.4,11,11,0,0,0-1,1.5,12.38,12.38,0,0,0-1.56,5.87V38a6.41,6.41,0,0,0,.06.8,12.24,12.24,0,0,0,2,5.57v19a1.17,1.17,0,0,0,.34.78,1.16,1.16,0,0,0,1.62,0,1.17,1.17,0,0,0,.34-.78v-39H24.06l5.45-5.44c.16-.19.32-.37.48-.53s.35-.34.53-.49a8.58,8.58,0,0,1,9.49-1,8.84,8.84,0,0,1,2,1.51,9,9,0,0,1,1.1,1.32A8.32,8.32,0,0,1,44.49,24V63.36a1.16,1.16,0,0,0,.33.77,1.11,1.11,0,0,0,.82.34,1.07,1.07,0,0,0,.81-.34,1.12,1.12,0,0,0,.34-.77v-19a12.27,12.27,0,0,0,2-6.07V17.74a12.34,12.34,0,0,0-1.55-5.56,13.07,13.07,0,0,0-1-1.48,14.29,14.29,0,0,0-2.48-2.51A12.8,12.8,0,0,0,42.36,7.18Z" fill="#d4d3da"/><g clip-path="url(#a)"><rect x="24.43" y="55.62" width="22.74" height="2.33" fill="#7d798e"/><rect x="24.43" y="51.01" width="22.74" height="2.33" fill="#7d798e"/><rect x="24.43" y="60.23" width="22.74" height="2.33" fill="#7d798e"/></g><path d="M29.5,31a1.62,1.62,0,0,0,1.16.48,1.65,1.65,0,1,0,0-3.29,1.62,1.62,0,0,0-1.16.48,1.65,1.65,0,0,0,0,2.33Z" fill="#ed9959"/><path d="M42.5,31a1.65,1.65,0,0,0-1.16-2.81,1.62,1.62,0,0,0-1.17.48,1.68,1.68,0,0,0,0,2.33,1.62,1.62,0,0,0,1.17.48A1.59,1.59,0,0,0,42.5,31Z" fill="#ed9959"/><path d="M34.86,41.48a.44.44,0,0,0-.44.44v0a.44.44,0,0,0,.44.44h2.29a.46.46,0,0,0,.31-.13.42.42,0,0,0,.13-.31v0a.42.42,0,0,0-.13-.31.46.46,0,0,0-.31-.13Z" fill="#e2b574"/><path d="M34.77,40.1l-.15.14a2.28,2.28,0,0,0-.36.49,3.49,3.49,0,0,0,1.68.43h.15a3.44,3.44,0,0,0,1.65-.43,1.76,1.76,0,0,0-.36-.49l-.17-.14A1.8,1.8,0,0,0,36,39.68H36a1.89,1.89,0,0,0-1.18.42M36,36.37h0a2,2,0,0,0-1.18.42l-.15.15a2.06,2.06,0,0,0-.36.49h3.48a1.63,1.63,0,0,0-.36-.49,1.22,1.22,0,0,0-.17-.15A1.86,1.86,0,0,0,36,36.37Z" fill="#eb4539"/><path d="M38.55,40.11a3.46,3.46,0,0,0,.91-1.52H32.54a3.29,3.29,0,0,0,.91,1.52l.3.28a4.11,4.11,0,0,0,.51.34,2.28,2.28,0,0,1,.36-.49l.15-.14A1.89,1.89,0,0,1,36,39.68H36a1.8,1.8,0,0,1,1.17.42l.17.14a1.76,1.76,0,0,1,.36.49,4.11,4.11,0,0,0,.51-.34Z" fill="#4b3025"/><path d="M39.6,37.53v-.1H32.4v.22a3.29,3.29,0,0,0,.14.94h6.92a3.4,3.4,0,0,0,.14-1Z" fill="#fbe5be"/><path d="M37.06,13H34.85l-.67.67,1.11,1.76h1.34l1.1-1.76Z" fill="#7d798e"/><path d="M33.09,8.9a1.95,1.95,0,0,0-2.67,0l-2,2a1.82,1.82,0,0,0-.54,1.34,1.9,1.9,0,0,0,1.87,1.88,1.82,1.82,0,0,0,1.34-.54l2-2a1.84,1.84,0,0,0,.55-1.33,1.87,1.87,0,0,0-.55-1.35m5.8,0a2,2,0,0,0,0,2.68l2,2a1.85,1.85,0,0,0,1.35.54,1.77,1.77,0,0,0,1.31-.56,1.74,1.74,0,0,0,.56-1.32,1.82,1.82,0,0,0-.54-1.34l-2-2a1.82,1.82,0,0,0-1.33-.54A1.86,1.86,0,0,0,38.89,8.9Z" fill="#7d798e"/><path d="M42,25.62a.88.88,0,0,0-1.32,0,.88.88,0,0,0-.29.66h1.9a.88.88,0,0,0-.29-.66M30,25.62a.87.87,0,0,0-.28.66h1.9a1,1,0,0,0-1-1A.87.87,0,0,0,30,25.62Z" fill="#4b3025"/><path d="M24.11,24.38l3.39,3.38v4.42l10-10a7.67,7.67,0,0,1-5.26,2.17Z" fill-opacity="0.1"/><path d="M39.75,18.1l.1,0a9.2,9.2,0,0,1,2,1.23A8.85,8.85,0,0,1,43,20.46,6.08,6.08,0,0,1,44.49,24v0a8.32,8.32,0,0,0-1.38-4.26A9,9,0,0,0,42,18.41a8.84,8.84,0,0,0-2-1.51,8.21,8.21,0,0,0-4-1,8.11,8.11,0,0,0-5.48,2c-.18.15-.35.32-.53.49s-.33.34-.49.52l-.85.86c.17-.14.34-.29.52-.42s.37-.29.56-.42a10.07,10.07,0,0,1,5.78-1.66A10.72,10.72,0,0,1,39.75,18.1Z" fill-opacity="0.2"/><path d="M32.16,10.57a.56.56,0,0,0,.17-.4.58.58,0,0,0-.57-.57.56.56,0,0,0-.4.17.54.54,0,0,0-.17.4.58.58,0,0,0,.57.57.54.54,0,0,0,.4-.17m8.45,0a.56.56,0,0,0,.17-.4.58.58,0,0,0-.57-.57.56.56,0,0,0-.4.17.54.54,0,0,0-.17.4.58.58,0,0,0,.57.57A.54.54,0,0,0,40.61,10.57Z" fill="#a8a5b3"/></svg>