<svg xmlns="http://www.w3.org/2000/svg" viewBox="0 0 72 72"><path d="M55.69,66.88a4.88,4.88,0,0,0,0-.49c0-.16,0-.31,0-.47,0-.45-.06-.89-.12-1.34,0-.09,0-.17,0-.26-.09-.62-.22-1.24-.37-1.85s-.26-1-.42-1.43c-.06-.18-.14-.36-.2-.54-.16-.41-.32-.82-.5-1.22a1.11,1.11,0,0,1-.07-.16c-.07-.15-.16-.28-.23-.43-.2-.38-.4-.76-.62-1.13s-.28-.45-.43-.67S52.2,56.28,52,56s-.38-.52-.59-.76-.39-.47-.59-.7-.48-.54-.74-.79l-.15-.17c-.16-.16-.34-.31-.51-.46s-.39-.39-.6-.57-.18-.14-.26-.22l0,0-.09-.07c-.52-.43-1-.84-1.61-1.22v0l-.22-.13c-.3-.2-.61-.39-.92-.57l-.46-.25c-.36-.2-.73-.38-1.1-.55l-.24-.11-.24-.12-.36-.15a7.41,7.41,0,0,0-1.88-3,5.85,5.85,0,0,0-.6-.54v-1a10.79,10.79,0,0,0,2.32-1.78A9.72,9.72,0,0,0,46,36.41v-.23a5.14,5.14,0,0,0,0-.64,5.89,5.89,0,0,0,0-.68V33.11l2.17-2.17H49a2.58,2.58,0,0,0,1.85-.8,3.79,3.79,0,0,0,.38-.45,2.48,2.48,0,0,0,.4-1.09l0-.45a3.2,3.2,0,0,0-.1-.71,2.74,2.74,0,0,0-.7-1.14,3.79,3.79,0,0,0-.55-.44l.18-.31A14.61,14.61,0,0,0,51.53,23a16.58,16.58,0,0,0,.71-4.9c0-.32,0-.65,0-1A15.54,15.54,0,0,0,47.47,6.58,15.63,15.63,0,0,0,36,1.83,15.72,15.72,0,0,0,24.51,6.58,15.64,15.64,0,0,0,19.8,17.11c0,.31,0,.64,0,1A16,16,0,0,0,20.5,23a13.47,13.47,0,0,0,1.06,2.61c.05.1.1.21.16.31a2.9,2.9,0,0,0-.53.41,2.61,2.61,0,0,0-.78,1.88v.11a2.56,2.56,0,0,0,.78,1.85,2.64,2.64,0,0,0,1.86.8h.77L26,33.09V36a9.66,9.66,0,0,0,2.93,6.82,10.82,10.82,0,0,0,2.34,1.78v1c-.24.2-.44.39-.62.56a7.28,7.28,0,0,0-1.85,3l-.37.15a17.06,17.06,0,0,0-2,1l-.16.08-.7.42-.77.52-.15.1a20.3,20.3,0,0,0-6,6.64c0,.05-.05.09-.07.14s-.18.31-.26.47c-.18.35-.34.71-.5,1.08l0,.07q-.3.72-.54,1.47c0,.1-.07.19-.1.29-.15.49-.28,1-.39,1.49,0,.13-.06.26-.08.39-.11.53-.19,1.06-.26,1.59,0,.07,0,.14,0,.21-.06.59-.11,1.19-.12,1.79H55.69Z" fill="#c08861"/><path d="M28.37,10.54l-.23.25a10.33,10.33,0,0,0-2.93,7.07V31.65H26V24.38l.14-3.16a3.34,3.34,0,0,1,1.14-1.95,3.82,3.82,0,0,1,2.28-.62h.1V17.11l12.73,0v1.55a4.89,4.89,0,0,1,2.58.9,2.42,2.42,0,0,1,1,1.63L46,24.38v7.27h.76v-14a10.4,10.4,0,0,0-3.15-7.06l-.32-.31A11.64,11.64,0,0,0,41.72,9a10.4,10.4,0,0,0-5.48-1.61H36a10.41,10.41,0,0,0-7.64,3.16" fill="#664a33"/><path d="M46,33h0V21.52a3.29,3.29,0,0,0-.27-1.19,3.33,3.33,0,0,0-2.7-1.85h-.62V16.4H29.55v2.08h-.62a3.21,3.21,0,0,0-2,.9,3,3,0,0,0-.69,1A2.77,2.77,0,0,0,26,21.53V32.8h0v3a9,9,0,0,0,2.93,6.52A9.51,9.51,0,0,0,31.24,44h0v.87h0v3.79a4.3,4.3,0,0,0,1.39,3.1,5.52,5.52,0,0,0,.75.59,5,5,0,0,0,5.25,0,4.52,4.52,0,0,0,.75-.59,4.27,4.27,0,0,0,1.33-2.42,5.05,5.05,0,0,0,.06-.68V44a10.86,10.86,0,0,0,2.33-1.71A9,9,0,0,0,46,36.21a5.7,5.7,0,0,0,0-.67,5.89,5.89,0,0,0,0-.68Z" fill="#c08861"/><path d="M55.68,66.81a18.79,18.79,0,0,0-1.79-7.69,20.24,20.24,0,0,0-5.09-6.59,21.5,21.5,0,0,0-2-1.55v0a18.22,18.22,0,0,0-6-2.64v1.76a4.69,4.69,0,0,1-1.7,3.56A4.79,4.79,0,0,1,32,52.62a5.05,5.05,0,0,1-.75-2.86v-1.4A19.91,19.91,0,0,0,18.35,58.62a19.32,19.32,0,0,0-2,8.38H55.69a1.21,1.21,0,0,0,0-.19C55.68,66.69,55.69,66.87,55.68,66.81Z" fill="#24cd74"/><path d="M46,23.72l-2.45,2.44H28.4L26,23.72v9.37l3.57,3.56h1.59a4.5,4.5,0,0,1,.64-1.39,5.17,5.17,0,0,1,.65-.78,4.92,4.92,0,0,1,2.13-1.28A1.48,1.48,0,0,0,36,34.55h0a1.45,1.45,0,0,0,1-.43,1.52,1.52,0,0,0,.43-.92,5,5,0,0,1,2.1,1.28,5.17,5.17,0,0,1,.65.78,5.07,5.07,0,0,1,.66,1.39h1.59L46,33.11V23.72M31.72,15.8H29.54V18h-.62a3.09,3.09,0,0,0-2,.95,3,3,0,0,0-.7,1,3.18,3.18,0,0,0-.26,1.2v2.56H46V21.15a3.36,3.36,0,0,0-.28-1.24,3.45,3.45,0,0,0-.69-1,3.15,3.15,0,0,0-2-.94h-.62V15.8H31.72m-10,10.09a2.9,2.9,0,0,0-.53.41,2.61,2.61,0,0,0-.78,1.88v.11a2.56,2.56,0,0,0,.78,1.85,2.64,2.64,0,0,0,1.86.8V25.5l-.31,0a2,2,0,0,0-.64.17,1.93,1.93,0,0,0-.38.19m19,24.39a5.51,5.51,0,0,0,.07-.71v-4a10.31,10.31,0,0,1-9.54,0v4a4.55,4.55,0,0,0,1.4,3.24,4.25,4.25,0,0,0,.75.62h5.24a4.25,4.25,0,0,0,.75-.62,4.44,4.44,0,0,0,1.33-2.53m8.56-24.75a1.53,1.53,0,0,0-.3,0v5.44h0a2.58,2.58,0,0,0,1.85-.8,3.79,3.79,0,0,0,.38-.45,2.48,2.48,0,0,0,.4-1.09l0-.45a3.2,3.2,0,0,0-.1-.71,2.74,2.74,0,0,0-.7-1.14,3.79,3.79,0,0,0-.55-.44,2.72,2.72,0,0,0-.35-.16A2.28,2.28,0,0,0,49.26,25.53Z" fill="#c08861"/><path d="M43.58,26.16,46,23.72H26l2.44,2.44H43.58M33.38,53.43a4.79,4.79,0,0,0,5.24,0H33.38M23.82,25.5h-.77v5.44h.77V25.5m17,20.11v-1a10.23,10.23,0,0,1-9.54,0v1a10.31,10.31,0,0,0,9.54,0M49,25.5H48.2v5.44H49Z" fill="#a57553"/><path d="M31.23,56.6a1.32,1.32,0,0,1-.41,1,1.4,1.4,0,0,1-1,.41,1.38,1.38,0,0,1-1-.38L31.23,60V56.6m-2.47-7.48-.37.15a18.7,18.7,0,0,0-4.88,3l5.27,5.27a1.41,1.41,0,0,1-.39-.93V51.34a7.94,7.94,0,0,1,.37-2.22m12,7.48V60l2.39-2.39a1.38,1.38,0,0,1-1,.38,1.4,1.4,0,0,1-1-.41,1.36,1.36,0,0,1-.41-1m2.48-7.48a7.48,7.48,0,0,1,.36,2.22V56.6a1.41,1.41,0,0,1-.36.92l.22-.22.2-.21L45,55.8l3.54-3.53a19.79,19.79,0,0,0-4.88-3Z" fill="#1b9a57"/><path d="M23.51,52.26c-.49.4-1,.84-1.44,1.3A19,19,0,0,0,16.31,67H31.23V60l-2.39-2.39-.06-.06-5.27-5.27m26.4,1.3c-.45-.45-.93-.88-1.42-1.29L45,55.8l-1.28,1.29-.2.21-.22.22L40.77,60v7H55.69a4.4,4.4,0,0,0,0-.61A18.84,18.84,0,0,0,49.91,53.56Z" fill="#24cd74"/><path d="M31.23,50V67h1.64L31.23,50m9.54-.42a5.51,5.51,0,0,1-.07.71L39.13,67h1.64V49.57Z" fill="#7ce1ac"/><path d="M31.23,45.59c-.24.2-.44.39-.62.56a7.28,7.28,0,0,0-1.85,3,7.94,7.94,0,0,0-.37,2.22V56.6a1.41,1.41,0,0,0,.39.93l.06.06a1.38,1.38,0,0,0,1,.38,1.4,1.4,0,0,0,1-.41,1.32,1.32,0,0,0,.41-1v-11m10.14.56a4.87,4.87,0,0,0-.6-.54v11a1.36,1.36,0,0,0,.41,1,1.4,1.4,0,0,0,1,.41,1.38,1.38,0,0,0,1-.38L40.77,60v0l2.48-2.49a1.41,1.41,0,0,0,.36-.92V51.34a7.2,7.2,0,0,0-2.24-5.19Z" fill="#24cd74"/><path d="M39.37,52.81a4.25,4.25,0,0,1-.75.62,4.79,4.79,0,0,1-5.24,0,4.25,4.25,0,0,1-.75-.62,4.55,4.55,0,0,1-1.4-3.24V50l1.64,17h6.26L40.7,50.28A4.44,4.44,0,0,1,39.37,52.81Z" fill="#d3f5e3"/><path d="M29.75,26.6a.56.56,0,0,0,.44.19.58.58,0,0,0,.44-.19.6.6,0,0,0,0-.88.58.58,0,0,0-.44-.19.56.56,0,0,0-.44.19.58.58,0,0,0,0,.88M32,23.81a.6.6,0,0,0-.18-.44.59.59,0,0,0-.44-.18H29a.62.62,0,1,0,0,1.24h2.44a.59.59,0,0,0,.44-.18.6.6,0,0,0,.18-.44m9.78,1.72a.59.59,0,0,0-.44.19.6.6,0,0,0,0,.88.59.59,0,0,0,.44.19.56.56,0,0,0,.44-.19.58.58,0,0,0,0-.88.56.56,0,0,0-.44-.19M40.6,23.19a.62.62,0,1,0,0,1.24H43a.62.62,0,1,0,0-1.24Z" fill="#4b3025"/><path d="M28.51,29.21A1.6,1.6,0,0,0,29,30.37a1.62,1.62,0,0,0,1.17.48,1.59,1.59,0,0,0,1.16-.48,1.64,1.64,0,0,0,0-2.32,1.59,1.59,0,0,0-1.16-.48,1.62,1.62,0,0,0-1.17.48A1.6,1.6,0,0,0,28.51,29.21Z" fill="#b27e5a"/><path d="M40.69,28.05a1.64,1.64,0,0,0,0,2.32,1.64,1.64,0,1,0,0-2.32Z" fill="#b27e5a"/><path d="M40.9,36.65a5.07,5.07,0,0,0-.66-1.39,5.17,5.17,0,0,0-.65-.78,5,5,0,0,0-2.1-1.28h-3a4.92,4.92,0,0,0-2.13,1.28,5.17,5.17,0,0,0-.65.78,4.5,4.5,0,0,0-.64,1.39H29.53L26,33.09V36a9.66,9.66,0,0,0,2.93,6.82,10.82,10.82,0,0,0,2.34,1.78,10.23,10.23,0,0,0,9.54,0,10.71,10.71,0,0,0,2.32-1.78A9.72,9.72,0,0,0,46,36.41c0-.24,0-.47,0-.7s0-.48,0-.71V33.11l-3.54,3.54Z" fill="#664a33"/><path d="M52.21,17.11A15.54,15.54,0,0,0,47.47,6.58,15.63,15.63,0,0,0,36,1.83,15.72,15.72,0,0,0,24.51,6.58,15.64,15.64,0,0,0,19.8,17.11c0,.31,0,.64,0,1A16,16,0,0,0,20.5,23a13.47,13.47,0,0,0,1.06,2.61c.05.1.1.21.16.31a1.93,1.93,0,0,1,.38-.19,2,2,0,0,1,.64-.17l.31,0h.77v5.44L26,33.09V21.16a3.18,3.18,0,0,1,.26-1.2,3,3,0,0,1,.7-1,3.09,3.09,0,0,1,2-.95h.62V15.8H42.43V18h.62a3.15,3.15,0,0,1,2,.94,3.45,3.45,0,0,1,.69,1A3.36,3.36,0,0,1,46,21.15v12l2.17-2.17V25.5H49a1.53,1.53,0,0,1,.3,0,2.28,2.28,0,0,1,.67.17,2.72,2.72,0,0,1,.35.16l.18-.31A14.61,14.61,0,0,0,51.53,23a16.58,16.58,0,0,0,.71-4.9C52.24,17.75,52.23,17.42,52.21,17.11Z" fill="#664a33"/><path d="M34.54,33.2A1.48,1.48,0,0,0,36,34.55h0a1.45,1.45,0,0,0,1-.43,1.52,1.52,0,0,0,.43-.92h-3Z" fill="#845141"/><path d="M37.47,25.52h-3V33.1a.36.36,0,0,0,0,.1h2.94V25.52Z" fill="#9e614e"/><path d="M34.63,40.24a2.28,2.28,0,0,0-.36.49,3.49,3.49,0,0,0,1.68.43h.15a3.45,3.45,0,0,0,1.66-.43,2.28,2.28,0,0,0-.36-.49l-.17-.14a1.85,1.85,0,0,0-1.18-.42H36a1.84,1.84,0,0,0-1.17.42A1.07,1.07,0,0,0,34.63,40.24Z" fill="#eb4539"/><path d="M37.76,40.73a4,4,0,0,0,.5-.34l.3-.28a3.49,3.49,0,0,0,.92-1.52H32.55a3.31,3.31,0,0,0,.92,1.52,2.68,2.68,0,0,0,.3.28,4,4,0,0,0,.5.34,2.28,2.28,0,0,1,.36-.49,1.07,1.07,0,0,1,.16-.14A1.84,1.84,0,0,1,36,39.68h.09a1.85,1.85,0,0,1,1.18.42l.17.14A2.28,2.28,0,0,1,37.76,40.73Z" fill="#4b3025"/><path d="M39.48,38.59a3.75,3.75,0,0,0,.14-1v-.14H32.41v.22a3.68,3.68,0,0,0,.14.94Z" fill="#fbe5be"/></svg>